M48
; DRILL file {KiCad (5.1.5-0-10_14)} date Thursday, 14 May 2020 at 21:48:21
; FORMAT={-:-/ absolute / inch / decimal}
; #@! TF.CreationDate,2020-05-14T21:48:21+01:00
; #@! TF.GenerationSoftware,Kicad,Pcbnew,(5.1.5-0-10_14)
FMAT,2
INCH
T1C0.0157
T2C0.0315
T3C0.0394
%
G90
G05
T1
X3.67Y2.16
X3.67Y1.92
X3.74Y1.63
X3.84Y1.81
X4.01Y1.77
X4.12Y1.75
X4.12Y1.93
T2
X3.8713Y1.58
X3.8713Y1.5013
X3.8713Y1.4225
X3.95Y1.58
X3.95Y1.5013
X3.95Y1.4225
T3
X3.5Y2.14
X3.5Y2.04
X3.5Y1.94
X3.5Y1.84
X3.5Y1.74
X3.5Y1.64
X3.5Y1.54
X3.5Y1.44
X3.87Y2.13
X3.87Y2.03
X3.87Y1.93
X3.97Y2.13
X3.97Y2.03
X3.97Y1.93
T0
M30
