G04 #@! TF.GenerationSoftware,KiCad,Pcbnew,(5.1.5-0-10_14)*
G04 #@! TF.CreationDate,2020-05-14T21:48:16+01:00*
G04 #@! TF.ProjectId,SnapICSP,536e6170-4943-4535-902e-6b696361645f,rev?*
G04 #@! TF.SameCoordinates,Original*
G04 #@! TF.FileFunction,Copper,L1,Top*
G04 #@! TF.FilePolarity,Positive*
%FSLAX46Y46*%
G04 Gerber Fmt 4.6, Leading zero omitted, Abs format (unit mm)*
G04 Created by KiCad (PCBNEW (5.1.5-0-10_14)) date 2020-05-14 21:48:16*
%MOMM*%
%LPD*%
G04 APERTURE LIST*
%ADD10R,1.700000X1.700000*%
%ADD11O,1.700000X1.700000*%
%ADD12R,1.350000X1.350000*%
%ADD13O,1.350000X1.350000*%
%ADD14C,0.800000*%
%ADD15C,0.250000*%
%ADD16C,0.254000*%
G04 APERTURE END LIST*
D10*
X88900000Y54356000D03*
D11*
X88900000Y51816000D03*
X88900000Y49276000D03*
X88900000Y46736000D03*
X88900000Y44196000D03*
X88900000Y41656000D03*
X88900000Y39116000D03*
X88900000Y36576000D03*
D12*
X100330000Y40132000D03*
D13*
X98330000Y40132000D03*
X100330000Y38132000D03*
X98330000Y38132000D03*
X100330000Y36132000D03*
X98330000Y36132000D03*
D10*
X100838000Y54102000D03*
D11*
X98298000Y54102000D03*
X100838000Y51562000D03*
X98298000Y51562000D03*
X100838000Y49022000D03*
X98298000Y49022000D03*
D14*
X94996000Y41402000D03*
X101854000Y44958000D03*
X104648000Y49022000D03*
X104647994Y44450000D03*
X97536000Y45974000D03*
X93218000Y54864000D03*
X93218000Y48768000D03*
D15*
X88900000Y39116000D02*
X94742000Y39116000D01*
X94742000Y39116000D02*
X94996000Y39370000D01*
X94996000Y40836315D02*
X94996000Y41402000D01*
X94996000Y39370000D02*
X94996000Y40836315D01*
X94996000Y38862000D02*
X94742000Y39116000D01*
X94996000Y38354000D02*
X94996000Y38862000D01*
X95218000Y38132000D02*
X94996000Y38354000D01*
X98330000Y38132000D02*
X95218000Y38132000D01*
X100838000Y49022000D02*
X100838000Y47819919D01*
X100838000Y45974000D02*
X101854000Y44958000D01*
X100838000Y47819919D02*
X100838000Y45974000D01*
X104648000Y49022000D02*
X104648000Y44450006D01*
X104647994Y39433994D02*
X104647994Y43884315D01*
X104648000Y44450006D02*
X104647994Y44450000D01*
X100330000Y38132000D02*
X103346000Y38132000D01*
X103346000Y38132000D02*
X104647994Y39433994D01*
X104647994Y43884315D02*
X104647994Y44450000D01*
X97136001Y45574001D02*
X97536000Y45974000D01*
X95758000Y44196000D02*
X97136001Y45574001D01*
X88900000Y44196000D02*
X95758000Y44196000D01*
X103124000Y40132000D02*
X100330000Y40132000D01*
X103632000Y40640000D02*
X103124000Y40132000D01*
X103632000Y53086000D02*
X103632000Y40640000D01*
X102616000Y54102000D02*
X103632000Y53086000D01*
X100838000Y54102000D02*
X102616000Y54102000D01*
X88900000Y46736000D02*
X91186000Y46736000D01*
X91186000Y46736000D02*
X93218000Y48768000D01*
X93218000Y54864000D02*
X94996000Y56642000D01*
X94996000Y56642000D02*
X94996000Y56642000D01*
X100838000Y56134000D02*
X100838000Y54102000D01*
X100330000Y56642000D02*
X100838000Y56134000D01*
X94996000Y56642000D02*
X100330000Y56642000D01*
D16*
G36*
X106020001Y33680000D02*
G01*
X87020000Y33680000D01*
X87020000Y49422260D01*
X87415000Y49422260D01*
X87415000Y49129740D01*
X87472068Y48842842D01*
X87584010Y48572589D01*
X87746525Y48329368D01*
X87953368Y48122525D01*
X88127760Y48006000D01*
X87953368Y47889475D01*
X87746525Y47682632D01*
X87584010Y47439411D01*
X87472068Y47169158D01*
X87415000Y46882260D01*
X87415000Y46589740D01*
X87472068Y46302842D01*
X87584010Y46032589D01*
X87746525Y45789368D01*
X87953368Y45582525D01*
X88127760Y45466000D01*
X87953368Y45349475D01*
X87746525Y45142632D01*
X87584010Y44899411D01*
X87472068Y44629158D01*
X87415000Y44342260D01*
X87415000Y44049740D01*
X87472068Y43762842D01*
X87584010Y43492589D01*
X87746525Y43249368D01*
X87953368Y43042525D01*
X88127760Y42926000D01*
X87953368Y42809475D01*
X87746525Y42602632D01*
X87584010Y42359411D01*
X87472068Y42089158D01*
X87415000Y41802260D01*
X87415000Y41509740D01*
X87472068Y41222842D01*
X87584010Y40952589D01*
X87746525Y40709368D01*
X87953368Y40502525D01*
X88127760Y40386000D01*
X87953368Y40269475D01*
X87746525Y40062632D01*
X87584010Y39819411D01*
X87472068Y39549158D01*
X87415000Y39262260D01*
X87415000Y38969740D01*
X87472068Y38682842D01*
X87584010Y38412589D01*
X87746525Y38169368D01*
X87953368Y37962525D01*
X88127760Y37846000D01*
X87953368Y37729475D01*
X87746525Y37522632D01*
X87584010Y37279411D01*
X87472068Y37009158D01*
X87415000Y36722260D01*
X87415000Y36429740D01*
X87472068Y36142842D01*
X87584010Y35872589D01*
X87746525Y35629368D01*
X87953368Y35422525D01*
X88196589Y35260010D01*
X88466842Y35148068D01*
X88753740Y35091000D01*
X89046260Y35091000D01*
X89333158Y35148068D01*
X89603411Y35260010D01*
X89846632Y35422525D01*
X90053475Y35629368D01*
X90215990Y35872589D01*
X90327932Y36142842D01*
X90385000Y36429740D01*
X90385000Y36722260D01*
X90327932Y37009158D01*
X90215990Y37279411D01*
X90053475Y37522632D01*
X89846632Y37729475D01*
X89672240Y37846000D01*
X89846632Y37962525D01*
X90053475Y38169368D01*
X90178178Y38356000D01*
X94232521Y38356000D01*
X94232324Y38354000D01*
X94236000Y38316678D01*
X94236000Y38316668D01*
X94246997Y38205015D01*
X94274910Y38112998D01*
X94290454Y38061754D01*
X94361026Y37929724D01*
X94391994Y37891990D01*
X94455999Y37813999D01*
X94485002Y37790197D01*
X94654200Y37620998D01*
X94677999Y37591999D01*
X94793724Y37497026D01*
X94925753Y37426454D01*
X95069014Y37382997D01*
X95180667Y37372000D01*
X95180676Y37372000D01*
X95217999Y37368324D01*
X95255322Y37372000D01*
X97262291Y37372000D01*
X97312456Y37296923D01*
X97477379Y37132000D01*
X97312456Y36967077D01*
X97169093Y36752518D01*
X97070342Y36514113D01*
X97020000Y36261024D01*
X97020000Y36002976D01*
X97070342Y35749887D01*
X97169093Y35511482D01*
X97312456Y35296923D01*
X97494923Y35114456D01*
X97709482Y34971093D01*
X97947887Y34872342D01*
X98200976Y34822000D01*
X98459024Y34822000D01*
X98712113Y34872342D01*
X98950518Y34971093D01*
X99165077Y35114456D01*
X99330000Y35279379D01*
X99494923Y35114456D01*
X99709482Y34971093D01*
X99947887Y34872342D01*
X100200976Y34822000D01*
X100459024Y34822000D01*
X100712113Y34872342D01*
X100950518Y34971093D01*
X101165077Y35114456D01*
X101347544Y35296923D01*
X101490907Y35511482D01*
X101589658Y35749887D01*
X101640000Y36002976D01*
X101640000Y36261024D01*
X101589658Y36514113D01*
X101490907Y36752518D01*
X101347544Y36967077D01*
X101182621Y37132000D01*
X101347544Y37296923D01*
X101397709Y37372000D01*
X103308678Y37372000D01*
X103346000Y37368324D01*
X103383322Y37372000D01*
X103383333Y37372000D01*
X103494986Y37382997D01*
X103638247Y37426454D01*
X103770276Y37497026D01*
X103886001Y37591999D01*
X103909804Y37621003D01*
X105158998Y38870196D01*
X105187995Y38893993D01*
X105282968Y39009718D01*
X105353540Y39141747D01*
X105396997Y39285008D01*
X105407994Y39396661D01*
X105407994Y39396662D01*
X105411671Y39433994D01*
X105407994Y39471327D01*
X105407994Y43746289D01*
X105451931Y43790226D01*
X105565199Y43959744D01*
X105643220Y44148102D01*
X105682994Y44348061D01*
X105682994Y44551939D01*
X105643220Y44751898D01*
X105565199Y44940256D01*
X105451931Y45109774D01*
X105408000Y45153705D01*
X105408000Y48318289D01*
X105451937Y48362226D01*
X105565205Y48531744D01*
X105643226Y48720102D01*
X105683000Y48920061D01*
X105683000Y49123939D01*
X105643226Y49323898D01*
X105565205Y49512256D01*
X105451937Y49681774D01*
X105307774Y49825937D01*
X105138256Y49939205D01*
X104949898Y50017226D01*
X104749939Y50057000D01*
X104546061Y50057000D01*
X104392000Y50026356D01*
X104392000Y53048678D01*
X104395676Y53086000D01*
X104392000Y53123323D01*
X104392000Y53123333D01*
X104381003Y53234986D01*
X104337546Y53378247D01*
X104266975Y53510275D01*
X104266974Y53510277D01*
X104195799Y53597003D01*
X104172001Y53626001D01*
X104143004Y53649798D01*
X103179804Y54612998D01*
X103156001Y54642001D01*
X103040276Y54736974D01*
X102908247Y54807546D01*
X102764986Y54851003D01*
X102653333Y54862000D01*
X102653322Y54862000D01*
X102616000Y54865676D01*
X102578678Y54862000D01*
X102326072Y54862000D01*
X102326072Y54952000D01*
X102313812Y55076482D01*
X102277502Y55196180D01*
X102218537Y55306494D01*
X102139185Y55403185D01*
X102042494Y55482537D01*
X101932180Y55541502D01*
X101812482Y55577812D01*
X101688000Y55590072D01*
X101598000Y55590072D01*
X101598000Y56096678D01*
X101601676Y56134001D01*
X101598000Y56171324D01*
X101598000Y56171333D01*
X101587003Y56282986D01*
X101543546Y56426247D01*
X101472974Y56558276D01*
X101378001Y56674001D01*
X101349003Y56697798D01*
X100893803Y57152998D01*
X100870001Y57182001D01*
X100754276Y57276974D01*
X100622247Y57347546D01*
X100478986Y57391003D01*
X100367333Y57402000D01*
X100367322Y57402000D01*
X100330000Y57405676D01*
X100292678Y57402000D01*
X95033325Y57402000D01*
X94996000Y57405676D01*
X94958675Y57402000D01*
X94958667Y57402000D01*
X94847014Y57391003D01*
X94703753Y57347546D01*
X94571724Y57276974D01*
X94455999Y57182001D01*
X94432201Y57153003D01*
X93178199Y55899000D01*
X93116061Y55899000D01*
X92916102Y55859226D01*
X92727744Y55781205D01*
X92558226Y55667937D01*
X92414063Y55523774D01*
X92300795Y55354256D01*
X92222774Y55165898D01*
X92183000Y54965939D01*
X92183000Y54762061D01*
X92222774Y54562102D01*
X92300795Y54373744D01*
X92414063Y54204226D01*
X92558226Y54060063D01*
X92727744Y53946795D01*
X92916102Y53868774D01*
X93116061Y53829000D01*
X93319939Y53829000D01*
X93519898Y53868774D01*
X93708256Y53946795D01*
X93877774Y54060063D01*
X94021937Y54204226D01*
X94135205Y54373744D01*
X94170473Y54458890D01*
X96856524Y54458890D01*
X96977845Y54229000D01*
X98171000Y54229000D01*
X98171000Y55422814D01*
X97941109Y55543481D01*
X97666748Y55446157D01*
X97416645Y55297178D01*
X97200412Y55102269D01*
X97026359Y54868920D01*
X96901175Y54606099D01*
X96856524Y54458890D01*
X94170473Y54458890D01*
X94213226Y54562102D01*
X94253000Y54762061D01*
X94253000Y54824199D01*
X95310802Y55882000D01*
X100015199Y55882000D01*
X100078000Y55819198D01*
X100078000Y55590072D01*
X99988000Y55590072D01*
X99863518Y55577812D01*
X99743820Y55541502D01*
X99633506Y55482537D01*
X99536815Y55403185D01*
X99457463Y55306494D01*
X99398498Y55196180D01*
X99375502Y55120374D01*
X99179355Y55297178D01*
X98929252Y55446157D01*
X98654891Y55543481D01*
X98425000Y55422814D01*
X98425000Y54229000D01*
X98445000Y54229000D01*
X98445000Y53975000D01*
X98425000Y53975000D01*
X98425000Y53955000D01*
X98171000Y53955000D01*
X98171000Y53975000D01*
X96977845Y53975000D01*
X96856524Y53745110D01*
X96901175Y53597901D01*
X97026359Y53335080D01*
X97200412Y53101731D01*
X97416645Y52906822D01*
X97533534Y52837195D01*
X97351368Y52715475D01*
X97144525Y52508632D01*
X96982010Y52265411D01*
X96870068Y51995158D01*
X96813000Y51708260D01*
X96813000Y51415740D01*
X96870068Y51128842D01*
X96982010Y50858589D01*
X97144525Y50615368D01*
X97351368Y50408525D01*
X97525760Y50292000D01*
X97351368Y50175475D01*
X97144525Y49968632D01*
X96982010Y49725411D01*
X96870068Y49455158D01*
X96813000Y49168260D01*
X96813000Y48875740D01*
X96870068Y48588842D01*
X96982010Y48318589D01*
X97144525Y48075368D01*
X97351368Y47868525D01*
X97594589Y47706010D01*
X97864842Y47594068D01*
X98151740Y47537000D01*
X98444260Y47537000D01*
X98731158Y47594068D01*
X99001411Y47706010D01*
X99244632Y47868525D01*
X99451475Y48075368D01*
X99568000Y48249760D01*
X99684525Y48075368D01*
X99891368Y47868525D01*
X100078000Y47743822D01*
X100078001Y46011332D01*
X100074324Y45974000D01*
X100088998Y45825015D01*
X100132454Y45681754D01*
X100203026Y45549724D01*
X100257175Y45483744D01*
X100298000Y45433999D01*
X100326998Y45410201D01*
X100819000Y44918198D01*
X100819000Y44856061D01*
X100858774Y44656102D01*
X100936795Y44467744D01*
X101050063Y44298226D01*
X101194226Y44154063D01*
X101363744Y44040795D01*
X101552102Y43962774D01*
X101752061Y43923000D01*
X101955939Y43923000D01*
X102155898Y43962774D01*
X102344256Y44040795D01*
X102513774Y44154063D01*
X102657937Y44298226D01*
X102771205Y44467744D01*
X102849226Y44656102D01*
X102872001Y44770599D01*
X102872001Y40954803D01*
X102809199Y40892000D01*
X101634701Y40892000D01*
X101630812Y40931482D01*
X101594502Y41051180D01*
X101535537Y41161494D01*
X101456185Y41258185D01*
X101359494Y41337537D01*
X101249180Y41396502D01*
X101129482Y41432812D01*
X101005000Y41445072D01*
X99655000Y41445072D01*
X99530518Y41432812D01*
X99410820Y41396502D01*
X99300506Y41337537D01*
X99203815Y41258185D01*
X99129744Y41167929D01*
X99119537Y41177344D01*
X98900430Y41311289D01*
X98659401Y41399915D01*
X98457000Y41277085D01*
X98457000Y40259000D01*
X98477000Y40259000D01*
X98477000Y40005000D01*
X98457000Y40005000D01*
X98457000Y39985000D01*
X98203000Y39985000D01*
X98203000Y40005000D01*
X97185776Y40005000D01*
X97062090Y39802600D01*
X97092762Y39701472D01*
X97200527Y39468371D01*
X97351697Y39260773D01*
X97484060Y39138681D01*
X97312456Y38967077D01*
X97262291Y38892000D01*
X95756721Y38892000D01*
X95756000Y38899324D01*
X95756000Y38899333D01*
X95745003Y39010986D01*
X95713148Y39116000D01*
X95745003Y39221014D01*
X95756000Y39332667D01*
X95756000Y39332676D01*
X95759676Y39369999D01*
X95756000Y39407322D01*
X95756000Y40461400D01*
X97062090Y40461400D01*
X97185776Y40259000D01*
X98203000Y40259000D01*
X98203000Y41277085D01*
X98000599Y41399915D01*
X97759570Y41311289D01*
X97540463Y41177344D01*
X97351697Y41003227D01*
X97200527Y40795629D01*
X97092762Y40562528D01*
X97062090Y40461400D01*
X95756000Y40461400D01*
X95756000Y40698289D01*
X95799937Y40742226D01*
X95913205Y40911744D01*
X95991226Y41100102D01*
X96031000Y41300061D01*
X96031000Y41503939D01*
X95991226Y41703898D01*
X95913205Y41892256D01*
X95799937Y42061774D01*
X95655774Y42205937D01*
X95486256Y42319205D01*
X95297898Y42397226D01*
X95097939Y42437000D01*
X94894061Y42437000D01*
X94694102Y42397226D01*
X94505744Y42319205D01*
X94336226Y42205937D01*
X94192063Y42061774D01*
X94078795Y41892256D01*
X94000774Y41703898D01*
X93961000Y41503939D01*
X93961000Y41300061D01*
X94000774Y41100102D01*
X94078795Y40911744D01*
X94192063Y40742226D01*
X94236001Y40698288D01*
X94236000Y39876000D01*
X90178178Y39876000D01*
X90053475Y40062632D01*
X89846632Y40269475D01*
X89672240Y40386000D01*
X89846632Y40502525D01*
X90053475Y40709368D01*
X90215990Y40952589D01*
X90327932Y41222842D01*
X90385000Y41509740D01*
X90385000Y41802260D01*
X90327932Y42089158D01*
X90215990Y42359411D01*
X90053475Y42602632D01*
X89846632Y42809475D01*
X89672240Y42926000D01*
X89846632Y43042525D01*
X90053475Y43249368D01*
X90178178Y43436000D01*
X95720678Y43436000D01*
X95758000Y43432324D01*
X95795322Y43436000D01*
X95795333Y43436000D01*
X95906986Y43446997D01*
X96050247Y43490454D01*
X96182276Y43561026D01*
X96298001Y43655999D01*
X96321804Y43685003D01*
X97575802Y44939000D01*
X97637939Y44939000D01*
X97837898Y44978774D01*
X98026256Y45056795D01*
X98195774Y45170063D01*
X98339937Y45314226D01*
X98453205Y45483744D01*
X98531226Y45672102D01*
X98571000Y45872061D01*
X98571000Y46075939D01*
X98531226Y46275898D01*
X98453205Y46464256D01*
X98339937Y46633774D01*
X98195774Y46777937D01*
X98026256Y46891205D01*
X97837898Y46969226D01*
X97637939Y47009000D01*
X97434061Y47009000D01*
X97234102Y46969226D01*
X97045744Y46891205D01*
X96876226Y46777937D01*
X96732063Y46633774D01*
X96618795Y46464256D01*
X96540774Y46275898D01*
X96501000Y46075939D01*
X96501000Y46013802D01*
X95443199Y44956000D01*
X90178178Y44956000D01*
X90053475Y45142632D01*
X89846632Y45349475D01*
X89672240Y45466000D01*
X89846632Y45582525D01*
X90053475Y45789368D01*
X90178178Y45976000D01*
X91148678Y45976000D01*
X91186000Y45972324D01*
X91223322Y45976000D01*
X91223333Y45976000D01*
X91334986Y45986997D01*
X91478247Y46030454D01*
X91610276Y46101026D01*
X91726001Y46195999D01*
X91749804Y46225003D01*
X93257802Y47733000D01*
X93319939Y47733000D01*
X93519898Y47772774D01*
X93708256Y47850795D01*
X93877774Y47964063D01*
X94021937Y48108226D01*
X94135205Y48277744D01*
X94213226Y48466102D01*
X94253000Y48666061D01*
X94253000Y48869939D01*
X94213226Y49069898D01*
X94135205Y49258256D01*
X94021937Y49427774D01*
X93877774Y49571937D01*
X93708256Y49685205D01*
X93519898Y49763226D01*
X93319939Y49803000D01*
X93116061Y49803000D01*
X92916102Y49763226D01*
X92727744Y49685205D01*
X92558226Y49571937D01*
X92414063Y49427774D01*
X92300795Y49258256D01*
X92222774Y49069898D01*
X92183000Y48869939D01*
X92183000Y48807802D01*
X90871199Y47496000D01*
X90178178Y47496000D01*
X90053475Y47682632D01*
X89846632Y47889475D01*
X89672240Y48006000D01*
X89846632Y48122525D01*
X90053475Y48329368D01*
X90215990Y48572589D01*
X90327932Y48842842D01*
X90385000Y49129740D01*
X90385000Y49422260D01*
X90327932Y49709158D01*
X90215990Y49979411D01*
X90053475Y50222632D01*
X89846632Y50429475D01*
X89664466Y50551195D01*
X89781355Y50620822D01*
X89997588Y50815731D01*
X90171641Y51049080D01*
X90296825Y51311901D01*
X90341476Y51459110D01*
X90220155Y51689000D01*
X89027000Y51689000D01*
X89027000Y51669000D01*
X88773000Y51669000D01*
X88773000Y51689000D01*
X87579845Y51689000D01*
X87458524Y51459110D01*
X87503175Y51311901D01*
X87628359Y51049080D01*
X87802412Y50815731D01*
X88018645Y50620822D01*
X88135534Y50551195D01*
X87953368Y50429475D01*
X87746525Y50222632D01*
X87584010Y49979411D01*
X87472068Y49709158D01*
X87415000Y49422260D01*
X87020000Y49422260D01*
X87020000Y55206000D01*
X87411928Y55206000D01*
X87411928Y53506000D01*
X87424188Y53381518D01*
X87460498Y53261820D01*
X87519463Y53151506D01*
X87598815Y53054815D01*
X87695506Y52975463D01*
X87805820Y52916498D01*
X87886466Y52892034D01*
X87802412Y52816269D01*
X87628359Y52582920D01*
X87503175Y52320099D01*
X87458524Y52172890D01*
X87579845Y51943000D01*
X88773000Y51943000D01*
X88773000Y51963000D01*
X89027000Y51963000D01*
X89027000Y51943000D01*
X90220155Y51943000D01*
X90341476Y52172890D01*
X90296825Y52320099D01*
X90171641Y52582920D01*
X89997588Y52816269D01*
X89913534Y52892034D01*
X89994180Y52916498D01*
X90104494Y52975463D01*
X90201185Y53054815D01*
X90280537Y53151506D01*
X90339502Y53261820D01*
X90375812Y53381518D01*
X90388072Y53506000D01*
X90388072Y55206000D01*
X90375812Y55330482D01*
X90339502Y55450180D01*
X90280537Y55560494D01*
X90201185Y55657185D01*
X90104494Y55736537D01*
X89994180Y55795502D01*
X89874482Y55831812D01*
X89750000Y55844072D01*
X88050000Y55844072D01*
X87925518Y55831812D01*
X87805820Y55795502D01*
X87695506Y55736537D01*
X87598815Y55657185D01*
X87519463Y55560494D01*
X87460498Y55450180D01*
X87424188Y55330482D01*
X87411928Y55206000D01*
X87020000Y55206000D01*
X87020000Y57760000D01*
X106020000Y57760000D01*
X106020001Y33680000D01*
G37*
X106020001Y33680000D02*
X87020000Y33680000D01*
X87020000Y49422260D01*
X87415000Y49422260D01*
X87415000Y49129740D01*
X87472068Y48842842D01*
X87584010Y48572589D01*
X87746525Y48329368D01*
X87953368Y48122525D01*
X88127760Y48006000D01*
X87953368Y47889475D01*
X87746525Y47682632D01*
X87584010Y47439411D01*
X87472068Y47169158D01*
X87415000Y46882260D01*
X87415000Y46589740D01*
X87472068Y46302842D01*
X87584010Y46032589D01*
X87746525Y45789368D01*
X87953368Y45582525D01*
X88127760Y45466000D01*
X87953368Y45349475D01*
X87746525Y45142632D01*
X87584010Y44899411D01*
X87472068Y44629158D01*
X87415000Y44342260D01*
X87415000Y44049740D01*
X87472068Y43762842D01*
X87584010Y43492589D01*
X87746525Y43249368D01*
X87953368Y43042525D01*
X88127760Y42926000D01*
X87953368Y42809475D01*
X87746525Y42602632D01*
X87584010Y42359411D01*
X87472068Y42089158D01*
X87415000Y41802260D01*
X87415000Y41509740D01*
X87472068Y41222842D01*
X87584010Y40952589D01*
X87746525Y40709368D01*
X87953368Y40502525D01*
X88127760Y40386000D01*
X87953368Y40269475D01*
X87746525Y40062632D01*
X87584010Y39819411D01*
X87472068Y39549158D01*
X87415000Y39262260D01*
X87415000Y38969740D01*
X87472068Y38682842D01*
X87584010Y38412589D01*
X87746525Y38169368D01*
X87953368Y37962525D01*
X88127760Y37846000D01*
X87953368Y37729475D01*
X87746525Y37522632D01*
X87584010Y37279411D01*
X87472068Y37009158D01*
X87415000Y36722260D01*
X87415000Y36429740D01*
X87472068Y36142842D01*
X87584010Y35872589D01*
X87746525Y35629368D01*
X87953368Y35422525D01*
X88196589Y35260010D01*
X88466842Y35148068D01*
X88753740Y35091000D01*
X89046260Y35091000D01*
X89333158Y35148068D01*
X89603411Y35260010D01*
X89846632Y35422525D01*
X90053475Y35629368D01*
X90215990Y35872589D01*
X90327932Y36142842D01*
X90385000Y36429740D01*
X90385000Y36722260D01*
X90327932Y37009158D01*
X90215990Y37279411D01*
X90053475Y37522632D01*
X89846632Y37729475D01*
X89672240Y37846000D01*
X89846632Y37962525D01*
X90053475Y38169368D01*
X90178178Y38356000D01*
X94232521Y38356000D01*
X94232324Y38354000D01*
X94236000Y38316678D01*
X94236000Y38316668D01*
X94246997Y38205015D01*
X94274910Y38112998D01*
X94290454Y38061754D01*
X94361026Y37929724D01*
X94391994Y37891990D01*
X94455999Y37813999D01*
X94485002Y37790197D01*
X94654200Y37620998D01*
X94677999Y37591999D01*
X94793724Y37497026D01*
X94925753Y37426454D01*
X95069014Y37382997D01*
X95180667Y37372000D01*
X95180676Y37372000D01*
X95217999Y37368324D01*
X95255322Y37372000D01*
X97262291Y37372000D01*
X97312456Y37296923D01*
X97477379Y37132000D01*
X97312456Y36967077D01*
X97169093Y36752518D01*
X97070342Y36514113D01*
X97020000Y36261024D01*
X97020000Y36002976D01*
X97070342Y35749887D01*
X97169093Y35511482D01*
X97312456Y35296923D01*
X97494923Y35114456D01*
X97709482Y34971093D01*
X97947887Y34872342D01*
X98200976Y34822000D01*
X98459024Y34822000D01*
X98712113Y34872342D01*
X98950518Y34971093D01*
X99165077Y35114456D01*
X99330000Y35279379D01*
X99494923Y35114456D01*
X99709482Y34971093D01*
X99947887Y34872342D01*
X100200976Y34822000D01*
X100459024Y34822000D01*
X100712113Y34872342D01*
X100950518Y34971093D01*
X101165077Y35114456D01*
X101347544Y35296923D01*
X101490907Y35511482D01*
X101589658Y35749887D01*
X101640000Y36002976D01*
X101640000Y36261024D01*
X101589658Y36514113D01*
X101490907Y36752518D01*
X101347544Y36967077D01*
X101182621Y37132000D01*
X101347544Y37296923D01*
X101397709Y37372000D01*
X103308678Y37372000D01*
X103346000Y37368324D01*
X103383322Y37372000D01*
X103383333Y37372000D01*
X103494986Y37382997D01*
X103638247Y37426454D01*
X103770276Y37497026D01*
X103886001Y37591999D01*
X103909804Y37621003D01*
X105158998Y38870196D01*
X105187995Y38893993D01*
X105282968Y39009718D01*
X105353540Y39141747D01*
X105396997Y39285008D01*
X105407994Y39396661D01*
X105407994Y39396662D01*
X105411671Y39433994D01*
X105407994Y39471327D01*
X105407994Y43746289D01*
X105451931Y43790226D01*
X105565199Y43959744D01*
X105643220Y44148102D01*
X105682994Y44348061D01*
X105682994Y44551939D01*
X105643220Y44751898D01*
X105565199Y44940256D01*
X105451931Y45109774D01*
X105408000Y45153705D01*
X105408000Y48318289D01*
X105451937Y48362226D01*
X105565205Y48531744D01*
X105643226Y48720102D01*
X105683000Y48920061D01*
X105683000Y49123939D01*
X105643226Y49323898D01*
X105565205Y49512256D01*
X105451937Y49681774D01*
X105307774Y49825937D01*
X105138256Y49939205D01*
X104949898Y50017226D01*
X104749939Y50057000D01*
X104546061Y50057000D01*
X104392000Y50026356D01*
X104392000Y53048678D01*
X104395676Y53086000D01*
X104392000Y53123323D01*
X104392000Y53123333D01*
X104381003Y53234986D01*
X104337546Y53378247D01*
X104266975Y53510275D01*
X104266974Y53510277D01*
X104195799Y53597003D01*
X104172001Y53626001D01*
X104143004Y53649798D01*
X103179804Y54612998D01*
X103156001Y54642001D01*
X103040276Y54736974D01*
X102908247Y54807546D01*
X102764986Y54851003D01*
X102653333Y54862000D01*
X102653322Y54862000D01*
X102616000Y54865676D01*
X102578678Y54862000D01*
X102326072Y54862000D01*
X102326072Y54952000D01*
X102313812Y55076482D01*
X102277502Y55196180D01*
X102218537Y55306494D01*
X102139185Y55403185D01*
X102042494Y55482537D01*
X101932180Y55541502D01*
X101812482Y55577812D01*
X101688000Y55590072D01*
X101598000Y55590072D01*
X101598000Y56096678D01*
X101601676Y56134001D01*
X101598000Y56171324D01*
X101598000Y56171333D01*
X101587003Y56282986D01*
X101543546Y56426247D01*
X101472974Y56558276D01*
X101378001Y56674001D01*
X101349003Y56697798D01*
X100893803Y57152998D01*
X100870001Y57182001D01*
X100754276Y57276974D01*
X100622247Y57347546D01*
X100478986Y57391003D01*
X100367333Y57402000D01*
X100367322Y57402000D01*
X100330000Y57405676D01*
X100292678Y57402000D01*
X95033325Y57402000D01*
X94996000Y57405676D01*
X94958675Y57402000D01*
X94958667Y57402000D01*
X94847014Y57391003D01*
X94703753Y57347546D01*
X94571724Y57276974D01*
X94455999Y57182001D01*
X94432201Y57153003D01*
X93178199Y55899000D01*
X93116061Y55899000D01*
X92916102Y55859226D01*
X92727744Y55781205D01*
X92558226Y55667937D01*
X92414063Y55523774D01*
X92300795Y55354256D01*
X92222774Y55165898D01*
X92183000Y54965939D01*
X92183000Y54762061D01*
X92222774Y54562102D01*
X92300795Y54373744D01*
X92414063Y54204226D01*
X92558226Y54060063D01*
X92727744Y53946795D01*
X92916102Y53868774D01*
X93116061Y53829000D01*
X93319939Y53829000D01*
X93519898Y53868774D01*
X93708256Y53946795D01*
X93877774Y54060063D01*
X94021937Y54204226D01*
X94135205Y54373744D01*
X94170473Y54458890D01*
X96856524Y54458890D01*
X96977845Y54229000D01*
X98171000Y54229000D01*
X98171000Y55422814D01*
X97941109Y55543481D01*
X97666748Y55446157D01*
X97416645Y55297178D01*
X97200412Y55102269D01*
X97026359Y54868920D01*
X96901175Y54606099D01*
X96856524Y54458890D01*
X94170473Y54458890D01*
X94213226Y54562102D01*
X94253000Y54762061D01*
X94253000Y54824199D01*
X95310802Y55882000D01*
X100015199Y55882000D01*
X100078000Y55819198D01*
X100078000Y55590072D01*
X99988000Y55590072D01*
X99863518Y55577812D01*
X99743820Y55541502D01*
X99633506Y55482537D01*
X99536815Y55403185D01*
X99457463Y55306494D01*
X99398498Y55196180D01*
X99375502Y55120374D01*
X99179355Y55297178D01*
X98929252Y55446157D01*
X98654891Y55543481D01*
X98425000Y55422814D01*
X98425000Y54229000D01*
X98445000Y54229000D01*
X98445000Y53975000D01*
X98425000Y53975000D01*
X98425000Y53955000D01*
X98171000Y53955000D01*
X98171000Y53975000D01*
X96977845Y53975000D01*
X96856524Y53745110D01*
X96901175Y53597901D01*
X97026359Y53335080D01*
X97200412Y53101731D01*
X97416645Y52906822D01*
X97533534Y52837195D01*
X97351368Y52715475D01*
X97144525Y52508632D01*
X96982010Y52265411D01*
X96870068Y51995158D01*
X96813000Y51708260D01*
X96813000Y51415740D01*
X96870068Y51128842D01*
X96982010Y50858589D01*
X97144525Y50615368D01*
X97351368Y50408525D01*
X97525760Y50292000D01*
X97351368Y50175475D01*
X97144525Y49968632D01*
X96982010Y49725411D01*
X96870068Y49455158D01*
X96813000Y49168260D01*
X96813000Y48875740D01*
X96870068Y48588842D01*
X96982010Y48318589D01*
X97144525Y48075368D01*
X97351368Y47868525D01*
X97594589Y47706010D01*
X97864842Y47594068D01*
X98151740Y47537000D01*
X98444260Y47537000D01*
X98731158Y47594068D01*
X99001411Y47706010D01*
X99244632Y47868525D01*
X99451475Y48075368D01*
X99568000Y48249760D01*
X99684525Y48075368D01*
X99891368Y47868525D01*
X100078000Y47743822D01*
X100078001Y46011332D01*
X100074324Y45974000D01*
X100088998Y45825015D01*
X100132454Y45681754D01*
X100203026Y45549724D01*
X100257175Y45483744D01*
X100298000Y45433999D01*
X100326998Y45410201D01*
X100819000Y44918198D01*
X100819000Y44856061D01*
X100858774Y44656102D01*
X100936795Y44467744D01*
X101050063Y44298226D01*
X101194226Y44154063D01*
X101363744Y44040795D01*
X101552102Y43962774D01*
X101752061Y43923000D01*
X101955939Y43923000D01*
X102155898Y43962774D01*
X102344256Y44040795D01*
X102513774Y44154063D01*
X102657937Y44298226D01*
X102771205Y44467744D01*
X102849226Y44656102D01*
X102872001Y44770599D01*
X102872001Y40954803D01*
X102809199Y40892000D01*
X101634701Y40892000D01*
X101630812Y40931482D01*
X101594502Y41051180D01*
X101535537Y41161494D01*
X101456185Y41258185D01*
X101359494Y41337537D01*
X101249180Y41396502D01*
X101129482Y41432812D01*
X101005000Y41445072D01*
X99655000Y41445072D01*
X99530518Y41432812D01*
X99410820Y41396502D01*
X99300506Y41337537D01*
X99203815Y41258185D01*
X99129744Y41167929D01*
X99119537Y41177344D01*
X98900430Y41311289D01*
X98659401Y41399915D01*
X98457000Y41277085D01*
X98457000Y40259000D01*
X98477000Y40259000D01*
X98477000Y40005000D01*
X98457000Y40005000D01*
X98457000Y39985000D01*
X98203000Y39985000D01*
X98203000Y40005000D01*
X97185776Y40005000D01*
X97062090Y39802600D01*
X97092762Y39701472D01*
X97200527Y39468371D01*
X97351697Y39260773D01*
X97484060Y39138681D01*
X97312456Y38967077D01*
X97262291Y38892000D01*
X95756721Y38892000D01*
X95756000Y38899324D01*
X95756000Y38899333D01*
X95745003Y39010986D01*
X95713148Y39116000D01*
X95745003Y39221014D01*
X95756000Y39332667D01*
X95756000Y39332676D01*
X95759676Y39369999D01*
X95756000Y39407322D01*
X95756000Y40461400D01*
X97062090Y40461400D01*
X97185776Y40259000D01*
X98203000Y40259000D01*
X98203000Y41277085D01*
X98000599Y41399915D01*
X97759570Y41311289D01*
X97540463Y41177344D01*
X97351697Y41003227D01*
X97200527Y40795629D01*
X97092762Y40562528D01*
X97062090Y40461400D01*
X95756000Y40461400D01*
X95756000Y40698289D01*
X95799937Y40742226D01*
X95913205Y40911744D01*
X95991226Y41100102D01*
X96031000Y41300061D01*
X96031000Y41503939D01*
X95991226Y41703898D01*
X95913205Y41892256D01*
X95799937Y42061774D01*
X95655774Y42205937D01*
X95486256Y42319205D01*
X95297898Y42397226D01*
X95097939Y42437000D01*
X94894061Y42437000D01*
X94694102Y42397226D01*
X94505744Y42319205D01*
X94336226Y42205937D01*
X94192063Y42061774D01*
X94078795Y41892256D01*
X94000774Y41703898D01*
X93961000Y41503939D01*
X93961000Y41300061D01*
X94000774Y41100102D01*
X94078795Y40911744D01*
X94192063Y40742226D01*
X94236001Y40698288D01*
X94236000Y39876000D01*
X90178178Y39876000D01*
X90053475Y40062632D01*
X89846632Y40269475D01*
X89672240Y40386000D01*
X89846632Y40502525D01*
X90053475Y40709368D01*
X90215990Y40952589D01*
X90327932Y41222842D01*
X90385000Y41509740D01*
X90385000Y41802260D01*
X90327932Y42089158D01*
X90215990Y42359411D01*
X90053475Y42602632D01*
X89846632Y42809475D01*
X89672240Y42926000D01*
X89846632Y43042525D01*
X90053475Y43249368D01*
X90178178Y43436000D01*
X95720678Y43436000D01*
X95758000Y43432324D01*
X95795322Y43436000D01*
X95795333Y43436000D01*
X95906986Y43446997D01*
X96050247Y43490454D01*
X96182276Y43561026D01*
X96298001Y43655999D01*
X96321804Y43685003D01*
X97575802Y44939000D01*
X97637939Y44939000D01*
X97837898Y44978774D01*
X98026256Y45056795D01*
X98195774Y45170063D01*
X98339937Y45314226D01*
X98453205Y45483744D01*
X98531226Y45672102D01*
X98571000Y45872061D01*
X98571000Y46075939D01*
X98531226Y46275898D01*
X98453205Y46464256D01*
X98339937Y46633774D01*
X98195774Y46777937D01*
X98026256Y46891205D01*
X97837898Y46969226D01*
X97637939Y47009000D01*
X97434061Y47009000D01*
X97234102Y46969226D01*
X97045744Y46891205D01*
X96876226Y46777937D01*
X96732063Y46633774D01*
X96618795Y46464256D01*
X96540774Y46275898D01*
X96501000Y46075939D01*
X96501000Y46013802D01*
X95443199Y44956000D01*
X90178178Y44956000D01*
X90053475Y45142632D01*
X89846632Y45349475D01*
X89672240Y45466000D01*
X89846632Y45582525D01*
X90053475Y45789368D01*
X90178178Y45976000D01*
X91148678Y45976000D01*
X91186000Y45972324D01*
X91223322Y45976000D01*
X91223333Y45976000D01*
X91334986Y45986997D01*
X91478247Y46030454D01*
X91610276Y46101026D01*
X91726001Y46195999D01*
X91749804Y46225003D01*
X93257802Y47733000D01*
X93319939Y47733000D01*
X93519898Y47772774D01*
X93708256Y47850795D01*
X93877774Y47964063D01*
X94021937Y48108226D01*
X94135205Y48277744D01*
X94213226Y48466102D01*
X94253000Y48666061D01*
X94253000Y48869939D01*
X94213226Y49069898D01*
X94135205Y49258256D01*
X94021937Y49427774D01*
X93877774Y49571937D01*
X93708256Y49685205D01*
X93519898Y49763226D01*
X93319939Y49803000D01*
X93116061Y49803000D01*
X92916102Y49763226D01*
X92727744Y49685205D01*
X92558226Y49571937D01*
X92414063Y49427774D01*
X92300795Y49258256D01*
X92222774Y49069898D01*
X92183000Y48869939D01*
X92183000Y48807802D01*
X90871199Y47496000D01*
X90178178Y47496000D01*
X90053475Y47682632D01*
X89846632Y47889475D01*
X89672240Y48006000D01*
X89846632Y48122525D01*
X90053475Y48329368D01*
X90215990Y48572589D01*
X90327932Y48842842D01*
X90385000Y49129740D01*
X90385000Y49422260D01*
X90327932Y49709158D01*
X90215990Y49979411D01*
X90053475Y50222632D01*
X89846632Y50429475D01*
X89664466Y50551195D01*
X89781355Y50620822D01*
X89997588Y50815731D01*
X90171641Y51049080D01*
X90296825Y51311901D01*
X90341476Y51459110D01*
X90220155Y51689000D01*
X89027000Y51689000D01*
X89027000Y51669000D01*
X88773000Y51669000D01*
X88773000Y51689000D01*
X87579845Y51689000D01*
X87458524Y51459110D01*
X87503175Y51311901D01*
X87628359Y51049080D01*
X87802412Y50815731D01*
X88018645Y50620822D01*
X88135534Y50551195D01*
X87953368Y50429475D01*
X87746525Y50222632D01*
X87584010Y49979411D01*
X87472068Y49709158D01*
X87415000Y49422260D01*
X87020000Y49422260D01*
X87020000Y55206000D01*
X87411928Y55206000D01*
X87411928Y53506000D01*
X87424188Y53381518D01*
X87460498Y53261820D01*
X87519463Y53151506D01*
X87598815Y53054815D01*
X87695506Y52975463D01*
X87805820Y52916498D01*
X87886466Y52892034D01*
X87802412Y52816269D01*
X87628359Y52582920D01*
X87503175Y52320099D01*
X87458524Y52172890D01*
X87579845Y51943000D01*
X88773000Y51943000D01*
X88773000Y51963000D01*
X89027000Y51963000D01*
X89027000Y51943000D01*
X90220155Y51943000D01*
X90341476Y52172890D01*
X90296825Y52320099D01*
X90171641Y52582920D01*
X89997588Y52816269D01*
X89913534Y52892034D01*
X89994180Y52916498D01*
X90104494Y52975463D01*
X90201185Y53054815D01*
X90280537Y53151506D01*
X90339502Y53261820D01*
X90375812Y53381518D01*
X90388072Y53506000D01*
X90388072Y55206000D01*
X90375812Y55330482D01*
X90339502Y55450180D01*
X90280537Y55560494D01*
X90201185Y55657185D01*
X90104494Y55736537D01*
X89994180Y55795502D01*
X89874482Y55831812D01*
X89750000Y55844072D01*
X88050000Y55844072D01*
X87925518Y55831812D01*
X87805820Y55795502D01*
X87695506Y55736537D01*
X87598815Y55657185D01*
X87519463Y55560494D01*
X87460498Y55450180D01*
X87424188Y55330482D01*
X87411928Y55206000D01*
X87020000Y55206000D01*
X87020000Y57760000D01*
X106020000Y57760000D01*
X106020001Y33680000D01*
M02*
