G04 #@! TF.GenerationSoftware,KiCad,Pcbnew,(5.1.5-0-10_14)*
G04 #@! TF.CreationDate,2020-05-14T21:48:16+01:00*
G04 #@! TF.ProjectId,SnapICSP,536e6170-4943-4535-902e-6b696361645f,rev?*
G04 #@! TF.SameCoordinates,Original*
G04 #@! TF.FileFunction,Copper,L2,Bot*
G04 #@! TF.FilePolarity,Positive*
%FSLAX46Y46*%
G04 Gerber Fmt 4.6, Leading zero omitted, Abs format (unit mm)*
G04 Created by KiCad (PCBNEW (5.1.5-0-10_14)) date 2020-05-14 21:48:16*
%MOMM*%
%LPD*%
G04 APERTURE LIST*
%ADD10R,1.700000X1.700000*%
%ADD11O,1.700000X1.700000*%
%ADD12R,1.350000X1.350000*%
%ADD13O,1.350000X1.350000*%
%ADD14C,0.800000*%
%ADD15C,0.250000*%
%ADD16C,0.254000*%
G04 APERTURE END LIST*
D10*
X88900000Y54356000D03*
D11*
X88900000Y51816000D03*
X88900000Y49276000D03*
X88900000Y46736000D03*
X88900000Y44196000D03*
X88900000Y41656000D03*
X88900000Y39116000D03*
X88900000Y36576000D03*
D12*
X100330000Y40132000D03*
D13*
X98330000Y40132000D03*
X100330000Y38132000D03*
X98330000Y38132000D03*
X100330000Y36132000D03*
X98330000Y36132000D03*
D10*
X100838000Y54102000D03*
D11*
X98298000Y54102000D03*
X100838000Y51562000D03*
X98298000Y51562000D03*
X100838000Y49022000D03*
X98298000Y49022000D03*
D14*
X94996000Y41402000D03*
X101854000Y44958000D03*
X104648000Y49022000D03*
X104647994Y44450000D03*
X97536000Y45974000D03*
X93218000Y54864000D03*
X93218000Y48768000D03*
D15*
X94996000Y48260000D02*
X94996000Y41402000D01*
X98298000Y51562000D02*
X94996000Y48260000D01*
X90102081Y41656000D02*
X92456000Y39302081D01*
X88900000Y41656000D02*
X90102081Y41656000D01*
X92456000Y39302081D02*
X92456000Y36322000D01*
X92456000Y36322000D02*
X94742000Y34036000D01*
X94742000Y34036000D02*
X100076000Y34036000D01*
X100330000Y34290000D02*
X100330000Y36132000D01*
X100076000Y34036000D02*
X100330000Y34290000D01*
X101854000Y44958000D02*
X104140000Y42672000D01*
X104140000Y42672000D02*
X104140000Y36830000D01*
X103442000Y36132000D02*
X100330000Y36132000D01*
X104140000Y36830000D02*
X103442000Y36132000D01*
X102108000Y51562000D02*
X104248001Y49421999D01*
X100838000Y51562000D02*
X102108000Y51562000D01*
X104248001Y49421999D02*
X104648000Y49022000D01*
X98101685Y45974000D02*
X97536000Y45974000D01*
X104647994Y44450000D02*
X103123994Y45974000D01*
X103123994Y45974000D02*
X98101685Y45974000D01*
X93218000Y48768000D02*
X93218000Y54864000D01*
D16*
G36*
X106020001Y33680000D02*
G01*
X100794801Y33680000D01*
X100840998Y33726197D01*
X100870001Y33749999D01*
X100964974Y33865724D01*
X101035546Y33997753D01*
X101079003Y34141014D01*
X101090000Y34252667D01*
X101090000Y34252676D01*
X101093676Y34289999D01*
X101090000Y34327322D01*
X101090000Y35064291D01*
X101165077Y35114456D01*
X101347544Y35296923D01*
X101397709Y35372000D01*
X103404678Y35372000D01*
X103442000Y35368324D01*
X103479322Y35372000D01*
X103479333Y35372000D01*
X103590986Y35382997D01*
X103734247Y35426454D01*
X103866276Y35497026D01*
X103982001Y35591999D01*
X104005803Y35621002D01*
X104651002Y36266201D01*
X104680001Y36289999D01*
X104706332Y36322083D01*
X104774974Y36405723D01*
X104845546Y36537753D01*
X104877472Y36643002D01*
X104889003Y36681014D01*
X104900000Y36792667D01*
X104900000Y36792676D01*
X104903676Y36829999D01*
X104900000Y36867322D01*
X104900000Y42634678D01*
X104903676Y42672001D01*
X104900000Y42709324D01*
X104900000Y42709333D01*
X104889003Y42820986D01*
X104845546Y42964247D01*
X104774974Y43096276D01*
X104680001Y43212001D01*
X104651004Y43235798D01*
X104453365Y43433437D01*
X104546055Y43415000D01*
X104749933Y43415000D01*
X104949892Y43454774D01*
X105138250Y43532795D01*
X105307768Y43646063D01*
X105451931Y43790226D01*
X105565199Y43959744D01*
X105643220Y44148102D01*
X105682994Y44348061D01*
X105682994Y44551939D01*
X105643220Y44751898D01*
X105565199Y44940256D01*
X105451931Y45109774D01*
X105307768Y45253937D01*
X105138250Y45367205D01*
X104949892Y45445226D01*
X104749933Y45485000D01*
X104687796Y45485000D01*
X103687797Y46484998D01*
X103663995Y46514001D01*
X103548270Y46608974D01*
X103416241Y46679546D01*
X103272980Y46723003D01*
X103161327Y46734000D01*
X103161316Y46734000D01*
X103123994Y46737676D01*
X103086672Y46734000D01*
X98239711Y46734000D01*
X98195774Y46777937D01*
X98026256Y46891205D01*
X97837898Y46969226D01*
X97637939Y47009000D01*
X97434061Y47009000D01*
X97234102Y46969226D01*
X97045744Y46891205D01*
X96876226Y46777937D01*
X96732063Y46633774D01*
X96618795Y46464256D01*
X96540774Y46275898D01*
X96501000Y46075939D01*
X96501000Y45872061D01*
X96540774Y45672102D01*
X96618795Y45483744D01*
X96732063Y45314226D01*
X96876226Y45170063D01*
X97045744Y45056795D01*
X97234102Y44978774D01*
X97434061Y44939000D01*
X97637939Y44939000D01*
X97837898Y44978774D01*
X98026256Y45056795D01*
X98195774Y45170063D01*
X98239711Y45214000D01*
X100849644Y45214000D01*
X100819000Y45059939D01*
X100819000Y44856061D01*
X100858774Y44656102D01*
X100936795Y44467744D01*
X101050063Y44298226D01*
X101194226Y44154063D01*
X101363744Y44040795D01*
X101552102Y43962774D01*
X101752061Y43923000D01*
X101814199Y43923000D01*
X103380000Y42357198D01*
X103380001Y37144803D01*
X103127199Y36892000D01*
X101397709Y36892000D01*
X101347544Y36967077D01*
X101182621Y37132000D01*
X101347544Y37296923D01*
X101490907Y37511482D01*
X101589658Y37749887D01*
X101640000Y38002976D01*
X101640000Y38261024D01*
X101589658Y38514113D01*
X101490907Y38752518D01*
X101369303Y38934513D01*
X101456185Y39005815D01*
X101535537Y39102506D01*
X101594502Y39212820D01*
X101630812Y39332518D01*
X101643072Y39457000D01*
X101643072Y40807000D01*
X101630812Y40931482D01*
X101594502Y41051180D01*
X101535537Y41161494D01*
X101456185Y41258185D01*
X101359494Y41337537D01*
X101249180Y41396502D01*
X101129482Y41432812D01*
X101005000Y41445072D01*
X99655000Y41445072D01*
X99530518Y41432812D01*
X99410820Y41396502D01*
X99300506Y41337537D01*
X99203815Y41258185D01*
X99132513Y41171303D01*
X98950518Y41292907D01*
X98712113Y41391658D01*
X98459024Y41442000D01*
X98200976Y41442000D01*
X97947887Y41391658D01*
X97709482Y41292907D01*
X97494923Y41149544D01*
X97312456Y40967077D01*
X97169093Y40752518D01*
X97070342Y40514113D01*
X97020000Y40261024D01*
X97020000Y40002976D01*
X97070342Y39749887D01*
X97169093Y39511482D01*
X97312456Y39296923D01*
X97477379Y39132000D01*
X97312456Y38967077D01*
X97169093Y38752518D01*
X97070342Y38514113D01*
X97020000Y38261024D01*
X97020000Y38002976D01*
X97070342Y37749887D01*
X97169093Y37511482D01*
X97312456Y37296923D01*
X97484060Y37125319D01*
X97351697Y37003227D01*
X97200527Y36795629D01*
X97092762Y36562528D01*
X97062090Y36461400D01*
X97185776Y36259000D01*
X98203000Y36259000D01*
X98203000Y36279000D01*
X98457000Y36279000D01*
X98457000Y36259000D01*
X98477000Y36259000D01*
X98477000Y36005000D01*
X98457000Y36005000D01*
X98457000Y34986915D01*
X98659401Y34864085D01*
X98900430Y34952711D01*
X99119537Y35086656D01*
X99308303Y35260773D01*
X99325285Y35284094D01*
X99494923Y35114456D01*
X99570000Y35064291D01*
X99570000Y34796000D01*
X95056802Y34796000D01*
X94050202Y35802600D01*
X97062090Y35802600D01*
X97092762Y35701472D01*
X97200527Y35468371D01*
X97351697Y35260773D01*
X97540463Y35086656D01*
X97759570Y34952711D01*
X98000599Y34864085D01*
X98203000Y34986915D01*
X98203000Y36005000D01*
X97185776Y36005000D01*
X97062090Y35802600D01*
X94050202Y35802600D01*
X93216000Y36636801D01*
X93216000Y39264759D01*
X93219676Y39302082D01*
X93216000Y39339405D01*
X93216000Y39339414D01*
X93205003Y39451067D01*
X93161546Y39594328D01*
X93090974Y39726357D01*
X92996001Y39842082D01*
X92967004Y39865879D01*
X91328944Y41503939D01*
X93961000Y41503939D01*
X93961000Y41300061D01*
X94000774Y41100102D01*
X94078795Y40911744D01*
X94192063Y40742226D01*
X94336226Y40598063D01*
X94505744Y40484795D01*
X94694102Y40406774D01*
X94894061Y40367000D01*
X95097939Y40367000D01*
X95297898Y40406774D01*
X95486256Y40484795D01*
X95655774Y40598063D01*
X95799937Y40742226D01*
X95913205Y40911744D01*
X95991226Y41100102D01*
X96031000Y41300061D01*
X96031000Y41503939D01*
X95991226Y41703898D01*
X95913205Y41892256D01*
X95799937Y42061774D01*
X95756000Y42105711D01*
X95756000Y47945199D01*
X96813000Y49002199D01*
X96813000Y48894998D01*
X96977844Y48894998D01*
X96856524Y48665110D01*
X96901175Y48517901D01*
X97026359Y48255080D01*
X97200412Y48021731D01*
X97416645Y47826822D01*
X97666748Y47677843D01*
X97941109Y47580519D01*
X98171000Y47701186D01*
X98171000Y48895000D01*
X98151000Y48895000D01*
X98151000Y49149000D01*
X98171000Y49149000D01*
X98171000Y49169000D01*
X98425000Y49169000D01*
X98425000Y49149000D01*
X98445000Y49149000D01*
X98445000Y48895000D01*
X98425000Y48895000D01*
X98425000Y47701186D01*
X98654891Y47580519D01*
X98929252Y47677843D01*
X99179355Y47826822D01*
X99395588Y48021731D01*
X99566900Y48251406D01*
X99684525Y48075368D01*
X99891368Y47868525D01*
X100134589Y47706010D01*
X100404842Y47594068D01*
X100691740Y47537000D01*
X100984260Y47537000D01*
X101271158Y47594068D01*
X101541411Y47706010D01*
X101784632Y47868525D01*
X101991475Y48075368D01*
X102153990Y48318589D01*
X102265932Y48588842D01*
X102323000Y48875740D01*
X102323000Y49168260D01*
X102265932Y49455158D01*
X102153990Y49725411D01*
X101991475Y49968632D01*
X101784632Y50175475D01*
X101610240Y50292000D01*
X101784632Y50408525D01*
X101985653Y50609546D01*
X103613000Y48982197D01*
X103613000Y48920061D01*
X103652774Y48720102D01*
X103730795Y48531744D01*
X103844063Y48362226D01*
X103988226Y48218063D01*
X104157744Y48104795D01*
X104346102Y48026774D01*
X104546061Y47987000D01*
X104749939Y47987000D01*
X104949898Y48026774D01*
X105138256Y48104795D01*
X105307774Y48218063D01*
X105451937Y48362226D01*
X105565205Y48531744D01*
X105643226Y48720102D01*
X105683000Y48920061D01*
X105683000Y49123939D01*
X105643226Y49323898D01*
X105565205Y49512256D01*
X105451937Y49681774D01*
X105307774Y49825937D01*
X105138256Y49939205D01*
X104949898Y50017226D01*
X104749939Y50057000D01*
X104687803Y50057000D01*
X102671804Y52072998D01*
X102648001Y52102001D01*
X102532276Y52196974D01*
X102400247Y52267546D01*
X102256986Y52311003D01*
X102145333Y52322000D01*
X102145322Y52322000D01*
X102114125Y52325073D01*
X101991475Y52508632D01*
X101859620Y52640487D01*
X101932180Y52662498D01*
X102042494Y52721463D01*
X102139185Y52800815D01*
X102218537Y52897506D01*
X102277502Y53007820D01*
X102313812Y53127518D01*
X102326072Y53252000D01*
X102326072Y54952000D01*
X102313812Y55076482D01*
X102277502Y55196180D01*
X102218537Y55306494D01*
X102139185Y55403185D01*
X102042494Y55482537D01*
X101932180Y55541502D01*
X101812482Y55577812D01*
X101688000Y55590072D01*
X99988000Y55590072D01*
X99863518Y55577812D01*
X99743820Y55541502D01*
X99633506Y55482537D01*
X99536815Y55403185D01*
X99457463Y55306494D01*
X99398498Y55196180D01*
X99376487Y55123620D01*
X99244632Y55255475D01*
X99001411Y55417990D01*
X98731158Y55529932D01*
X98444260Y55587000D01*
X98151740Y55587000D01*
X97864842Y55529932D01*
X97594589Y55417990D01*
X97351368Y55255475D01*
X97144525Y55048632D01*
X96982010Y54805411D01*
X96870068Y54535158D01*
X96813000Y54248260D01*
X96813000Y53955740D01*
X96870068Y53668842D01*
X96982010Y53398589D01*
X97144525Y53155368D01*
X97351368Y52948525D01*
X97525760Y52832000D01*
X97351368Y52715475D01*
X97144525Y52508632D01*
X96982010Y52265411D01*
X96870068Y51995158D01*
X96813000Y51708260D01*
X96813000Y51415740D01*
X96856790Y51195592D01*
X94485003Y48823804D01*
X94455999Y48800001D01*
X94400871Y48732826D01*
X94361026Y48684276D01*
X94314763Y48597724D01*
X94290454Y48552246D01*
X94246997Y48408985D01*
X94236000Y48297332D01*
X94236000Y48297322D01*
X94232324Y48260000D01*
X94236000Y48222677D01*
X94236001Y42105712D01*
X94192063Y42061774D01*
X94078795Y41892256D01*
X94000774Y41703898D01*
X93961000Y41503939D01*
X91328944Y41503939D01*
X90665885Y42166997D01*
X90642082Y42196001D01*
X90526357Y42290974D01*
X90394328Y42361546D01*
X90251067Y42405003D01*
X90180909Y42411913D01*
X90053475Y42602632D01*
X89846632Y42809475D01*
X89672240Y42926000D01*
X89846632Y43042525D01*
X90053475Y43249368D01*
X90215990Y43492589D01*
X90327932Y43762842D01*
X90385000Y44049740D01*
X90385000Y44342260D01*
X90327932Y44629158D01*
X90215990Y44899411D01*
X90053475Y45142632D01*
X89846632Y45349475D01*
X89672240Y45466000D01*
X89846632Y45582525D01*
X90053475Y45789368D01*
X90215990Y46032589D01*
X90327932Y46302842D01*
X90385000Y46589740D01*
X90385000Y46882260D01*
X90327932Y47169158D01*
X90215990Y47439411D01*
X90053475Y47682632D01*
X89846632Y47889475D01*
X89664466Y48011195D01*
X89781355Y48080822D01*
X89997588Y48275731D01*
X90171641Y48509080D01*
X90296825Y48771901D01*
X90341476Y48919110D01*
X90220155Y49149000D01*
X89027000Y49149000D01*
X89027000Y49129000D01*
X88773000Y49129000D01*
X88773000Y49149000D01*
X87579845Y49149000D01*
X87458524Y48919110D01*
X87503175Y48771901D01*
X87628359Y48509080D01*
X87802412Y48275731D01*
X88018645Y48080822D01*
X88135534Y48011195D01*
X87953368Y47889475D01*
X87746525Y47682632D01*
X87584010Y47439411D01*
X87472068Y47169158D01*
X87415000Y46882260D01*
X87415000Y46589740D01*
X87472068Y46302842D01*
X87584010Y46032589D01*
X87746525Y45789368D01*
X87953368Y45582525D01*
X88127760Y45466000D01*
X87953368Y45349475D01*
X87746525Y45142632D01*
X87584010Y44899411D01*
X87472068Y44629158D01*
X87415000Y44342260D01*
X87415000Y44049740D01*
X87472068Y43762842D01*
X87584010Y43492589D01*
X87746525Y43249368D01*
X87953368Y43042525D01*
X88127760Y42926000D01*
X87953368Y42809475D01*
X87746525Y42602632D01*
X87584010Y42359411D01*
X87472068Y42089158D01*
X87415000Y41802260D01*
X87415000Y41509740D01*
X87472068Y41222842D01*
X87584010Y40952589D01*
X87746525Y40709368D01*
X87953368Y40502525D01*
X88127760Y40386000D01*
X87953368Y40269475D01*
X87746525Y40062632D01*
X87584010Y39819411D01*
X87472068Y39549158D01*
X87415000Y39262260D01*
X87415000Y38969740D01*
X87472068Y38682842D01*
X87584010Y38412589D01*
X87746525Y38169368D01*
X87953368Y37962525D01*
X88127760Y37846000D01*
X87953368Y37729475D01*
X87746525Y37522632D01*
X87584010Y37279411D01*
X87472068Y37009158D01*
X87415000Y36722260D01*
X87415000Y36429740D01*
X87472068Y36142842D01*
X87584010Y35872589D01*
X87746525Y35629368D01*
X87953368Y35422525D01*
X88196589Y35260010D01*
X88466842Y35148068D01*
X88753740Y35091000D01*
X89046260Y35091000D01*
X89333158Y35148068D01*
X89603411Y35260010D01*
X89846632Y35422525D01*
X90053475Y35629368D01*
X90215990Y35872589D01*
X90327932Y36142842D01*
X90385000Y36429740D01*
X90385000Y36722260D01*
X90327932Y37009158D01*
X90215990Y37279411D01*
X90053475Y37522632D01*
X89846632Y37729475D01*
X89672240Y37846000D01*
X89846632Y37962525D01*
X90053475Y38169368D01*
X90215990Y38412589D01*
X90327932Y38682842D01*
X90385000Y38969740D01*
X90385000Y39262260D01*
X90327932Y39549158D01*
X90215990Y39819411D01*
X90053475Y40062632D01*
X89846632Y40269475D01*
X89672240Y40386000D01*
X89846632Y40502525D01*
X90013693Y40669586D01*
X91696000Y38987279D01*
X91696001Y36359332D01*
X91692324Y36322000D01*
X91696001Y36284667D01*
X91706998Y36173014D01*
X91719439Y36132000D01*
X91750454Y36029754D01*
X91821026Y35897724D01*
X91892201Y35810998D01*
X91916000Y35781999D01*
X91944998Y35758201D01*
X94023198Y33680000D01*
X87020000Y33680000D01*
X87020000Y55206000D01*
X87411928Y55206000D01*
X87411928Y53506000D01*
X87424188Y53381518D01*
X87460498Y53261820D01*
X87519463Y53151506D01*
X87598815Y53054815D01*
X87695506Y52975463D01*
X87805820Y52916498D01*
X87878380Y52894487D01*
X87746525Y52762632D01*
X87584010Y52519411D01*
X87472068Y52249158D01*
X87415000Y51962260D01*
X87415000Y51669740D01*
X87472068Y51382842D01*
X87584010Y51112589D01*
X87746525Y50869368D01*
X87953368Y50662525D01*
X88135534Y50540805D01*
X88018645Y50471178D01*
X87802412Y50276269D01*
X87628359Y50042920D01*
X87503175Y49780099D01*
X87458524Y49632890D01*
X87579845Y49403000D01*
X88773000Y49403000D01*
X88773000Y49423000D01*
X89027000Y49423000D01*
X89027000Y49403000D01*
X90220155Y49403000D01*
X90341476Y49632890D01*
X90296825Y49780099D01*
X90171641Y50042920D01*
X89997588Y50276269D01*
X89781355Y50471178D01*
X89664466Y50540805D01*
X89846632Y50662525D01*
X90053475Y50869368D01*
X90215990Y51112589D01*
X90327932Y51382842D01*
X90385000Y51669740D01*
X90385000Y51962260D01*
X90327932Y52249158D01*
X90215990Y52519411D01*
X90053475Y52762632D01*
X89921620Y52894487D01*
X89994180Y52916498D01*
X90104494Y52975463D01*
X90201185Y53054815D01*
X90280537Y53151506D01*
X90339502Y53261820D01*
X90375812Y53381518D01*
X90388072Y53506000D01*
X90388072Y54965939D01*
X92183000Y54965939D01*
X92183000Y54762061D01*
X92222774Y54562102D01*
X92300795Y54373744D01*
X92414063Y54204226D01*
X92458001Y54160288D01*
X92458000Y49471711D01*
X92414063Y49427774D01*
X92300795Y49258256D01*
X92222774Y49069898D01*
X92183000Y48869939D01*
X92183000Y48666061D01*
X92222774Y48466102D01*
X92300795Y48277744D01*
X92414063Y48108226D01*
X92558226Y47964063D01*
X92727744Y47850795D01*
X92916102Y47772774D01*
X93116061Y47733000D01*
X93319939Y47733000D01*
X93519898Y47772774D01*
X93708256Y47850795D01*
X93877774Y47964063D01*
X94021937Y48108226D01*
X94135205Y48277744D01*
X94213226Y48466102D01*
X94253000Y48666061D01*
X94253000Y48869939D01*
X94213226Y49069898D01*
X94135205Y49258256D01*
X94021937Y49427774D01*
X93978000Y49471711D01*
X93978000Y54160289D01*
X94021937Y54204226D01*
X94135205Y54373744D01*
X94213226Y54562102D01*
X94253000Y54762061D01*
X94253000Y54965939D01*
X94213226Y55165898D01*
X94135205Y55354256D01*
X94021937Y55523774D01*
X93877774Y55667937D01*
X93708256Y55781205D01*
X93519898Y55859226D01*
X93319939Y55899000D01*
X93116061Y55899000D01*
X92916102Y55859226D01*
X92727744Y55781205D01*
X92558226Y55667937D01*
X92414063Y55523774D01*
X92300795Y55354256D01*
X92222774Y55165898D01*
X92183000Y54965939D01*
X90388072Y54965939D01*
X90388072Y55206000D01*
X90375812Y55330482D01*
X90339502Y55450180D01*
X90280537Y55560494D01*
X90201185Y55657185D01*
X90104494Y55736537D01*
X89994180Y55795502D01*
X89874482Y55831812D01*
X89750000Y55844072D01*
X88050000Y55844072D01*
X87925518Y55831812D01*
X87805820Y55795502D01*
X87695506Y55736537D01*
X87598815Y55657185D01*
X87519463Y55560494D01*
X87460498Y55450180D01*
X87424188Y55330482D01*
X87411928Y55206000D01*
X87020000Y55206000D01*
X87020000Y57760000D01*
X106020000Y57760000D01*
X106020001Y33680000D01*
G37*
X106020001Y33680000D02*
X100794801Y33680000D01*
X100840998Y33726197D01*
X100870001Y33749999D01*
X100964974Y33865724D01*
X101035546Y33997753D01*
X101079003Y34141014D01*
X101090000Y34252667D01*
X101090000Y34252676D01*
X101093676Y34289999D01*
X101090000Y34327322D01*
X101090000Y35064291D01*
X101165077Y35114456D01*
X101347544Y35296923D01*
X101397709Y35372000D01*
X103404678Y35372000D01*
X103442000Y35368324D01*
X103479322Y35372000D01*
X103479333Y35372000D01*
X103590986Y35382997D01*
X103734247Y35426454D01*
X103866276Y35497026D01*
X103982001Y35591999D01*
X104005803Y35621002D01*
X104651002Y36266201D01*
X104680001Y36289999D01*
X104706332Y36322083D01*
X104774974Y36405723D01*
X104845546Y36537753D01*
X104877472Y36643002D01*
X104889003Y36681014D01*
X104900000Y36792667D01*
X104900000Y36792676D01*
X104903676Y36829999D01*
X104900000Y36867322D01*
X104900000Y42634678D01*
X104903676Y42672001D01*
X104900000Y42709324D01*
X104900000Y42709333D01*
X104889003Y42820986D01*
X104845546Y42964247D01*
X104774974Y43096276D01*
X104680001Y43212001D01*
X104651004Y43235798D01*
X104453365Y43433437D01*
X104546055Y43415000D01*
X104749933Y43415000D01*
X104949892Y43454774D01*
X105138250Y43532795D01*
X105307768Y43646063D01*
X105451931Y43790226D01*
X105565199Y43959744D01*
X105643220Y44148102D01*
X105682994Y44348061D01*
X105682994Y44551939D01*
X105643220Y44751898D01*
X105565199Y44940256D01*
X105451931Y45109774D01*
X105307768Y45253937D01*
X105138250Y45367205D01*
X104949892Y45445226D01*
X104749933Y45485000D01*
X104687796Y45485000D01*
X103687797Y46484998D01*
X103663995Y46514001D01*
X103548270Y46608974D01*
X103416241Y46679546D01*
X103272980Y46723003D01*
X103161327Y46734000D01*
X103161316Y46734000D01*
X103123994Y46737676D01*
X103086672Y46734000D01*
X98239711Y46734000D01*
X98195774Y46777937D01*
X98026256Y46891205D01*
X97837898Y46969226D01*
X97637939Y47009000D01*
X97434061Y47009000D01*
X97234102Y46969226D01*
X97045744Y46891205D01*
X96876226Y46777937D01*
X96732063Y46633774D01*
X96618795Y46464256D01*
X96540774Y46275898D01*
X96501000Y46075939D01*
X96501000Y45872061D01*
X96540774Y45672102D01*
X96618795Y45483744D01*
X96732063Y45314226D01*
X96876226Y45170063D01*
X97045744Y45056795D01*
X97234102Y44978774D01*
X97434061Y44939000D01*
X97637939Y44939000D01*
X97837898Y44978774D01*
X98026256Y45056795D01*
X98195774Y45170063D01*
X98239711Y45214000D01*
X100849644Y45214000D01*
X100819000Y45059939D01*
X100819000Y44856061D01*
X100858774Y44656102D01*
X100936795Y44467744D01*
X101050063Y44298226D01*
X101194226Y44154063D01*
X101363744Y44040795D01*
X101552102Y43962774D01*
X101752061Y43923000D01*
X101814199Y43923000D01*
X103380000Y42357198D01*
X103380001Y37144803D01*
X103127199Y36892000D01*
X101397709Y36892000D01*
X101347544Y36967077D01*
X101182621Y37132000D01*
X101347544Y37296923D01*
X101490907Y37511482D01*
X101589658Y37749887D01*
X101640000Y38002976D01*
X101640000Y38261024D01*
X101589658Y38514113D01*
X101490907Y38752518D01*
X101369303Y38934513D01*
X101456185Y39005815D01*
X101535537Y39102506D01*
X101594502Y39212820D01*
X101630812Y39332518D01*
X101643072Y39457000D01*
X101643072Y40807000D01*
X101630812Y40931482D01*
X101594502Y41051180D01*
X101535537Y41161494D01*
X101456185Y41258185D01*
X101359494Y41337537D01*
X101249180Y41396502D01*
X101129482Y41432812D01*
X101005000Y41445072D01*
X99655000Y41445072D01*
X99530518Y41432812D01*
X99410820Y41396502D01*
X99300506Y41337537D01*
X99203815Y41258185D01*
X99132513Y41171303D01*
X98950518Y41292907D01*
X98712113Y41391658D01*
X98459024Y41442000D01*
X98200976Y41442000D01*
X97947887Y41391658D01*
X97709482Y41292907D01*
X97494923Y41149544D01*
X97312456Y40967077D01*
X97169093Y40752518D01*
X97070342Y40514113D01*
X97020000Y40261024D01*
X97020000Y40002976D01*
X97070342Y39749887D01*
X97169093Y39511482D01*
X97312456Y39296923D01*
X97477379Y39132000D01*
X97312456Y38967077D01*
X97169093Y38752518D01*
X97070342Y38514113D01*
X97020000Y38261024D01*
X97020000Y38002976D01*
X97070342Y37749887D01*
X97169093Y37511482D01*
X97312456Y37296923D01*
X97484060Y37125319D01*
X97351697Y37003227D01*
X97200527Y36795629D01*
X97092762Y36562528D01*
X97062090Y36461400D01*
X97185776Y36259000D01*
X98203000Y36259000D01*
X98203000Y36279000D01*
X98457000Y36279000D01*
X98457000Y36259000D01*
X98477000Y36259000D01*
X98477000Y36005000D01*
X98457000Y36005000D01*
X98457000Y34986915D01*
X98659401Y34864085D01*
X98900430Y34952711D01*
X99119537Y35086656D01*
X99308303Y35260773D01*
X99325285Y35284094D01*
X99494923Y35114456D01*
X99570000Y35064291D01*
X99570000Y34796000D01*
X95056802Y34796000D01*
X94050202Y35802600D01*
X97062090Y35802600D01*
X97092762Y35701472D01*
X97200527Y35468371D01*
X97351697Y35260773D01*
X97540463Y35086656D01*
X97759570Y34952711D01*
X98000599Y34864085D01*
X98203000Y34986915D01*
X98203000Y36005000D01*
X97185776Y36005000D01*
X97062090Y35802600D01*
X94050202Y35802600D01*
X93216000Y36636801D01*
X93216000Y39264759D01*
X93219676Y39302082D01*
X93216000Y39339405D01*
X93216000Y39339414D01*
X93205003Y39451067D01*
X93161546Y39594328D01*
X93090974Y39726357D01*
X92996001Y39842082D01*
X92967004Y39865879D01*
X91328944Y41503939D01*
X93961000Y41503939D01*
X93961000Y41300061D01*
X94000774Y41100102D01*
X94078795Y40911744D01*
X94192063Y40742226D01*
X94336226Y40598063D01*
X94505744Y40484795D01*
X94694102Y40406774D01*
X94894061Y40367000D01*
X95097939Y40367000D01*
X95297898Y40406774D01*
X95486256Y40484795D01*
X95655774Y40598063D01*
X95799937Y40742226D01*
X95913205Y40911744D01*
X95991226Y41100102D01*
X96031000Y41300061D01*
X96031000Y41503939D01*
X95991226Y41703898D01*
X95913205Y41892256D01*
X95799937Y42061774D01*
X95756000Y42105711D01*
X95756000Y47945199D01*
X96813000Y49002199D01*
X96813000Y48894998D01*
X96977844Y48894998D01*
X96856524Y48665110D01*
X96901175Y48517901D01*
X97026359Y48255080D01*
X97200412Y48021731D01*
X97416645Y47826822D01*
X97666748Y47677843D01*
X97941109Y47580519D01*
X98171000Y47701186D01*
X98171000Y48895000D01*
X98151000Y48895000D01*
X98151000Y49149000D01*
X98171000Y49149000D01*
X98171000Y49169000D01*
X98425000Y49169000D01*
X98425000Y49149000D01*
X98445000Y49149000D01*
X98445000Y48895000D01*
X98425000Y48895000D01*
X98425000Y47701186D01*
X98654891Y47580519D01*
X98929252Y47677843D01*
X99179355Y47826822D01*
X99395588Y48021731D01*
X99566900Y48251406D01*
X99684525Y48075368D01*
X99891368Y47868525D01*
X100134589Y47706010D01*
X100404842Y47594068D01*
X100691740Y47537000D01*
X100984260Y47537000D01*
X101271158Y47594068D01*
X101541411Y47706010D01*
X101784632Y47868525D01*
X101991475Y48075368D01*
X102153990Y48318589D01*
X102265932Y48588842D01*
X102323000Y48875740D01*
X102323000Y49168260D01*
X102265932Y49455158D01*
X102153990Y49725411D01*
X101991475Y49968632D01*
X101784632Y50175475D01*
X101610240Y50292000D01*
X101784632Y50408525D01*
X101985653Y50609546D01*
X103613000Y48982197D01*
X103613000Y48920061D01*
X103652774Y48720102D01*
X103730795Y48531744D01*
X103844063Y48362226D01*
X103988226Y48218063D01*
X104157744Y48104795D01*
X104346102Y48026774D01*
X104546061Y47987000D01*
X104749939Y47987000D01*
X104949898Y48026774D01*
X105138256Y48104795D01*
X105307774Y48218063D01*
X105451937Y48362226D01*
X105565205Y48531744D01*
X105643226Y48720102D01*
X105683000Y48920061D01*
X105683000Y49123939D01*
X105643226Y49323898D01*
X105565205Y49512256D01*
X105451937Y49681774D01*
X105307774Y49825937D01*
X105138256Y49939205D01*
X104949898Y50017226D01*
X104749939Y50057000D01*
X104687803Y50057000D01*
X102671804Y52072998D01*
X102648001Y52102001D01*
X102532276Y52196974D01*
X102400247Y52267546D01*
X102256986Y52311003D01*
X102145333Y52322000D01*
X102145322Y52322000D01*
X102114125Y52325073D01*
X101991475Y52508632D01*
X101859620Y52640487D01*
X101932180Y52662498D01*
X102042494Y52721463D01*
X102139185Y52800815D01*
X102218537Y52897506D01*
X102277502Y53007820D01*
X102313812Y53127518D01*
X102326072Y53252000D01*
X102326072Y54952000D01*
X102313812Y55076482D01*
X102277502Y55196180D01*
X102218537Y55306494D01*
X102139185Y55403185D01*
X102042494Y55482537D01*
X101932180Y55541502D01*
X101812482Y55577812D01*
X101688000Y55590072D01*
X99988000Y55590072D01*
X99863518Y55577812D01*
X99743820Y55541502D01*
X99633506Y55482537D01*
X99536815Y55403185D01*
X99457463Y55306494D01*
X99398498Y55196180D01*
X99376487Y55123620D01*
X99244632Y55255475D01*
X99001411Y55417990D01*
X98731158Y55529932D01*
X98444260Y55587000D01*
X98151740Y55587000D01*
X97864842Y55529932D01*
X97594589Y55417990D01*
X97351368Y55255475D01*
X97144525Y55048632D01*
X96982010Y54805411D01*
X96870068Y54535158D01*
X96813000Y54248260D01*
X96813000Y53955740D01*
X96870068Y53668842D01*
X96982010Y53398589D01*
X97144525Y53155368D01*
X97351368Y52948525D01*
X97525760Y52832000D01*
X97351368Y52715475D01*
X97144525Y52508632D01*
X96982010Y52265411D01*
X96870068Y51995158D01*
X96813000Y51708260D01*
X96813000Y51415740D01*
X96856790Y51195592D01*
X94485003Y48823804D01*
X94455999Y48800001D01*
X94400871Y48732826D01*
X94361026Y48684276D01*
X94314763Y48597724D01*
X94290454Y48552246D01*
X94246997Y48408985D01*
X94236000Y48297332D01*
X94236000Y48297322D01*
X94232324Y48260000D01*
X94236000Y48222677D01*
X94236001Y42105712D01*
X94192063Y42061774D01*
X94078795Y41892256D01*
X94000774Y41703898D01*
X93961000Y41503939D01*
X91328944Y41503939D01*
X90665885Y42166997D01*
X90642082Y42196001D01*
X90526357Y42290974D01*
X90394328Y42361546D01*
X90251067Y42405003D01*
X90180909Y42411913D01*
X90053475Y42602632D01*
X89846632Y42809475D01*
X89672240Y42926000D01*
X89846632Y43042525D01*
X90053475Y43249368D01*
X90215990Y43492589D01*
X90327932Y43762842D01*
X90385000Y44049740D01*
X90385000Y44342260D01*
X90327932Y44629158D01*
X90215990Y44899411D01*
X90053475Y45142632D01*
X89846632Y45349475D01*
X89672240Y45466000D01*
X89846632Y45582525D01*
X90053475Y45789368D01*
X90215990Y46032589D01*
X90327932Y46302842D01*
X90385000Y46589740D01*
X90385000Y46882260D01*
X90327932Y47169158D01*
X90215990Y47439411D01*
X90053475Y47682632D01*
X89846632Y47889475D01*
X89664466Y48011195D01*
X89781355Y48080822D01*
X89997588Y48275731D01*
X90171641Y48509080D01*
X90296825Y48771901D01*
X90341476Y48919110D01*
X90220155Y49149000D01*
X89027000Y49149000D01*
X89027000Y49129000D01*
X88773000Y49129000D01*
X88773000Y49149000D01*
X87579845Y49149000D01*
X87458524Y48919110D01*
X87503175Y48771901D01*
X87628359Y48509080D01*
X87802412Y48275731D01*
X88018645Y48080822D01*
X88135534Y48011195D01*
X87953368Y47889475D01*
X87746525Y47682632D01*
X87584010Y47439411D01*
X87472068Y47169158D01*
X87415000Y46882260D01*
X87415000Y46589740D01*
X87472068Y46302842D01*
X87584010Y46032589D01*
X87746525Y45789368D01*
X87953368Y45582525D01*
X88127760Y45466000D01*
X87953368Y45349475D01*
X87746525Y45142632D01*
X87584010Y44899411D01*
X87472068Y44629158D01*
X87415000Y44342260D01*
X87415000Y44049740D01*
X87472068Y43762842D01*
X87584010Y43492589D01*
X87746525Y43249368D01*
X87953368Y43042525D01*
X88127760Y42926000D01*
X87953368Y42809475D01*
X87746525Y42602632D01*
X87584010Y42359411D01*
X87472068Y42089158D01*
X87415000Y41802260D01*
X87415000Y41509740D01*
X87472068Y41222842D01*
X87584010Y40952589D01*
X87746525Y40709368D01*
X87953368Y40502525D01*
X88127760Y40386000D01*
X87953368Y40269475D01*
X87746525Y40062632D01*
X87584010Y39819411D01*
X87472068Y39549158D01*
X87415000Y39262260D01*
X87415000Y38969740D01*
X87472068Y38682842D01*
X87584010Y38412589D01*
X87746525Y38169368D01*
X87953368Y37962525D01*
X88127760Y37846000D01*
X87953368Y37729475D01*
X87746525Y37522632D01*
X87584010Y37279411D01*
X87472068Y37009158D01*
X87415000Y36722260D01*
X87415000Y36429740D01*
X87472068Y36142842D01*
X87584010Y35872589D01*
X87746525Y35629368D01*
X87953368Y35422525D01*
X88196589Y35260010D01*
X88466842Y35148068D01*
X88753740Y35091000D01*
X89046260Y35091000D01*
X89333158Y35148068D01*
X89603411Y35260010D01*
X89846632Y35422525D01*
X90053475Y35629368D01*
X90215990Y35872589D01*
X90327932Y36142842D01*
X90385000Y36429740D01*
X90385000Y36722260D01*
X90327932Y37009158D01*
X90215990Y37279411D01*
X90053475Y37522632D01*
X89846632Y37729475D01*
X89672240Y37846000D01*
X89846632Y37962525D01*
X90053475Y38169368D01*
X90215990Y38412589D01*
X90327932Y38682842D01*
X90385000Y38969740D01*
X90385000Y39262260D01*
X90327932Y39549158D01*
X90215990Y39819411D01*
X90053475Y40062632D01*
X89846632Y40269475D01*
X89672240Y40386000D01*
X89846632Y40502525D01*
X90013693Y40669586D01*
X91696000Y38987279D01*
X91696001Y36359332D01*
X91692324Y36322000D01*
X91696001Y36284667D01*
X91706998Y36173014D01*
X91719439Y36132000D01*
X91750454Y36029754D01*
X91821026Y35897724D01*
X91892201Y35810998D01*
X91916000Y35781999D01*
X91944998Y35758201D01*
X94023198Y33680000D01*
X87020000Y33680000D01*
X87020000Y55206000D01*
X87411928Y55206000D01*
X87411928Y53506000D01*
X87424188Y53381518D01*
X87460498Y53261820D01*
X87519463Y53151506D01*
X87598815Y53054815D01*
X87695506Y52975463D01*
X87805820Y52916498D01*
X87878380Y52894487D01*
X87746525Y52762632D01*
X87584010Y52519411D01*
X87472068Y52249158D01*
X87415000Y51962260D01*
X87415000Y51669740D01*
X87472068Y51382842D01*
X87584010Y51112589D01*
X87746525Y50869368D01*
X87953368Y50662525D01*
X88135534Y50540805D01*
X88018645Y50471178D01*
X87802412Y50276269D01*
X87628359Y50042920D01*
X87503175Y49780099D01*
X87458524Y49632890D01*
X87579845Y49403000D01*
X88773000Y49403000D01*
X88773000Y49423000D01*
X89027000Y49423000D01*
X89027000Y49403000D01*
X90220155Y49403000D01*
X90341476Y49632890D01*
X90296825Y49780099D01*
X90171641Y50042920D01*
X89997588Y50276269D01*
X89781355Y50471178D01*
X89664466Y50540805D01*
X89846632Y50662525D01*
X90053475Y50869368D01*
X90215990Y51112589D01*
X90327932Y51382842D01*
X90385000Y51669740D01*
X90385000Y51962260D01*
X90327932Y52249158D01*
X90215990Y52519411D01*
X90053475Y52762632D01*
X89921620Y52894487D01*
X89994180Y52916498D01*
X90104494Y52975463D01*
X90201185Y53054815D01*
X90280537Y53151506D01*
X90339502Y53261820D01*
X90375812Y53381518D01*
X90388072Y53506000D01*
X90388072Y54965939D01*
X92183000Y54965939D01*
X92183000Y54762061D01*
X92222774Y54562102D01*
X92300795Y54373744D01*
X92414063Y54204226D01*
X92458001Y54160288D01*
X92458000Y49471711D01*
X92414063Y49427774D01*
X92300795Y49258256D01*
X92222774Y49069898D01*
X92183000Y48869939D01*
X92183000Y48666061D01*
X92222774Y48466102D01*
X92300795Y48277744D01*
X92414063Y48108226D01*
X92558226Y47964063D01*
X92727744Y47850795D01*
X92916102Y47772774D01*
X93116061Y47733000D01*
X93319939Y47733000D01*
X93519898Y47772774D01*
X93708256Y47850795D01*
X93877774Y47964063D01*
X94021937Y48108226D01*
X94135205Y48277744D01*
X94213226Y48466102D01*
X94253000Y48666061D01*
X94253000Y48869939D01*
X94213226Y49069898D01*
X94135205Y49258256D01*
X94021937Y49427774D01*
X93978000Y49471711D01*
X93978000Y54160289D01*
X94021937Y54204226D01*
X94135205Y54373744D01*
X94213226Y54562102D01*
X94253000Y54762061D01*
X94253000Y54965939D01*
X94213226Y55165898D01*
X94135205Y55354256D01*
X94021937Y55523774D01*
X93877774Y55667937D01*
X93708256Y55781205D01*
X93519898Y55859226D01*
X93319939Y55899000D01*
X93116061Y55899000D01*
X92916102Y55859226D01*
X92727744Y55781205D01*
X92558226Y55667937D01*
X92414063Y55523774D01*
X92300795Y55354256D01*
X92222774Y55165898D01*
X92183000Y54965939D01*
X90388072Y54965939D01*
X90388072Y55206000D01*
X90375812Y55330482D01*
X90339502Y55450180D01*
X90280537Y55560494D01*
X90201185Y55657185D01*
X90104494Y55736537D01*
X89994180Y55795502D01*
X89874482Y55831812D01*
X89750000Y55844072D01*
X88050000Y55844072D01*
X87925518Y55831812D01*
X87805820Y55795502D01*
X87695506Y55736537D01*
X87598815Y55657185D01*
X87519463Y55560494D01*
X87460498Y55450180D01*
X87424188Y55330482D01*
X87411928Y55206000D01*
X87020000Y55206000D01*
X87020000Y57760000D01*
X106020000Y57760000D01*
X106020001Y33680000D01*
M02*
