G04 #@! TF.GenerationSoftware,KiCad,Pcbnew,(5.1.5-0-10_14)*
G04 #@! TF.CreationDate,2020-05-14T21:48:16+01:00*
G04 #@! TF.ProjectId,SnapICSP,536e6170-4943-4535-902e-6b696361645f,rev?*
G04 #@! TF.SameCoordinates,Original*
G04 #@! TF.FileFunction,Legend,Top*
G04 #@! TF.FilePolarity,Positive*
%FSLAX46Y46*%
G04 Gerber Fmt 4.6, Leading zero omitted, Abs format (unit mm)*
G04 Created by KiCad (PCBNEW (5.1.5-0-10_14)) date 2020-05-14 21:48:16*
%MOMM*%
%LPD*%
G04 APERTURE LIST*
%ADD10C,0.120000*%
%ADD11C,0.150000*%
G04 APERTURE END LIST*
D10*
X87570000Y53086000D02*
X87570000Y35246000D01*
X87570000Y35246000D02*
X90230000Y35246000D01*
X90230000Y35246000D02*
X90230000Y53086000D01*
X90230000Y53086000D02*
X87570000Y53086000D01*
X87570000Y54356000D02*
X87570000Y55686000D01*
X87570000Y55686000D02*
X88900000Y55686000D01*
X101390000Y39132000D02*
X101390000Y35072000D01*
X101390000Y35072000D02*
X97270000Y35072000D01*
X97270000Y35072000D02*
X97270000Y41192000D01*
X97270000Y41192000D02*
X99330000Y41192000D01*
X99330000Y41192000D02*
X99330000Y39132000D01*
X99330000Y39132000D02*
X101390000Y39132000D01*
X101390000Y40132000D02*
X101390000Y41192000D01*
X101390000Y41192000D02*
X100390000Y41192000D01*
X102168000Y52832000D02*
X102168000Y47692000D01*
X102168000Y47692000D02*
X96968000Y47692000D01*
X96968000Y47692000D02*
X96968000Y55432000D01*
X96968000Y55432000D02*
X99568000Y55432000D01*
X99568000Y55432000D02*
X99568000Y52832000D01*
X99568000Y52832000D02*
X102168000Y52832000D01*
X102168000Y54102000D02*
X102168000Y55432000D01*
X102168000Y55432000D02*
X100898000Y55432000D01*
D11*
X88566666Y57233619D02*
X88566666Y56519333D01*
X88519047Y56376476D01*
X88423809Y56281238D01*
X88280952Y56233619D01*
X88185714Y56233619D01*
X89566666Y56233619D02*
X88995238Y56233619D01*
X89280952Y56233619D02*
X89280952Y57233619D01*
X89185714Y57090761D01*
X89090476Y56995523D01*
X88995238Y56947904D01*
X98996666Y42739619D02*
X98996666Y42025333D01*
X98949047Y41882476D01*
X98853809Y41787238D01*
X98710952Y41739619D01*
X98615714Y41739619D01*
X99425238Y42644380D02*
X99472857Y42692000D01*
X99568095Y42739619D01*
X99806190Y42739619D01*
X99901428Y42692000D01*
X99949047Y42644380D01*
X99996666Y42549142D01*
X99996666Y42453904D01*
X99949047Y42311047D01*
X99377619Y41739619D01*
X99996666Y41739619D01*
X95424666Y55157619D02*
X95424666Y54443333D01*
X95377047Y54300476D01*
X95281809Y54205238D01*
X95138952Y54157619D01*
X95043714Y54157619D01*
X95805619Y55157619D02*
X96424666Y55157619D01*
X96091333Y54776666D01*
X96234190Y54776666D01*
X96329428Y54729047D01*
X96377047Y54681428D01*
X96424666Y54586190D01*
X96424666Y54348095D01*
X96377047Y54252857D01*
X96329428Y54205238D01*
X96234190Y54157619D01*
X95948476Y54157619D01*
X95853238Y54205238D01*
X95805619Y54252857D01*
M02*
