G04 #@! TF.GenerationSoftware,KiCad,Pcbnew,(5.1.6-0-10_14)*
G04 #@! TF.CreationDate,2020-06-06T21:07:02+01:00*
G04 #@! TF.ProjectId,JLinkSWD,4a4c696e-6b53-4574-942e-6b696361645f,rev?*
G04 #@! TF.SameCoordinates,Original*
G04 #@! TF.FileFunction,Copper,L2,Bot*
G04 #@! TF.FilePolarity,Positive*
%FSLAX46Y46*%
G04 Gerber Fmt 4.6, Leading zero omitted, Abs format (unit mm)*
G04 Created by KiCad (PCBNEW (5.1.6-0-10_14)) date 2020-06-06 21:07:02*
%MOMM*%
%LPD*%
G01*
G04 APERTURE LIST*
G04 #@! TA.AperFunction,ComponentPad*
%ADD10O,1.700000X1.700000*%
G04 #@! TD*
G04 #@! TA.AperFunction,ComponentPad*
%ADD11R,1.700000X1.700000*%
G04 #@! TD*
G04 #@! TA.AperFunction,ComponentPad*
%ADD12O,1.000000X1.000000*%
G04 #@! TD*
G04 #@! TA.AperFunction,ComponentPad*
%ADD13R,1.000000X1.000000*%
G04 #@! TD*
G04 #@! TA.AperFunction,ViaPad*
%ADD14C,0.800000*%
G04 #@! TD*
G04 #@! TA.AperFunction,Conductor*
%ADD15C,0.250000*%
G04 #@! TD*
G04 #@! TA.AperFunction,Conductor*
%ADD16C,0.254000*%
G04 #@! TD*
G04 APERTURE END LIST*
D10*
X173482000Y-96266000D03*
X173482000Y-93726000D03*
X173482000Y-91186000D03*
X173482000Y-88646000D03*
X173482000Y-86106000D03*
X173482000Y-83566000D03*
X173482000Y-81026000D03*
D11*
X173482000Y-78486000D03*
D10*
X164846000Y-99060000D03*
X167386000Y-99060000D03*
X164846000Y-96520000D03*
X167386000Y-96520000D03*
X164846000Y-93980000D03*
X167386000Y-93980000D03*
X164846000Y-91440000D03*
X167386000Y-91440000D03*
X164846000Y-88900000D03*
X167386000Y-88900000D03*
X164846000Y-86360000D03*
X167386000Y-86360000D03*
X164846000Y-83820000D03*
X167386000Y-83820000D03*
X164846000Y-81280000D03*
X167386000Y-81280000D03*
X164846000Y-78740000D03*
X167386000Y-78740000D03*
X164846000Y-76200000D03*
D11*
X167386000Y-76200000D03*
D12*
X179832000Y-90170000D03*
X181102000Y-90170000D03*
X179832000Y-88900000D03*
X181102000Y-88900000D03*
X179832000Y-87630000D03*
X181102000Y-87630000D03*
X179832000Y-86360000D03*
X181102000Y-86360000D03*
X179832000Y-85090000D03*
D13*
X181102000Y-85090000D03*
D14*
X169926000Y-92456000D03*
X169926000Y-89154000D03*
X176530000Y-88392000D03*
D15*
X167386000Y-83820000D02*
X169926000Y-83820000D01*
X169926000Y-83820000D02*
X170942000Y-84836000D01*
X173482000Y-96266000D02*
X171196000Y-96266000D01*
X171196000Y-96266000D02*
X169926000Y-94996000D01*
X169926000Y-94996000D02*
X169926000Y-92456000D01*
X170942000Y-84836000D02*
X169926000Y-85852000D01*
X169926000Y-85852000D02*
X169926000Y-89154000D01*
X173482000Y-86106000D02*
X175006000Y-86106000D01*
X171704000Y-86106000D02*
X173482000Y-86106000D01*
X170942000Y-86868000D02*
X171704000Y-86106000D01*
X170942000Y-89916000D02*
X170942000Y-86868000D01*
X169418000Y-91440000D02*
X170942000Y-89916000D01*
X167386000Y-91440000D02*
X169418000Y-91440000D01*
X179832000Y-87630000D02*
X177038000Y-87630000D01*
X175514000Y-86106000D02*
X175006000Y-86106000D01*
X177038000Y-87630000D02*
X175514000Y-86106000D01*
X179832000Y-85090000D02*
X175514000Y-85090000D01*
X175514000Y-85090000D02*
X175260000Y-84836000D01*
X170942000Y-84836000D02*
X175260000Y-84836000D01*
X176784000Y-88646000D02*
X176530000Y-88392000D01*
X177038000Y-88900000D02*
X176530000Y-88392000D01*
X179832000Y-88900000D02*
X177038000Y-88900000D01*
D16*
G36*
X182195000Y-84103736D02*
G01*
X182195000Y-84357352D01*
X182191502Y-84345820D01*
X182132537Y-84235506D01*
X182053185Y-84138815D01*
X181956494Y-84059463D01*
X181846180Y-84000498D01*
X181726482Y-83964188D01*
X181602000Y-83951928D01*
X180602000Y-83951928D01*
X180477518Y-83964188D01*
X180357820Y-84000498D01*
X180274774Y-84044888D01*
X180163067Y-83998617D01*
X179943788Y-83955000D01*
X179720212Y-83955000D01*
X179500933Y-83998617D01*
X179294376Y-84084176D01*
X179108480Y-84208388D01*
X178986868Y-84330000D01*
X175828801Y-84330000D01*
X175823804Y-84325003D01*
X175800001Y-84295999D01*
X175684276Y-84201026D01*
X175552247Y-84130454D01*
X175408986Y-84086997D01*
X175297333Y-84076000D01*
X175297322Y-84076000D01*
X175260000Y-84072324D01*
X175222678Y-84076000D01*
X174876014Y-84076000D01*
X174878825Y-84070099D01*
X174923476Y-83922890D01*
X174802155Y-83693000D01*
X173609000Y-83693000D01*
X173609000Y-83713000D01*
X173355000Y-83713000D01*
X173355000Y-83693000D01*
X172161845Y-83693000D01*
X172040524Y-83922890D01*
X172085175Y-84070099D01*
X172087986Y-84076000D01*
X171256802Y-84076000D01*
X170489804Y-83309002D01*
X170466001Y-83279999D01*
X170350276Y-83185026D01*
X170218247Y-83114454D01*
X170074986Y-83070997D01*
X169963333Y-83060000D01*
X169963322Y-83060000D01*
X169926000Y-83056324D01*
X169888678Y-83060000D01*
X168664178Y-83060000D01*
X168539475Y-82873368D01*
X168332632Y-82666525D01*
X168158240Y-82550000D01*
X168332632Y-82433475D01*
X168539475Y-82226632D01*
X168701990Y-81983411D01*
X168813932Y-81713158D01*
X168871000Y-81426260D01*
X168871000Y-81133740D01*
X168813932Y-80846842D01*
X168701990Y-80576589D01*
X168539475Y-80333368D01*
X168332632Y-80126525D01*
X168158240Y-80010000D01*
X168332632Y-79893475D01*
X168539475Y-79686632D01*
X168701990Y-79443411D01*
X168813932Y-79173158D01*
X168871000Y-78886260D01*
X168871000Y-78593740D01*
X168813932Y-78306842D01*
X168701990Y-78036589D01*
X168539475Y-77793368D01*
X168407620Y-77661513D01*
X168480180Y-77639502D01*
X168486731Y-77636000D01*
X171993928Y-77636000D01*
X171993928Y-79336000D01*
X172006188Y-79460482D01*
X172042498Y-79580180D01*
X172101463Y-79690494D01*
X172180815Y-79787185D01*
X172277506Y-79866537D01*
X172387820Y-79925502D01*
X172460380Y-79947513D01*
X172328525Y-80079368D01*
X172166010Y-80322589D01*
X172054068Y-80592842D01*
X171997000Y-80879740D01*
X171997000Y-81172260D01*
X172054068Y-81459158D01*
X172166010Y-81729411D01*
X172328525Y-81972632D01*
X172535368Y-82179475D01*
X172717534Y-82301195D01*
X172600645Y-82370822D01*
X172384412Y-82565731D01*
X172210359Y-82799080D01*
X172085175Y-83061901D01*
X172040524Y-83209110D01*
X172161845Y-83439000D01*
X173355000Y-83439000D01*
X173355000Y-83419000D01*
X173609000Y-83419000D01*
X173609000Y-83439000D01*
X174802155Y-83439000D01*
X174923476Y-83209110D01*
X174878825Y-83061901D01*
X174753641Y-82799080D01*
X174579588Y-82565731D01*
X174363355Y-82370822D01*
X174246466Y-82301195D01*
X174428632Y-82179475D01*
X174635475Y-81972632D01*
X174797990Y-81729411D01*
X174909932Y-81459158D01*
X174967000Y-81172260D01*
X174967000Y-80879740D01*
X174909932Y-80592842D01*
X174797990Y-80322589D01*
X174635475Y-80079368D01*
X174503620Y-79947513D01*
X174576180Y-79925502D01*
X174686494Y-79866537D01*
X174783185Y-79787185D01*
X174862537Y-79690494D01*
X174921502Y-79580180D01*
X174957812Y-79460482D01*
X174970072Y-79336000D01*
X174970072Y-77636000D01*
X174957812Y-77511518D01*
X174921502Y-77391820D01*
X174862537Y-77281506D01*
X174783185Y-77184815D01*
X174686494Y-77105463D01*
X174576180Y-77046498D01*
X174456482Y-77010188D01*
X174332000Y-76997928D01*
X172632000Y-76997928D01*
X172507518Y-77010188D01*
X172387820Y-77046498D01*
X172277506Y-77105463D01*
X172180815Y-77184815D01*
X172101463Y-77281506D01*
X172042498Y-77391820D01*
X172006188Y-77511518D01*
X171993928Y-77636000D01*
X168486731Y-77636000D01*
X168590494Y-77580537D01*
X168687185Y-77501185D01*
X168766537Y-77404494D01*
X168825502Y-77294180D01*
X168861812Y-77174482D01*
X168874072Y-77050000D01*
X168874072Y-75350000D01*
X168861812Y-75225518D01*
X168825502Y-75105820D01*
X168766537Y-74995506D01*
X168687185Y-74898815D01*
X168590494Y-74819463D01*
X168480180Y-74760498D01*
X168360482Y-74724188D01*
X168236000Y-74711928D01*
X166536000Y-74711928D01*
X166411518Y-74724188D01*
X166291820Y-74760498D01*
X166181506Y-74819463D01*
X166084815Y-74898815D01*
X166005463Y-74995506D01*
X165946498Y-75105820D01*
X165924487Y-75178380D01*
X165792632Y-75046525D01*
X165549411Y-74884010D01*
X165279158Y-74772068D01*
X164992260Y-74715000D01*
X164699740Y-74715000D01*
X164412842Y-74772068D01*
X164142589Y-74884010D01*
X163899368Y-75046525D01*
X163692525Y-75253368D01*
X163530010Y-75496589D01*
X163418068Y-75766842D01*
X163361000Y-76053740D01*
X163361000Y-76346260D01*
X163418068Y-76633158D01*
X163530010Y-76903411D01*
X163692525Y-77146632D01*
X163899368Y-77353475D01*
X164081534Y-77475195D01*
X163964645Y-77544822D01*
X163748412Y-77739731D01*
X163574359Y-77973080D01*
X163449175Y-78235901D01*
X163404524Y-78383110D01*
X163525845Y-78613000D01*
X164719000Y-78613000D01*
X164719000Y-78593000D01*
X164973000Y-78593000D01*
X164973000Y-78613000D01*
X164993000Y-78613000D01*
X164993000Y-78867000D01*
X164973000Y-78867000D01*
X164973000Y-81153000D01*
X164993000Y-81153000D01*
X164993000Y-81407000D01*
X164973000Y-81407000D01*
X164973000Y-83693000D01*
X164993000Y-83693000D01*
X164993000Y-83947000D01*
X164973000Y-83947000D01*
X164973000Y-86233000D01*
X164993000Y-86233000D01*
X164993000Y-86487000D01*
X164973000Y-86487000D01*
X164973000Y-88773000D01*
X164993000Y-88773000D01*
X164993000Y-89027000D01*
X164973000Y-89027000D01*
X164973000Y-91313000D01*
X164993000Y-91313000D01*
X164993000Y-91567000D01*
X164973000Y-91567000D01*
X164973000Y-93853000D01*
X164993000Y-93853000D01*
X164993000Y-94107000D01*
X164973000Y-94107000D01*
X164973000Y-96393000D01*
X164993000Y-96393000D01*
X164993000Y-96647000D01*
X164973000Y-96647000D01*
X164973000Y-98933000D01*
X164993000Y-98933000D01*
X164993000Y-99187000D01*
X164973000Y-99187000D01*
X164973000Y-100380814D01*
X165202891Y-100501481D01*
X165477252Y-100404157D01*
X165727355Y-100255178D01*
X165943588Y-100060269D01*
X166114900Y-99830594D01*
X166232525Y-100006632D01*
X166439368Y-100213475D01*
X166682589Y-100375990D01*
X166952842Y-100487932D01*
X167239740Y-100545000D01*
X167532260Y-100545000D01*
X167819158Y-100487932D01*
X168089411Y-100375990D01*
X168332632Y-100213475D01*
X168539475Y-100006632D01*
X168701990Y-99763411D01*
X168813932Y-99493158D01*
X168871000Y-99206260D01*
X168871000Y-98913740D01*
X168813932Y-98626842D01*
X168701990Y-98356589D01*
X168539475Y-98113368D01*
X168332632Y-97906525D01*
X168158240Y-97790000D01*
X168332632Y-97673475D01*
X168539475Y-97466632D01*
X168701990Y-97223411D01*
X168813932Y-96953158D01*
X168871000Y-96666260D01*
X168871000Y-96373740D01*
X168813932Y-96086842D01*
X168701990Y-95816589D01*
X168539475Y-95573368D01*
X168332632Y-95366525D01*
X168158240Y-95250000D01*
X168332632Y-95133475D01*
X168539475Y-94926632D01*
X168701990Y-94683411D01*
X168813932Y-94413158D01*
X168871000Y-94126260D01*
X168871000Y-93833740D01*
X168813932Y-93546842D01*
X168701990Y-93276589D01*
X168539475Y-93033368D01*
X168332632Y-92826525D01*
X168158240Y-92710000D01*
X168332632Y-92593475D01*
X168539475Y-92386632D01*
X168664178Y-92200000D01*
X168921644Y-92200000D01*
X168891000Y-92354061D01*
X168891000Y-92557939D01*
X168930774Y-92757898D01*
X169008795Y-92946256D01*
X169122063Y-93115774D01*
X169166001Y-93159712D01*
X169166000Y-94958677D01*
X169162324Y-94996000D01*
X169166000Y-95033322D01*
X169166000Y-95033332D01*
X169176997Y-95144985D01*
X169220454Y-95288246D01*
X169291026Y-95420276D01*
X169330871Y-95468826D01*
X169385999Y-95536001D01*
X169415003Y-95559804D01*
X170632201Y-96777003D01*
X170655999Y-96806001D01*
X170771724Y-96900974D01*
X170903753Y-96971546D01*
X171047014Y-97015003D01*
X171158667Y-97026000D01*
X171158676Y-97026000D01*
X171195999Y-97029676D01*
X171233322Y-97026000D01*
X172203822Y-97026000D01*
X172328525Y-97212632D01*
X172535368Y-97419475D01*
X172778589Y-97581990D01*
X173048842Y-97693932D01*
X173335740Y-97751000D01*
X173628260Y-97751000D01*
X173915158Y-97693932D01*
X174185411Y-97581990D01*
X174428632Y-97419475D01*
X174635475Y-97212632D01*
X174797990Y-96969411D01*
X174909932Y-96699158D01*
X174967000Y-96412260D01*
X174967000Y-96119740D01*
X174909932Y-95832842D01*
X174797990Y-95562589D01*
X174635475Y-95319368D01*
X174428632Y-95112525D01*
X174254240Y-94996000D01*
X174428632Y-94879475D01*
X174635475Y-94672632D01*
X174797990Y-94429411D01*
X174909932Y-94159158D01*
X174967000Y-93872260D01*
X174967000Y-93579740D01*
X174909932Y-93292842D01*
X174797990Y-93022589D01*
X174635475Y-92779368D01*
X174428632Y-92572525D01*
X174254240Y-92456000D01*
X174428632Y-92339475D01*
X174635475Y-92132632D01*
X174797990Y-91889411D01*
X174909932Y-91619158D01*
X174967000Y-91332260D01*
X174967000Y-91039740D01*
X174909932Y-90752842D01*
X174797990Y-90482589D01*
X174635475Y-90239368D01*
X174428632Y-90032525D01*
X174254240Y-89916000D01*
X174428632Y-89799475D01*
X174635475Y-89592632D01*
X174797990Y-89349411D01*
X174909932Y-89079158D01*
X174967000Y-88792260D01*
X174967000Y-88499740D01*
X174909932Y-88212842D01*
X174797990Y-87942589D01*
X174635475Y-87699368D01*
X174428632Y-87492525D01*
X174254240Y-87376000D01*
X174428632Y-87259475D01*
X174635475Y-87052632D01*
X174760178Y-86866000D01*
X175199199Y-86866000D01*
X175900819Y-87567621D01*
X175870226Y-87588063D01*
X175726063Y-87732226D01*
X175612795Y-87901744D01*
X175534774Y-88090102D01*
X175495000Y-88290061D01*
X175495000Y-88493939D01*
X175534774Y-88693898D01*
X175612795Y-88882256D01*
X175726063Y-89051774D01*
X175870226Y-89195937D01*
X176039744Y-89309205D01*
X176228102Y-89387226D01*
X176428061Y-89427000D01*
X176487329Y-89427000D01*
X176497999Y-89440001D01*
X176613724Y-89534974D01*
X176745753Y-89605546D01*
X176889014Y-89649003D01*
X177000667Y-89660000D01*
X177000676Y-89660000D01*
X177037999Y-89663676D01*
X177075322Y-89660000D01*
X178814734Y-89660000D01*
X178740617Y-89838933D01*
X178697000Y-90058212D01*
X178697000Y-90281788D01*
X178740617Y-90501067D01*
X178826176Y-90707624D01*
X178950388Y-90893520D01*
X179108480Y-91051612D01*
X179294376Y-91175824D01*
X179500933Y-91261383D01*
X179720212Y-91305000D01*
X179943788Y-91305000D01*
X180163067Y-91261383D01*
X180369624Y-91175824D01*
X180471512Y-91107744D01*
X180592471Y-91184210D01*
X180800124Y-91264126D01*
X180975000Y-91139129D01*
X180975000Y-90297000D01*
X180963974Y-90297000D01*
X180967000Y-90281788D01*
X180967000Y-90058212D01*
X180963974Y-90043000D01*
X180975000Y-90043000D01*
X180975000Y-89027000D01*
X180963974Y-89027000D01*
X180967000Y-89011788D01*
X180967000Y-88788212D01*
X180963974Y-88773000D01*
X180975000Y-88773000D01*
X180975000Y-87757000D01*
X180963974Y-87757000D01*
X180967000Y-87741788D01*
X180967000Y-87518212D01*
X180963974Y-87503000D01*
X180975000Y-87503000D01*
X180975000Y-86487000D01*
X180963974Y-86487000D01*
X180967000Y-86471788D01*
X180967000Y-86248212D01*
X180963974Y-86233000D01*
X180975000Y-86233000D01*
X180975000Y-86228072D01*
X181229000Y-86228072D01*
X181229000Y-86233000D01*
X181249000Y-86233000D01*
X181249000Y-86487000D01*
X181229000Y-86487000D01*
X181229000Y-87503000D01*
X181249000Y-87503000D01*
X181249000Y-87757000D01*
X181229000Y-87757000D01*
X181229000Y-88773000D01*
X181249000Y-88773000D01*
X181249000Y-89027000D01*
X181229000Y-89027000D01*
X181229000Y-90043000D01*
X181249000Y-90043000D01*
X181249000Y-90297000D01*
X181229000Y-90297000D01*
X181229000Y-91139129D01*
X181403876Y-91264126D01*
X181611529Y-91184210D01*
X181799601Y-91065318D01*
X181960865Y-90912020D01*
X182089123Y-90730206D01*
X182179446Y-90526864D01*
X182195001Y-90475562D01*
X182195001Y-91156263D01*
X172436264Y-100915000D01*
X163245000Y-100915000D01*
X163245000Y-99416890D01*
X163404524Y-99416890D01*
X163449175Y-99564099D01*
X163574359Y-99826920D01*
X163748412Y-100060269D01*
X163964645Y-100255178D01*
X164214748Y-100404157D01*
X164489109Y-100501481D01*
X164719000Y-100380814D01*
X164719000Y-99187000D01*
X163525845Y-99187000D01*
X163404524Y-99416890D01*
X163245000Y-99416890D01*
X163245000Y-96876890D01*
X163404524Y-96876890D01*
X163449175Y-97024099D01*
X163574359Y-97286920D01*
X163748412Y-97520269D01*
X163964645Y-97715178D01*
X164090255Y-97790000D01*
X163964645Y-97864822D01*
X163748412Y-98059731D01*
X163574359Y-98293080D01*
X163449175Y-98555901D01*
X163404524Y-98703110D01*
X163525845Y-98933000D01*
X164719000Y-98933000D01*
X164719000Y-96647000D01*
X163525845Y-96647000D01*
X163404524Y-96876890D01*
X163245000Y-96876890D01*
X163245000Y-94336890D01*
X163404524Y-94336890D01*
X163449175Y-94484099D01*
X163574359Y-94746920D01*
X163748412Y-94980269D01*
X163964645Y-95175178D01*
X164090255Y-95250000D01*
X163964645Y-95324822D01*
X163748412Y-95519731D01*
X163574359Y-95753080D01*
X163449175Y-96015901D01*
X163404524Y-96163110D01*
X163525845Y-96393000D01*
X164719000Y-96393000D01*
X164719000Y-94107000D01*
X163525845Y-94107000D01*
X163404524Y-94336890D01*
X163245000Y-94336890D01*
X163245000Y-91796890D01*
X163404524Y-91796890D01*
X163449175Y-91944099D01*
X163574359Y-92206920D01*
X163748412Y-92440269D01*
X163964645Y-92635178D01*
X164090255Y-92710000D01*
X163964645Y-92784822D01*
X163748412Y-92979731D01*
X163574359Y-93213080D01*
X163449175Y-93475901D01*
X163404524Y-93623110D01*
X163525845Y-93853000D01*
X164719000Y-93853000D01*
X164719000Y-91567000D01*
X163525845Y-91567000D01*
X163404524Y-91796890D01*
X163245000Y-91796890D01*
X163245000Y-89256890D01*
X163404524Y-89256890D01*
X163449175Y-89404099D01*
X163574359Y-89666920D01*
X163748412Y-89900269D01*
X163964645Y-90095178D01*
X164090255Y-90170000D01*
X163964645Y-90244822D01*
X163748412Y-90439731D01*
X163574359Y-90673080D01*
X163449175Y-90935901D01*
X163404524Y-91083110D01*
X163525845Y-91313000D01*
X164719000Y-91313000D01*
X164719000Y-89027000D01*
X163525845Y-89027000D01*
X163404524Y-89256890D01*
X163245000Y-89256890D01*
X163245000Y-86716890D01*
X163404524Y-86716890D01*
X163449175Y-86864099D01*
X163574359Y-87126920D01*
X163748412Y-87360269D01*
X163964645Y-87555178D01*
X164090255Y-87630000D01*
X163964645Y-87704822D01*
X163748412Y-87899731D01*
X163574359Y-88133080D01*
X163449175Y-88395901D01*
X163404524Y-88543110D01*
X163525845Y-88773000D01*
X164719000Y-88773000D01*
X164719000Y-86487000D01*
X163525845Y-86487000D01*
X163404524Y-86716890D01*
X163245000Y-86716890D01*
X163245000Y-84176890D01*
X163404524Y-84176890D01*
X163449175Y-84324099D01*
X163574359Y-84586920D01*
X163748412Y-84820269D01*
X163964645Y-85015178D01*
X164090255Y-85090000D01*
X163964645Y-85164822D01*
X163748412Y-85359731D01*
X163574359Y-85593080D01*
X163449175Y-85855901D01*
X163404524Y-86003110D01*
X163525845Y-86233000D01*
X164719000Y-86233000D01*
X164719000Y-83947000D01*
X163525845Y-83947000D01*
X163404524Y-84176890D01*
X163245000Y-84176890D01*
X163245000Y-81636890D01*
X163404524Y-81636890D01*
X163449175Y-81784099D01*
X163574359Y-82046920D01*
X163748412Y-82280269D01*
X163964645Y-82475178D01*
X164090255Y-82550000D01*
X163964645Y-82624822D01*
X163748412Y-82819731D01*
X163574359Y-83053080D01*
X163449175Y-83315901D01*
X163404524Y-83463110D01*
X163525845Y-83693000D01*
X164719000Y-83693000D01*
X164719000Y-81407000D01*
X163525845Y-81407000D01*
X163404524Y-81636890D01*
X163245000Y-81636890D01*
X163245000Y-79096890D01*
X163404524Y-79096890D01*
X163449175Y-79244099D01*
X163574359Y-79506920D01*
X163748412Y-79740269D01*
X163964645Y-79935178D01*
X164090255Y-80010000D01*
X163964645Y-80084822D01*
X163748412Y-80279731D01*
X163574359Y-80513080D01*
X163449175Y-80775901D01*
X163404524Y-80923110D01*
X163525845Y-81153000D01*
X164719000Y-81153000D01*
X164719000Y-78867000D01*
X163525845Y-78867000D01*
X163404524Y-79096890D01*
X163245000Y-79096890D01*
X163245000Y-74345000D01*
X172436264Y-74345000D01*
X182195000Y-84103736D01*
G37*
X182195000Y-84103736D02*
X182195000Y-84357352D01*
X182191502Y-84345820D01*
X182132537Y-84235506D01*
X182053185Y-84138815D01*
X181956494Y-84059463D01*
X181846180Y-84000498D01*
X181726482Y-83964188D01*
X181602000Y-83951928D01*
X180602000Y-83951928D01*
X180477518Y-83964188D01*
X180357820Y-84000498D01*
X180274774Y-84044888D01*
X180163067Y-83998617D01*
X179943788Y-83955000D01*
X179720212Y-83955000D01*
X179500933Y-83998617D01*
X179294376Y-84084176D01*
X179108480Y-84208388D01*
X178986868Y-84330000D01*
X175828801Y-84330000D01*
X175823804Y-84325003D01*
X175800001Y-84295999D01*
X175684276Y-84201026D01*
X175552247Y-84130454D01*
X175408986Y-84086997D01*
X175297333Y-84076000D01*
X175297322Y-84076000D01*
X175260000Y-84072324D01*
X175222678Y-84076000D01*
X174876014Y-84076000D01*
X174878825Y-84070099D01*
X174923476Y-83922890D01*
X174802155Y-83693000D01*
X173609000Y-83693000D01*
X173609000Y-83713000D01*
X173355000Y-83713000D01*
X173355000Y-83693000D01*
X172161845Y-83693000D01*
X172040524Y-83922890D01*
X172085175Y-84070099D01*
X172087986Y-84076000D01*
X171256802Y-84076000D01*
X170489804Y-83309002D01*
X170466001Y-83279999D01*
X170350276Y-83185026D01*
X170218247Y-83114454D01*
X170074986Y-83070997D01*
X169963333Y-83060000D01*
X169963322Y-83060000D01*
X169926000Y-83056324D01*
X169888678Y-83060000D01*
X168664178Y-83060000D01*
X168539475Y-82873368D01*
X168332632Y-82666525D01*
X168158240Y-82550000D01*
X168332632Y-82433475D01*
X168539475Y-82226632D01*
X168701990Y-81983411D01*
X168813932Y-81713158D01*
X168871000Y-81426260D01*
X168871000Y-81133740D01*
X168813932Y-80846842D01*
X168701990Y-80576589D01*
X168539475Y-80333368D01*
X168332632Y-80126525D01*
X168158240Y-80010000D01*
X168332632Y-79893475D01*
X168539475Y-79686632D01*
X168701990Y-79443411D01*
X168813932Y-79173158D01*
X168871000Y-78886260D01*
X168871000Y-78593740D01*
X168813932Y-78306842D01*
X168701990Y-78036589D01*
X168539475Y-77793368D01*
X168407620Y-77661513D01*
X168480180Y-77639502D01*
X168486731Y-77636000D01*
X171993928Y-77636000D01*
X171993928Y-79336000D01*
X172006188Y-79460482D01*
X172042498Y-79580180D01*
X172101463Y-79690494D01*
X172180815Y-79787185D01*
X172277506Y-79866537D01*
X172387820Y-79925502D01*
X172460380Y-79947513D01*
X172328525Y-80079368D01*
X172166010Y-80322589D01*
X172054068Y-80592842D01*
X171997000Y-80879740D01*
X171997000Y-81172260D01*
X172054068Y-81459158D01*
X172166010Y-81729411D01*
X172328525Y-81972632D01*
X172535368Y-82179475D01*
X172717534Y-82301195D01*
X172600645Y-82370822D01*
X172384412Y-82565731D01*
X172210359Y-82799080D01*
X172085175Y-83061901D01*
X172040524Y-83209110D01*
X172161845Y-83439000D01*
X173355000Y-83439000D01*
X173355000Y-83419000D01*
X173609000Y-83419000D01*
X173609000Y-83439000D01*
X174802155Y-83439000D01*
X174923476Y-83209110D01*
X174878825Y-83061901D01*
X174753641Y-82799080D01*
X174579588Y-82565731D01*
X174363355Y-82370822D01*
X174246466Y-82301195D01*
X174428632Y-82179475D01*
X174635475Y-81972632D01*
X174797990Y-81729411D01*
X174909932Y-81459158D01*
X174967000Y-81172260D01*
X174967000Y-80879740D01*
X174909932Y-80592842D01*
X174797990Y-80322589D01*
X174635475Y-80079368D01*
X174503620Y-79947513D01*
X174576180Y-79925502D01*
X174686494Y-79866537D01*
X174783185Y-79787185D01*
X174862537Y-79690494D01*
X174921502Y-79580180D01*
X174957812Y-79460482D01*
X174970072Y-79336000D01*
X174970072Y-77636000D01*
X174957812Y-77511518D01*
X174921502Y-77391820D01*
X174862537Y-77281506D01*
X174783185Y-77184815D01*
X174686494Y-77105463D01*
X174576180Y-77046498D01*
X174456482Y-77010188D01*
X174332000Y-76997928D01*
X172632000Y-76997928D01*
X172507518Y-77010188D01*
X172387820Y-77046498D01*
X172277506Y-77105463D01*
X172180815Y-77184815D01*
X172101463Y-77281506D01*
X172042498Y-77391820D01*
X172006188Y-77511518D01*
X171993928Y-77636000D01*
X168486731Y-77636000D01*
X168590494Y-77580537D01*
X168687185Y-77501185D01*
X168766537Y-77404494D01*
X168825502Y-77294180D01*
X168861812Y-77174482D01*
X168874072Y-77050000D01*
X168874072Y-75350000D01*
X168861812Y-75225518D01*
X168825502Y-75105820D01*
X168766537Y-74995506D01*
X168687185Y-74898815D01*
X168590494Y-74819463D01*
X168480180Y-74760498D01*
X168360482Y-74724188D01*
X168236000Y-74711928D01*
X166536000Y-74711928D01*
X166411518Y-74724188D01*
X166291820Y-74760498D01*
X166181506Y-74819463D01*
X166084815Y-74898815D01*
X166005463Y-74995506D01*
X165946498Y-75105820D01*
X165924487Y-75178380D01*
X165792632Y-75046525D01*
X165549411Y-74884010D01*
X165279158Y-74772068D01*
X164992260Y-74715000D01*
X164699740Y-74715000D01*
X164412842Y-74772068D01*
X164142589Y-74884010D01*
X163899368Y-75046525D01*
X163692525Y-75253368D01*
X163530010Y-75496589D01*
X163418068Y-75766842D01*
X163361000Y-76053740D01*
X163361000Y-76346260D01*
X163418068Y-76633158D01*
X163530010Y-76903411D01*
X163692525Y-77146632D01*
X163899368Y-77353475D01*
X164081534Y-77475195D01*
X163964645Y-77544822D01*
X163748412Y-77739731D01*
X163574359Y-77973080D01*
X163449175Y-78235901D01*
X163404524Y-78383110D01*
X163525845Y-78613000D01*
X164719000Y-78613000D01*
X164719000Y-78593000D01*
X164973000Y-78593000D01*
X164973000Y-78613000D01*
X164993000Y-78613000D01*
X164993000Y-78867000D01*
X164973000Y-78867000D01*
X164973000Y-81153000D01*
X164993000Y-81153000D01*
X164993000Y-81407000D01*
X164973000Y-81407000D01*
X164973000Y-83693000D01*
X164993000Y-83693000D01*
X164993000Y-83947000D01*
X164973000Y-83947000D01*
X164973000Y-86233000D01*
X164993000Y-86233000D01*
X164993000Y-86487000D01*
X164973000Y-86487000D01*
X164973000Y-88773000D01*
X164993000Y-88773000D01*
X164993000Y-89027000D01*
X164973000Y-89027000D01*
X164973000Y-91313000D01*
X164993000Y-91313000D01*
X164993000Y-91567000D01*
X164973000Y-91567000D01*
X164973000Y-93853000D01*
X164993000Y-93853000D01*
X164993000Y-94107000D01*
X164973000Y-94107000D01*
X164973000Y-96393000D01*
X164993000Y-96393000D01*
X164993000Y-96647000D01*
X164973000Y-96647000D01*
X164973000Y-98933000D01*
X164993000Y-98933000D01*
X164993000Y-99187000D01*
X164973000Y-99187000D01*
X164973000Y-100380814D01*
X165202891Y-100501481D01*
X165477252Y-100404157D01*
X165727355Y-100255178D01*
X165943588Y-100060269D01*
X166114900Y-99830594D01*
X166232525Y-100006632D01*
X166439368Y-100213475D01*
X166682589Y-100375990D01*
X166952842Y-100487932D01*
X167239740Y-100545000D01*
X167532260Y-100545000D01*
X167819158Y-100487932D01*
X168089411Y-100375990D01*
X168332632Y-100213475D01*
X168539475Y-100006632D01*
X168701990Y-99763411D01*
X168813932Y-99493158D01*
X168871000Y-99206260D01*
X168871000Y-98913740D01*
X168813932Y-98626842D01*
X168701990Y-98356589D01*
X168539475Y-98113368D01*
X168332632Y-97906525D01*
X168158240Y-97790000D01*
X168332632Y-97673475D01*
X168539475Y-97466632D01*
X168701990Y-97223411D01*
X168813932Y-96953158D01*
X168871000Y-96666260D01*
X168871000Y-96373740D01*
X168813932Y-96086842D01*
X168701990Y-95816589D01*
X168539475Y-95573368D01*
X168332632Y-95366525D01*
X168158240Y-95250000D01*
X168332632Y-95133475D01*
X168539475Y-94926632D01*
X168701990Y-94683411D01*
X168813932Y-94413158D01*
X168871000Y-94126260D01*
X168871000Y-93833740D01*
X168813932Y-93546842D01*
X168701990Y-93276589D01*
X168539475Y-93033368D01*
X168332632Y-92826525D01*
X168158240Y-92710000D01*
X168332632Y-92593475D01*
X168539475Y-92386632D01*
X168664178Y-92200000D01*
X168921644Y-92200000D01*
X168891000Y-92354061D01*
X168891000Y-92557939D01*
X168930774Y-92757898D01*
X169008795Y-92946256D01*
X169122063Y-93115774D01*
X169166001Y-93159712D01*
X169166000Y-94958677D01*
X169162324Y-94996000D01*
X169166000Y-95033322D01*
X169166000Y-95033332D01*
X169176997Y-95144985D01*
X169220454Y-95288246D01*
X169291026Y-95420276D01*
X169330871Y-95468826D01*
X169385999Y-95536001D01*
X169415003Y-95559804D01*
X170632201Y-96777003D01*
X170655999Y-96806001D01*
X170771724Y-96900974D01*
X170903753Y-96971546D01*
X171047014Y-97015003D01*
X171158667Y-97026000D01*
X171158676Y-97026000D01*
X171195999Y-97029676D01*
X171233322Y-97026000D01*
X172203822Y-97026000D01*
X172328525Y-97212632D01*
X172535368Y-97419475D01*
X172778589Y-97581990D01*
X173048842Y-97693932D01*
X173335740Y-97751000D01*
X173628260Y-97751000D01*
X173915158Y-97693932D01*
X174185411Y-97581990D01*
X174428632Y-97419475D01*
X174635475Y-97212632D01*
X174797990Y-96969411D01*
X174909932Y-96699158D01*
X174967000Y-96412260D01*
X174967000Y-96119740D01*
X174909932Y-95832842D01*
X174797990Y-95562589D01*
X174635475Y-95319368D01*
X174428632Y-95112525D01*
X174254240Y-94996000D01*
X174428632Y-94879475D01*
X174635475Y-94672632D01*
X174797990Y-94429411D01*
X174909932Y-94159158D01*
X174967000Y-93872260D01*
X174967000Y-93579740D01*
X174909932Y-93292842D01*
X174797990Y-93022589D01*
X174635475Y-92779368D01*
X174428632Y-92572525D01*
X174254240Y-92456000D01*
X174428632Y-92339475D01*
X174635475Y-92132632D01*
X174797990Y-91889411D01*
X174909932Y-91619158D01*
X174967000Y-91332260D01*
X174967000Y-91039740D01*
X174909932Y-90752842D01*
X174797990Y-90482589D01*
X174635475Y-90239368D01*
X174428632Y-90032525D01*
X174254240Y-89916000D01*
X174428632Y-89799475D01*
X174635475Y-89592632D01*
X174797990Y-89349411D01*
X174909932Y-89079158D01*
X174967000Y-88792260D01*
X174967000Y-88499740D01*
X174909932Y-88212842D01*
X174797990Y-87942589D01*
X174635475Y-87699368D01*
X174428632Y-87492525D01*
X174254240Y-87376000D01*
X174428632Y-87259475D01*
X174635475Y-87052632D01*
X174760178Y-86866000D01*
X175199199Y-86866000D01*
X175900819Y-87567621D01*
X175870226Y-87588063D01*
X175726063Y-87732226D01*
X175612795Y-87901744D01*
X175534774Y-88090102D01*
X175495000Y-88290061D01*
X175495000Y-88493939D01*
X175534774Y-88693898D01*
X175612795Y-88882256D01*
X175726063Y-89051774D01*
X175870226Y-89195937D01*
X176039744Y-89309205D01*
X176228102Y-89387226D01*
X176428061Y-89427000D01*
X176487329Y-89427000D01*
X176497999Y-89440001D01*
X176613724Y-89534974D01*
X176745753Y-89605546D01*
X176889014Y-89649003D01*
X177000667Y-89660000D01*
X177000676Y-89660000D01*
X177037999Y-89663676D01*
X177075322Y-89660000D01*
X178814734Y-89660000D01*
X178740617Y-89838933D01*
X178697000Y-90058212D01*
X178697000Y-90281788D01*
X178740617Y-90501067D01*
X178826176Y-90707624D01*
X178950388Y-90893520D01*
X179108480Y-91051612D01*
X179294376Y-91175824D01*
X179500933Y-91261383D01*
X179720212Y-91305000D01*
X179943788Y-91305000D01*
X180163067Y-91261383D01*
X180369624Y-91175824D01*
X180471512Y-91107744D01*
X180592471Y-91184210D01*
X180800124Y-91264126D01*
X180975000Y-91139129D01*
X180975000Y-90297000D01*
X180963974Y-90297000D01*
X180967000Y-90281788D01*
X180967000Y-90058212D01*
X180963974Y-90043000D01*
X180975000Y-90043000D01*
X180975000Y-89027000D01*
X180963974Y-89027000D01*
X180967000Y-89011788D01*
X180967000Y-88788212D01*
X180963974Y-88773000D01*
X180975000Y-88773000D01*
X180975000Y-87757000D01*
X180963974Y-87757000D01*
X180967000Y-87741788D01*
X180967000Y-87518212D01*
X180963974Y-87503000D01*
X180975000Y-87503000D01*
X180975000Y-86487000D01*
X180963974Y-86487000D01*
X180967000Y-86471788D01*
X180967000Y-86248212D01*
X180963974Y-86233000D01*
X180975000Y-86233000D01*
X180975000Y-86228072D01*
X181229000Y-86228072D01*
X181229000Y-86233000D01*
X181249000Y-86233000D01*
X181249000Y-86487000D01*
X181229000Y-86487000D01*
X181229000Y-87503000D01*
X181249000Y-87503000D01*
X181249000Y-87757000D01*
X181229000Y-87757000D01*
X181229000Y-88773000D01*
X181249000Y-88773000D01*
X181249000Y-89027000D01*
X181229000Y-89027000D01*
X181229000Y-90043000D01*
X181249000Y-90043000D01*
X181249000Y-90297000D01*
X181229000Y-90297000D01*
X181229000Y-91139129D01*
X181403876Y-91264126D01*
X181611529Y-91184210D01*
X181799601Y-91065318D01*
X181960865Y-90912020D01*
X182089123Y-90730206D01*
X182179446Y-90526864D01*
X182195001Y-90475562D01*
X182195001Y-91156263D01*
X172436264Y-100915000D01*
X163245000Y-100915000D01*
X163245000Y-99416890D01*
X163404524Y-99416890D01*
X163449175Y-99564099D01*
X163574359Y-99826920D01*
X163748412Y-100060269D01*
X163964645Y-100255178D01*
X164214748Y-100404157D01*
X164489109Y-100501481D01*
X164719000Y-100380814D01*
X164719000Y-99187000D01*
X163525845Y-99187000D01*
X163404524Y-99416890D01*
X163245000Y-99416890D01*
X163245000Y-96876890D01*
X163404524Y-96876890D01*
X163449175Y-97024099D01*
X163574359Y-97286920D01*
X163748412Y-97520269D01*
X163964645Y-97715178D01*
X164090255Y-97790000D01*
X163964645Y-97864822D01*
X163748412Y-98059731D01*
X163574359Y-98293080D01*
X163449175Y-98555901D01*
X163404524Y-98703110D01*
X163525845Y-98933000D01*
X164719000Y-98933000D01*
X164719000Y-96647000D01*
X163525845Y-96647000D01*
X163404524Y-96876890D01*
X163245000Y-96876890D01*
X163245000Y-94336890D01*
X163404524Y-94336890D01*
X163449175Y-94484099D01*
X163574359Y-94746920D01*
X163748412Y-94980269D01*
X163964645Y-95175178D01*
X164090255Y-95250000D01*
X163964645Y-95324822D01*
X163748412Y-95519731D01*
X163574359Y-95753080D01*
X163449175Y-96015901D01*
X163404524Y-96163110D01*
X163525845Y-96393000D01*
X164719000Y-96393000D01*
X164719000Y-94107000D01*
X163525845Y-94107000D01*
X163404524Y-94336890D01*
X163245000Y-94336890D01*
X163245000Y-91796890D01*
X163404524Y-91796890D01*
X163449175Y-91944099D01*
X163574359Y-92206920D01*
X163748412Y-92440269D01*
X163964645Y-92635178D01*
X164090255Y-92710000D01*
X163964645Y-92784822D01*
X163748412Y-92979731D01*
X163574359Y-93213080D01*
X163449175Y-93475901D01*
X163404524Y-93623110D01*
X163525845Y-93853000D01*
X164719000Y-93853000D01*
X164719000Y-91567000D01*
X163525845Y-91567000D01*
X163404524Y-91796890D01*
X163245000Y-91796890D01*
X163245000Y-89256890D01*
X163404524Y-89256890D01*
X163449175Y-89404099D01*
X163574359Y-89666920D01*
X163748412Y-89900269D01*
X163964645Y-90095178D01*
X164090255Y-90170000D01*
X163964645Y-90244822D01*
X163748412Y-90439731D01*
X163574359Y-90673080D01*
X163449175Y-90935901D01*
X163404524Y-91083110D01*
X163525845Y-91313000D01*
X164719000Y-91313000D01*
X164719000Y-89027000D01*
X163525845Y-89027000D01*
X163404524Y-89256890D01*
X163245000Y-89256890D01*
X163245000Y-86716890D01*
X163404524Y-86716890D01*
X163449175Y-86864099D01*
X163574359Y-87126920D01*
X163748412Y-87360269D01*
X163964645Y-87555178D01*
X164090255Y-87630000D01*
X163964645Y-87704822D01*
X163748412Y-87899731D01*
X163574359Y-88133080D01*
X163449175Y-88395901D01*
X163404524Y-88543110D01*
X163525845Y-88773000D01*
X164719000Y-88773000D01*
X164719000Y-86487000D01*
X163525845Y-86487000D01*
X163404524Y-86716890D01*
X163245000Y-86716890D01*
X163245000Y-84176890D01*
X163404524Y-84176890D01*
X163449175Y-84324099D01*
X163574359Y-84586920D01*
X163748412Y-84820269D01*
X163964645Y-85015178D01*
X164090255Y-85090000D01*
X163964645Y-85164822D01*
X163748412Y-85359731D01*
X163574359Y-85593080D01*
X163449175Y-85855901D01*
X163404524Y-86003110D01*
X163525845Y-86233000D01*
X164719000Y-86233000D01*
X164719000Y-83947000D01*
X163525845Y-83947000D01*
X163404524Y-84176890D01*
X163245000Y-84176890D01*
X163245000Y-81636890D01*
X163404524Y-81636890D01*
X163449175Y-81784099D01*
X163574359Y-82046920D01*
X163748412Y-82280269D01*
X163964645Y-82475178D01*
X164090255Y-82550000D01*
X163964645Y-82624822D01*
X163748412Y-82819731D01*
X163574359Y-83053080D01*
X163449175Y-83315901D01*
X163404524Y-83463110D01*
X163525845Y-83693000D01*
X164719000Y-83693000D01*
X164719000Y-81407000D01*
X163525845Y-81407000D01*
X163404524Y-81636890D01*
X163245000Y-81636890D01*
X163245000Y-79096890D01*
X163404524Y-79096890D01*
X163449175Y-79244099D01*
X163574359Y-79506920D01*
X163748412Y-79740269D01*
X163964645Y-79935178D01*
X164090255Y-80010000D01*
X163964645Y-80084822D01*
X163748412Y-80279731D01*
X163574359Y-80513080D01*
X163449175Y-80775901D01*
X163404524Y-80923110D01*
X163525845Y-81153000D01*
X164719000Y-81153000D01*
X164719000Y-78867000D01*
X163525845Y-78867000D01*
X163404524Y-79096890D01*
X163245000Y-79096890D01*
X163245000Y-74345000D01*
X172436264Y-74345000D01*
X182195000Y-84103736D01*
M02*
