M48
; DRILL file {KiCad (5.1.6-0-10_14)} date Saturday, June 06, 2020 at 09:07:05 PM
; FORMAT={-:-/ absolute / inch / decimal}
; #@! TF.CreationDate,2020-06-06T21:07:05+01:00
; #@! TF.GenerationSoftware,Kicad,Pcbnew,(5.1.6-0-10_14)
FMAT,2
INCH
T1C0.0157
T2C0.0276
T3C0.0394
%
G90
G05
T1
X6.69Y-3.51
X6.69Y-3.64
X6.95Y-3.48
T2
X7.08Y-3.35
X7.08Y-3.4
X7.08Y-3.45
X7.08Y-3.5
X7.08Y-3.55
X7.13Y-3.35
X7.13Y-3.4
X7.13Y-3.45
X7.13Y-3.5
X7.13Y-3.55
T3
X6.83Y-3.09
X6.83Y-3.19
X6.83Y-3.29
X6.83Y-3.39
X6.83Y-3.49
X6.83Y-3.59
X6.83Y-3.69
X6.83Y-3.79
X6.49Y-3.0
X6.49Y-3.1
X6.49Y-3.2
X6.49Y-3.3
X6.49Y-3.4
X6.49Y-3.5
X6.49Y-3.6
X6.49Y-3.7
X6.49Y-3.8
X6.49Y-3.9
X6.59Y-3.0
X6.59Y-3.1
X6.59Y-3.2
X6.59Y-3.3
X6.59Y-3.4
X6.59Y-3.5
X6.59Y-3.6
X6.59Y-3.7
X6.59Y-3.8
X6.59Y-3.9
T0
M30
