M48
; DRILL file {KiCad (5.1.5-0-10_14)} date Friday, 15 May 2020 at 13:47:26
; FORMAT={-:-/ absolute / inch / decimal}
; #@! TF.CreationDate,2020-05-15T13:47:26+01:00
; #@! TF.GenerationSoftware,Kicad,Pcbnew,(5.1.5-0-10_14)
FMAT,2
INCH
T1C0.0157
T2C0.0315
T3C0.0394
%
G90
G05
T1
X5.32Y-3.55
X5.32Y-3.71
X5.47Y-3.53
X5.68Y-3.61
X5.7Y-3.53
T2
X5.8113Y-3.37
X5.8113Y-3.4487
X5.8113Y-3.5275
X5.8113Y-3.6062
X5.8113Y-3.685
X5.89Y-3.37
X5.89Y-3.4487
X5.89Y-3.5275
X5.89Y-3.6062
X5.89Y-3.685
T3
X5.57Y-3.17
X5.57Y-3.27
X5.57Y-3.37
X5.57Y-3.47
X5.57Y-3.57
X5.57Y-3.67
X5.57Y-3.77
X5.57Y-3.87
X5.11Y-3.07
X5.11Y-3.17
X5.11Y-3.27
X5.11Y-3.37
X5.11Y-3.47
X5.11Y-3.57
X5.11Y-3.67
X5.11Y-3.77
X5.11Y-3.87
X5.11Y-3.97
X5.21Y-3.07
X5.21Y-3.17
X5.21Y-3.27
X5.21Y-3.37
X5.21Y-3.47
X5.21Y-3.57
X5.21Y-3.67
X5.21Y-3.77
X5.21Y-3.87
X5.21Y-3.97
T0
M30
