G04 #@! TF.GenerationSoftware,KiCad,Pcbnew,(5.1.5-0-10_14)*
G04 #@! TF.CreationDate,2020-05-15T13:47:23+01:00*
G04 #@! TF.ProjectId,JLinkSWD,4a4c696e-6b53-4574-942e-6b696361645f,rev?*
G04 #@! TF.SameCoordinates,Original*
G04 #@! TF.FileFunction,Copper,L2,Bot*
G04 #@! TF.FilePolarity,Positive*
%FSLAX46Y46*%
G04 Gerber Fmt 4.6, Leading zero omitted, Abs format (unit mm)*
G04 Created by KiCad (PCBNEW (5.1.5-0-10_14)) date 2020-05-15 13:47:23*
%MOMM*%
%LPD*%
G04 APERTURE LIST*
%ADD10O,1.700000X1.700000*%
%ADD11R,1.700000X1.700000*%
%ADD12O,1.350000X1.350000*%
%ADD13R,1.350000X1.350000*%
%ADD14C,0.800000*%
%ADD15C,0.250000*%
%ADD16C,0.254000*%
G04 APERTURE END LIST*
D10*
X141478000Y-98298000D03*
X141478000Y-95758000D03*
X141478000Y-93218000D03*
X141478000Y-90678000D03*
X141478000Y-88138000D03*
X141478000Y-85598000D03*
X141478000Y-83058000D03*
D11*
X141478000Y-80518000D03*
D10*
X129794000Y-100838000D03*
X132334000Y-100838000D03*
X129794000Y-98298000D03*
X132334000Y-98298000D03*
X129794000Y-95758000D03*
X132334000Y-95758000D03*
X129794000Y-93218000D03*
X132334000Y-93218000D03*
X129794000Y-90678000D03*
X132334000Y-90678000D03*
X129794000Y-88138000D03*
X132334000Y-88138000D03*
X129794000Y-85598000D03*
X132334000Y-85598000D03*
X129794000Y-83058000D03*
X132334000Y-83058000D03*
X129794000Y-80518000D03*
X132334000Y-80518000D03*
X129794000Y-77978000D03*
D11*
X132334000Y-77978000D03*
D12*
X147606000Y-93598000D03*
X149606000Y-93598000D03*
X147606000Y-91598000D03*
X149606000Y-91598000D03*
X147606000Y-89598000D03*
X149606000Y-89598000D03*
X147606000Y-87598000D03*
X149606000Y-87598000D03*
X147606000Y-85598000D03*
D13*
X149606000Y-85598000D03*
D14*
X135128000Y-90170000D03*
X135128000Y-94234000D03*
X144780000Y-89662000D03*
X138938000Y-89662000D03*
X144272000Y-91694000D03*
D15*
X132334000Y-85598000D02*
X134112000Y-85598000D01*
X135128000Y-86614000D02*
X135128000Y-90170000D01*
X134112000Y-85598000D02*
X135128000Y-86614000D01*
X135128000Y-97028000D02*
X135128000Y-94234000D01*
X136398000Y-98298000D02*
X135128000Y-97028000D01*
X141478000Y-98298000D02*
X136398000Y-98298000D01*
X145759002Y-94016998D02*
X145759002Y-87444998D01*
X141478000Y-98298000D02*
X145759002Y-94016998D01*
X145759002Y-87444998D02*
X146931001Y-86272999D01*
X146931001Y-86272999D02*
X147606000Y-85598000D01*
X132334000Y-93218000D02*
X133858000Y-93218000D01*
X138938000Y-88138000D02*
X141478000Y-88138000D01*
X133858000Y-93218000D02*
X138938000Y-88138000D01*
X143256000Y-88138000D02*
X144780000Y-89662000D01*
X141478000Y-88138000D02*
X143256000Y-88138000D01*
X138938000Y-89662000D02*
X138938000Y-91186000D01*
X138938000Y-91186000D02*
X138938000Y-91440000D01*
X144112999Y-91853001D02*
X144272000Y-91694000D01*
X139351001Y-91853001D02*
X144112999Y-91853001D01*
X138938000Y-91440000D02*
X139351001Y-91853001D01*
D16*
G36*
X151740001Y-103480000D02*
G01*
X127660000Y-103480000D01*
X127660000Y-101194890D01*
X128352524Y-101194890D01*
X128397175Y-101342099D01*
X128522359Y-101604920D01*
X128696412Y-101838269D01*
X128912645Y-102033178D01*
X129162748Y-102182157D01*
X129437109Y-102279481D01*
X129667000Y-102158814D01*
X129667000Y-100965000D01*
X128473845Y-100965000D01*
X128352524Y-101194890D01*
X127660000Y-101194890D01*
X127660000Y-98654890D01*
X128352524Y-98654890D01*
X128397175Y-98802099D01*
X128522359Y-99064920D01*
X128696412Y-99298269D01*
X128912645Y-99493178D01*
X129038255Y-99568000D01*
X128912645Y-99642822D01*
X128696412Y-99837731D01*
X128522359Y-100071080D01*
X128397175Y-100333901D01*
X128352524Y-100481110D01*
X128473845Y-100711000D01*
X129667000Y-100711000D01*
X129667000Y-98425000D01*
X128473845Y-98425000D01*
X128352524Y-98654890D01*
X127660000Y-98654890D01*
X127660000Y-96114890D01*
X128352524Y-96114890D01*
X128397175Y-96262099D01*
X128522359Y-96524920D01*
X128696412Y-96758269D01*
X128912645Y-96953178D01*
X129038255Y-97028000D01*
X128912645Y-97102822D01*
X128696412Y-97297731D01*
X128522359Y-97531080D01*
X128397175Y-97793901D01*
X128352524Y-97941110D01*
X128473845Y-98171000D01*
X129667000Y-98171000D01*
X129667000Y-95885000D01*
X128473845Y-95885000D01*
X128352524Y-96114890D01*
X127660000Y-96114890D01*
X127660000Y-93574890D01*
X128352524Y-93574890D01*
X128397175Y-93722099D01*
X128522359Y-93984920D01*
X128696412Y-94218269D01*
X128912645Y-94413178D01*
X129038255Y-94488000D01*
X128912645Y-94562822D01*
X128696412Y-94757731D01*
X128522359Y-94991080D01*
X128397175Y-95253901D01*
X128352524Y-95401110D01*
X128473845Y-95631000D01*
X129667000Y-95631000D01*
X129667000Y-93345000D01*
X128473845Y-93345000D01*
X128352524Y-93574890D01*
X127660000Y-93574890D01*
X127660000Y-91034890D01*
X128352524Y-91034890D01*
X128397175Y-91182099D01*
X128522359Y-91444920D01*
X128696412Y-91678269D01*
X128912645Y-91873178D01*
X129038255Y-91948000D01*
X128912645Y-92022822D01*
X128696412Y-92217731D01*
X128522359Y-92451080D01*
X128397175Y-92713901D01*
X128352524Y-92861110D01*
X128473845Y-93091000D01*
X129667000Y-93091000D01*
X129667000Y-90805000D01*
X128473845Y-90805000D01*
X128352524Y-91034890D01*
X127660000Y-91034890D01*
X127660000Y-88494890D01*
X128352524Y-88494890D01*
X128397175Y-88642099D01*
X128522359Y-88904920D01*
X128696412Y-89138269D01*
X128912645Y-89333178D01*
X129038255Y-89408000D01*
X128912645Y-89482822D01*
X128696412Y-89677731D01*
X128522359Y-89911080D01*
X128397175Y-90173901D01*
X128352524Y-90321110D01*
X128473845Y-90551000D01*
X129667000Y-90551000D01*
X129667000Y-88265000D01*
X128473845Y-88265000D01*
X128352524Y-88494890D01*
X127660000Y-88494890D01*
X127660000Y-85954890D01*
X128352524Y-85954890D01*
X128397175Y-86102099D01*
X128522359Y-86364920D01*
X128696412Y-86598269D01*
X128912645Y-86793178D01*
X129038255Y-86868000D01*
X128912645Y-86942822D01*
X128696412Y-87137731D01*
X128522359Y-87371080D01*
X128397175Y-87633901D01*
X128352524Y-87781110D01*
X128473845Y-88011000D01*
X129667000Y-88011000D01*
X129667000Y-85725000D01*
X128473845Y-85725000D01*
X128352524Y-85954890D01*
X127660000Y-85954890D01*
X127660000Y-83414890D01*
X128352524Y-83414890D01*
X128397175Y-83562099D01*
X128522359Y-83824920D01*
X128696412Y-84058269D01*
X128912645Y-84253178D01*
X129038255Y-84328000D01*
X128912645Y-84402822D01*
X128696412Y-84597731D01*
X128522359Y-84831080D01*
X128397175Y-85093901D01*
X128352524Y-85241110D01*
X128473845Y-85471000D01*
X129667000Y-85471000D01*
X129667000Y-83185000D01*
X128473845Y-83185000D01*
X128352524Y-83414890D01*
X127660000Y-83414890D01*
X127660000Y-80874890D01*
X128352524Y-80874890D01*
X128397175Y-81022099D01*
X128522359Y-81284920D01*
X128696412Y-81518269D01*
X128912645Y-81713178D01*
X129038255Y-81788000D01*
X128912645Y-81862822D01*
X128696412Y-82057731D01*
X128522359Y-82291080D01*
X128397175Y-82553901D01*
X128352524Y-82701110D01*
X128473845Y-82931000D01*
X129667000Y-82931000D01*
X129667000Y-80645000D01*
X128473845Y-80645000D01*
X128352524Y-80874890D01*
X127660000Y-80874890D01*
X127660000Y-77831740D01*
X128309000Y-77831740D01*
X128309000Y-78124260D01*
X128366068Y-78411158D01*
X128478010Y-78681411D01*
X128640525Y-78924632D01*
X128847368Y-79131475D01*
X129029534Y-79253195D01*
X128912645Y-79322822D01*
X128696412Y-79517731D01*
X128522359Y-79751080D01*
X128397175Y-80013901D01*
X128352524Y-80161110D01*
X128473845Y-80391000D01*
X129667000Y-80391000D01*
X129667000Y-80371000D01*
X129921000Y-80371000D01*
X129921000Y-80391000D01*
X129941000Y-80391000D01*
X129941000Y-80645000D01*
X129921000Y-80645000D01*
X129921000Y-82931000D01*
X129941000Y-82931000D01*
X129941000Y-83185000D01*
X129921000Y-83185000D01*
X129921000Y-85471000D01*
X129941000Y-85471000D01*
X129941000Y-85725000D01*
X129921000Y-85725000D01*
X129921000Y-88011000D01*
X129941000Y-88011000D01*
X129941000Y-88265000D01*
X129921000Y-88265000D01*
X129921000Y-90551000D01*
X129941000Y-90551000D01*
X129941000Y-90805000D01*
X129921000Y-90805000D01*
X129921000Y-93091000D01*
X129941000Y-93091000D01*
X129941000Y-93345000D01*
X129921000Y-93345000D01*
X129921000Y-95631000D01*
X129941000Y-95631000D01*
X129941000Y-95885000D01*
X129921000Y-95885000D01*
X129921000Y-98171000D01*
X129941000Y-98171000D01*
X129941000Y-98425000D01*
X129921000Y-98425000D01*
X129921000Y-100711000D01*
X129941000Y-100711000D01*
X129941000Y-100965000D01*
X129921000Y-100965000D01*
X129921000Y-102158814D01*
X130150891Y-102279481D01*
X130425252Y-102182157D01*
X130675355Y-102033178D01*
X130891588Y-101838269D01*
X131062900Y-101608594D01*
X131180525Y-101784632D01*
X131387368Y-101991475D01*
X131630589Y-102153990D01*
X131900842Y-102265932D01*
X132187740Y-102323000D01*
X132480260Y-102323000D01*
X132767158Y-102265932D01*
X133037411Y-102153990D01*
X133280632Y-101991475D01*
X133487475Y-101784632D01*
X133649990Y-101541411D01*
X133761932Y-101271158D01*
X133819000Y-100984260D01*
X133819000Y-100691740D01*
X133761932Y-100404842D01*
X133649990Y-100134589D01*
X133487475Y-99891368D01*
X133280632Y-99684525D01*
X133106240Y-99568000D01*
X133280632Y-99451475D01*
X133487475Y-99244632D01*
X133649990Y-99001411D01*
X133761932Y-98731158D01*
X133819000Y-98444260D01*
X133819000Y-98151740D01*
X133761932Y-97864842D01*
X133649990Y-97594589D01*
X133487475Y-97351368D01*
X133280632Y-97144525D01*
X133106240Y-97028000D01*
X133280632Y-96911475D01*
X133487475Y-96704632D01*
X133649990Y-96461411D01*
X133761932Y-96191158D01*
X133819000Y-95904260D01*
X133819000Y-95611740D01*
X133761932Y-95324842D01*
X133649990Y-95054589D01*
X133487475Y-94811368D01*
X133280632Y-94604525D01*
X133106240Y-94488000D01*
X133280632Y-94371475D01*
X133487475Y-94164632D01*
X133612178Y-93978000D01*
X133820678Y-93978000D01*
X133858000Y-93981676D01*
X133895322Y-93978000D01*
X133895333Y-93978000D01*
X134006986Y-93967003D01*
X134134316Y-93928378D01*
X134132774Y-93932102D01*
X134093000Y-94132061D01*
X134093000Y-94335939D01*
X134132774Y-94535898D01*
X134210795Y-94724256D01*
X134324063Y-94893774D01*
X134368001Y-94937712D01*
X134368000Y-96990677D01*
X134364324Y-97028000D01*
X134368000Y-97065322D01*
X134368000Y-97065332D01*
X134378997Y-97176985D01*
X134415624Y-97297731D01*
X134422454Y-97320246D01*
X134493026Y-97452276D01*
X134532871Y-97500826D01*
X134587999Y-97568001D01*
X134617003Y-97591804D01*
X135834201Y-98809003D01*
X135857999Y-98838001D01*
X135973724Y-98932974D01*
X136105753Y-99003546D01*
X136249014Y-99047003D01*
X136360667Y-99058000D01*
X136360676Y-99058000D01*
X136397999Y-99061676D01*
X136435322Y-99058000D01*
X140199822Y-99058000D01*
X140324525Y-99244632D01*
X140531368Y-99451475D01*
X140774589Y-99613990D01*
X141044842Y-99725932D01*
X141331740Y-99783000D01*
X141624260Y-99783000D01*
X141911158Y-99725932D01*
X142181411Y-99613990D01*
X142424632Y-99451475D01*
X142631475Y-99244632D01*
X142793990Y-99001411D01*
X142905932Y-98731158D01*
X142963000Y-98444260D01*
X142963000Y-98151740D01*
X142919209Y-97931592D01*
X146270006Y-94580796D01*
X146299003Y-94556999D01*
X146371036Y-94469227D01*
X146393976Y-94441275D01*
X146464548Y-94309245D01*
X146464548Y-94309244D01*
X146477402Y-94266872D01*
X146588456Y-94433077D01*
X146770923Y-94615544D01*
X146985482Y-94758907D01*
X147223887Y-94857658D01*
X147476976Y-94908000D01*
X147735024Y-94908000D01*
X147988113Y-94857658D01*
X148226518Y-94758907D01*
X148441077Y-94615544D01*
X148610715Y-94445906D01*
X148627697Y-94469227D01*
X148816463Y-94643344D01*
X149035570Y-94777289D01*
X149276599Y-94865915D01*
X149479000Y-94743085D01*
X149479000Y-93725000D01*
X149733000Y-93725000D01*
X149733000Y-94743085D01*
X149935401Y-94865915D01*
X150176430Y-94777289D01*
X150395537Y-94643344D01*
X150584303Y-94469227D01*
X150735473Y-94261629D01*
X150843238Y-94028528D01*
X150873910Y-93927400D01*
X150750224Y-93725000D01*
X149733000Y-93725000D01*
X149479000Y-93725000D01*
X149459000Y-93725000D01*
X149459000Y-93471000D01*
X149479000Y-93471000D01*
X149479000Y-91725000D01*
X149733000Y-91725000D01*
X149733000Y-93471000D01*
X150750224Y-93471000D01*
X150873910Y-93268600D01*
X150843238Y-93167472D01*
X150735473Y-92934371D01*
X150584303Y-92726773D01*
X150444696Y-92598000D01*
X150584303Y-92469227D01*
X150735473Y-92261629D01*
X150843238Y-92028528D01*
X150873910Y-91927400D01*
X150750224Y-91725000D01*
X149733000Y-91725000D01*
X149479000Y-91725000D01*
X149459000Y-91725000D01*
X149459000Y-91471000D01*
X149479000Y-91471000D01*
X149479000Y-89725000D01*
X149733000Y-89725000D01*
X149733000Y-91471000D01*
X150750224Y-91471000D01*
X150873910Y-91268600D01*
X150843238Y-91167472D01*
X150735473Y-90934371D01*
X150584303Y-90726773D01*
X150444696Y-90598000D01*
X150584303Y-90469227D01*
X150735473Y-90261629D01*
X150843238Y-90028528D01*
X150873910Y-89927400D01*
X150750224Y-89725000D01*
X149733000Y-89725000D01*
X149479000Y-89725000D01*
X149459000Y-89725000D01*
X149459000Y-89471000D01*
X149479000Y-89471000D01*
X149479000Y-87725000D01*
X149733000Y-87725000D01*
X149733000Y-89471000D01*
X150750224Y-89471000D01*
X150873910Y-89268600D01*
X150843238Y-89167472D01*
X150735473Y-88934371D01*
X150584303Y-88726773D01*
X150444696Y-88598000D01*
X150584303Y-88469227D01*
X150735473Y-88261629D01*
X150843238Y-88028528D01*
X150873910Y-87927400D01*
X150750224Y-87725000D01*
X149733000Y-87725000D01*
X149479000Y-87725000D01*
X149459000Y-87725000D01*
X149459000Y-87471000D01*
X149479000Y-87471000D01*
X149479000Y-87451000D01*
X149733000Y-87451000D01*
X149733000Y-87471000D01*
X150750224Y-87471000D01*
X150873910Y-87268600D01*
X150843238Y-87167472D01*
X150735473Y-86934371D01*
X150638441Y-86801119D01*
X150732185Y-86724185D01*
X150811537Y-86627494D01*
X150870502Y-86517180D01*
X150906812Y-86397482D01*
X150919072Y-86273000D01*
X150919072Y-84923000D01*
X150906812Y-84798518D01*
X150870502Y-84678820D01*
X150811537Y-84568506D01*
X150732185Y-84471815D01*
X150635494Y-84392463D01*
X150525180Y-84333498D01*
X150405482Y-84297188D01*
X150281000Y-84284928D01*
X148931000Y-84284928D01*
X148806518Y-84297188D01*
X148686820Y-84333498D01*
X148576506Y-84392463D01*
X148479815Y-84471815D01*
X148408513Y-84558697D01*
X148226518Y-84437093D01*
X147988113Y-84338342D01*
X147735024Y-84288000D01*
X147476976Y-84288000D01*
X147223887Y-84338342D01*
X146985482Y-84437093D01*
X146770923Y-84580456D01*
X146588456Y-84762923D01*
X146445093Y-84977482D01*
X146346342Y-85215887D01*
X146296000Y-85468976D01*
X146296000Y-85727024D01*
X146313615Y-85815583D01*
X145248000Y-86881199D01*
X145219002Y-86904997D01*
X145195204Y-86933995D01*
X145195203Y-86933996D01*
X145124028Y-87020722D01*
X145053456Y-87152752D01*
X145010000Y-87296013D01*
X144995326Y-87444998D01*
X144999003Y-87482330D01*
X144999003Y-88650285D01*
X144881939Y-88627000D01*
X144819802Y-88627000D01*
X143819803Y-87627002D01*
X143796001Y-87597999D01*
X143680276Y-87503026D01*
X143548247Y-87432454D01*
X143404986Y-87388997D01*
X143293333Y-87378000D01*
X143293322Y-87378000D01*
X143256000Y-87374324D01*
X143218678Y-87378000D01*
X142756178Y-87378000D01*
X142631475Y-87191368D01*
X142424632Y-86984525D01*
X142242466Y-86862805D01*
X142359355Y-86793178D01*
X142575588Y-86598269D01*
X142749641Y-86364920D01*
X142874825Y-86102099D01*
X142919476Y-85954890D01*
X142798155Y-85725000D01*
X141605000Y-85725000D01*
X141605000Y-85745000D01*
X141351000Y-85745000D01*
X141351000Y-85725000D01*
X140157845Y-85725000D01*
X140036524Y-85954890D01*
X140081175Y-86102099D01*
X140206359Y-86364920D01*
X140380412Y-86598269D01*
X140596645Y-86793178D01*
X140713534Y-86862805D01*
X140531368Y-86984525D01*
X140324525Y-87191368D01*
X140199822Y-87378000D01*
X138975323Y-87378000D01*
X138938000Y-87374324D01*
X138900677Y-87378000D01*
X138900667Y-87378000D01*
X138789014Y-87388997D01*
X138645753Y-87432454D01*
X138513723Y-87503026D01*
X138430083Y-87571668D01*
X138397999Y-87597999D01*
X138374201Y-87626997D01*
X136124864Y-89876335D01*
X136123226Y-89868102D01*
X136045205Y-89679744D01*
X135931937Y-89510226D01*
X135888000Y-89466289D01*
X135888000Y-86651322D01*
X135891676Y-86614000D01*
X135888000Y-86576677D01*
X135888000Y-86576667D01*
X135877003Y-86465014D01*
X135833546Y-86321753D01*
X135822673Y-86301411D01*
X135762974Y-86189723D01*
X135691799Y-86102997D01*
X135668001Y-86073999D01*
X135639004Y-86050202D01*
X134675804Y-85087002D01*
X134652001Y-85057999D01*
X134536276Y-84963026D01*
X134404247Y-84892454D01*
X134260986Y-84848997D01*
X134149333Y-84838000D01*
X134149322Y-84838000D01*
X134112000Y-84834324D01*
X134074678Y-84838000D01*
X133612178Y-84838000D01*
X133487475Y-84651368D01*
X133280632Y-84444525D01*
X133106240Y-84328000D01*
X133280632Y-84211475D01*
X133487475Y-84004632D01*
X133649990Y-83761411D01*
X133761932Y-83491158D01*
X133819000Y-83204260D01*
X133819000Y-82911740D01*
X133761932Y-82624842D01*
X133649990Y-82354589D01*
X133487475Y-82111368D01*
X133280632Y-81904525D01*
X133106240Y-81788000D01*
X133280632Y-81671475D01*
X133487475Y-81464632D01*
X133649990Y-81221411D01*
X133761932Y-80951158D01*
X133819000Y-80664260D01*
X133819000Y-80371740D01*
X133761932Y-80084842D01*
X133649990Y-79814589D01*
X133552043Y-79668000D01*
X139989928Y-79668000D01*
X139989928Y-81368000D01*
X140002188Y-81492482D01*
X140038498Y-81612180D01*
X140097463Y-81722494D01*
X140176815Y-81819185D01*
X140273506Y-81898537D01*
X140383820Y-81957502D01*
X140456380Y-81979513D01*
X140324525Y-82111368D01*
X140162010Y-82354589D01*
X140050068Y-82624842D01*
X139993000Y-82911740D01*
X139993000Y-83204260D01*
X140050068Y-83491158D01*
X140162010Y-83761411D01*
X140324525Y-84004632D01*
X140531368Y-84211475D01*
X140713534Y-84333195D01*
X140596645Y-84402822D01*
X140380412Y-84597731D01*
X140206359Y-84831080D01*
X140081175Y-85093901D01*
X140036524Y-85241110D01*
X140157845Y-85471000D01*
X141351000Y-85471000D01*
X141351000Y-85451000D01*
X141605000Y-85451000D01*
X141605000Y-85471000D01*
X142798155Y-85471000D01*
X142919476Y-85241110D01*
X142874825Y-85093901D01*
X142749641Y-84831080D01*
X142575588Y-84597731D01*
X142359355Y-84402822D01*
X142242466Y-84333195D01*
X142424632Y-84211475D01*
X142631475Y-84004632D01*
X142793990Y-83761411D01*
X142905932Y-83491158D01*
X142963000Y-83204260D01*
X142963000Y-82911740D01*
X142905932Y-82624842D01*
X142793990Y-82354589D01*
X142631475Y-82111368D01*
X142499620Y-81979513D01*
X142572180Y-81957502D01*
X142682494Y-81898537D01*
X142779185Y-81819185D01*
X142858537Y-81722494D01*
X142917502Y-81612180D01*
X142953812Y-81492482D01*
X142966072Y-81368000D01*
X142966072Y-79668000D01*
X142953812Y-79543518D01*
X142917502Y-79423820D01*
X142858537Y-79313506D01*
X142779185Y-79216815D01*
X142682494Y-79137463D01*
X142572180Y-79078498D01*
X142452482Y-79042188D01*
X142328000Y-79029928D01*
X140628000Y-79029928D01*
X140503518Y-79042188D01*
X140383820Y-79078498D01*
X140273506Y-79137463D01*
X140176815Y-79216815D01*
X140097463Y-79313506D01*
X140038498Y-79423820D01*
X140002188Y-79543518D01*
X139989928Y-79668000D01*
X133552043Y-79668000D01*
X133487475Y-79571368D01*
X133355620Y-79439513D01*
X133428180Y-79417502D01*
X133538494Y-79358537D01*
X133635185Y-79279185D01*
X133714537Y-79182494D01*
X133773502Y-79072180D01*
X133809812Y-78952482D01*
X133822072Y-78828000D01*
X133822072Y-77128000D01*
X133809812Y-77003518D01*
X133773502Y-76883820D01*
X133714537Y-76773506D01*
X133635185Y-76676815D01*
X133538494Y-76597463D01*
X133428180Y-76538498D01*
X133308482Y-76502188D01*
X133184000Y-76489928D01*
X131484000Y-76489928D01*
X131359518Y-76502188D01*
X131239820Y-76538498D01*
X131129506Y-76597463D01*
X131032815Y-76676815D01*
X130953463Y-76773506D01*
X130894498Y-76883820D01*
X130872487Y-76956380D01*
X130740632Y-76824525D01*
X130497411Y-76662010D01*
X130227158Y-76550068D01*
X129940260Y-76493000D01*
X129647740Y-76493000D01*
X129360842Y-76550068D01*
X129090589Y-76662010D01*
X128847368Y-76824525D01*
X128640525Y-77031368D01*
X128478010Y-77274589D01*
X128366068Y-77544842D01*
X128309000Y-77831740D01*
X127660000Y-77831740D01*
X127660000Y-74320000D01*
X151740000Y-74320000D01*
X151740001Y-103480000D01*
G37*
X151740001Y-103480000D02*
X127660000Y-103480000D01*
X127660000Y-101194890D01*
X128352524Y-101194890D01*
X128397175Y-101342099D01*
X128522359Y-101604920D01*
X128696412Y-101838269D01*
X128912645Y-102033178D01*
X129162748Y-102182157D01*
X129437109Y-102279481D01*
X129667000Y-102158814D01*
X129667000Y-100965000D01*
X128473845Y-100965000D01*
X128352524Y-101194890D01*
X127660000Y-101194890D01*
X127660000Y-98654890D01*
X128352524Y-98654890D01*
X128397175Y-98802099D01*
X128522359Y-99064920D01*
X128696412Y-99298269D01*
X128912645Y-99493178D01*
X129038255Y-99568000D01*
X128912645Y-99642822D01*
X128696412Y-99837731D01*
X128522359Y-100071080D01*
X128397175Y-100333901D01*
X128352524Y-100481110D01*
X128473845Y-100711000D01*
X129667000Y-100711000D01*
X129667000Y-98425000D01*
X128473845Y-98425000D01*
X128352524Y-98654890D01*
X127660000Y-98654890D01*
X127660000Y-96114890D01*
X128352524Y-96114890D01*
X128397175Y-96262099D01*
X128522359Y-96524920D01*
X128696412Y-96758269D01*
X128912645Y-96953178D01*
X129038255Y-97028000D01*
X128912645Y-97102822D01*
X128696412Y-97297731D01*
X128522359Y-97531080D01*
X128397175Y-97793901D01*
X128352524Y-97941110D01*
X128473845Y-98171000D01*
X129667000Y-98171000D01*
X129667000Y-95885000D01*
X128473845Y-95885000D01*
X128352524Y-96114890D01*
X127660000Y-96114890D01*
X127660000Y-93574890D01*
X128352524Y-93574890D01*
X128397175Y-93722099D01*
X128522359Y-93984920D01*
X128696412Y-94218269D01*
X128912645Y-94413178D01*
X129038255Y-94488000D01*
X128912645Y-94562822D01*
X128696412Y-94757731D01*
X128522359Y-94991080D01*
X128397175Y-95253901D01*
X128352524Y-95401110D01*
X128473845Y-95631000D01*
X129667000Y-95631000D01*
X129667000Y-93345000D01*
X128473845Y-93345000D01*
X128352524Y-93574890D01*
X127660000Y-93574890D01*
X127660000Y-91034890D01*
X128352524Y-91034890D01*
X128397175Y-91182099D01*
X128522359Y-91444920D01*
X128696412Y-91678269D01*
X128912645Y-91873178D01*
X129038255Y-91948000D01*
X128912645Y-92022822D01*
X128696412Y-92217731D01*
X128522359Y-92451080D01*
X128397175Y-92713901D01*
X128352524Y-92861110D01*
X128473845Y-93091000D01*
X129667000Y-93091000D01*
X129667000Y-90805000D01*
X128473845Y-90805000D01*
X128352524Y-91034890D01*
X127660000Y-91034890D01*
X127660000Y-88494890D01*
X128352524Y-88494890D01*
X128397175Y-88642099D01*
X128522359Y-88904920D01*
X128696412Y-89138269D01*
X128912645Y-89333178D01*
X129038255Y-89408000D01*
X128912645Y-89482822D01*
X128696412Y-89677731D01*
X128522359Y-89911080D01*
X128397175Y-90173901D01*
X128352524Y-90321110D01*
X128473845Y-90551000D01*
X129667000Y-90551000D01*
X129667000Y-88265000D01*
X128473845Y-88265000D01*
X128352524Y-88494890D01*
X127660000Y-88494890D01*
X127660000Y-85954890D01*
X128352524Y-85954890D01*
X128397175Y-86102099D01*
X128522359Y-86364920D01*
X128696412Y-86598269D01*
X128912645Y-86793178D01*
X129038255Y-86868000D01*
X128912645Y-86942822D01*
X128696412Y-87137731D01*
X128522359Y-87371080D01*
X128397175Y-87633901D01*
X128352524Y-87781110D01*
X128473845Y-88011000D01*
X129667000Y-88011000D01*
X129667000Y-85725000D01*
X128473845Y-85725000D01*
X128352524Y-85954890D01*
X127660000Y-85954890D01*
X127660000Y-83414890D01*
X128352524Y-83414890D01*
X128397175Y-83562099D01*
X128522359Y-83824920D01*
X128696412Y-84058269D01*
X128912645Y-84253178D01*
X129038255Y-84328000D01*
X128912645Y-84402822D01*
X128696412Y-84597731D01*
X128522359Y-84831080D01*
X128397175Y-85093901D01*
X128352524Y-85241110D01*
X128473845Y-85471000D01*
X129667000Y-85471000D01*
X129667000Y-83185000D01*
X128473845Y-83185000D01*
X128352524Y-83414890D01*
X127660000Y-83414890D01*
X127660000Y-80874890D01*
X128352524Y-80874890D01*
X128397175Y-81022099D01*
X128522359Y-81284920D01*
X128696412Y-81518269D01*
X128912645Y-81713178D01*
X129038255Y-81788000D01*
X128912645Y-81862822D01*
X128696412Y-82057731D01*
X128522359Y-82291080D01*
X128397175Y-82553901D01*
X128352524Y-82701110D01*
X128473845Y-82931000D01*
X129667000Y-82931000D01*
X129667000Y-80645000D01*
X128473845Y-80645000D01*
X128352524Y-80874890D01*
X127660000Y-80874890D01*
X127660000Y-77831740D01*
X128309000Y-77831740D01*
X128309000Y-78124260D01*
X128366068Y-78411158D01*
X128478010Y-78681411D01*
X128640525Y-78924632D01*
X128847368Y-79131475D01*
X129029534Y-79253195D01*
X128912645Y-79322822D01*
X128696412Y-79517731D01*
X128522359Y-79751080D01*
X128397175Y-80013901D01*
X128352524Y-80161110D01*
X128473845Y-80391000D01*
X129667000Y-80391000D01*
X129667000Y-80371000D01*
X129921000Y-80371000D01*
X129921000Y-80391000D01*
X129941000Y-80391000D01*
X129941000Y-80645000D01*
X129921000Y-80645000D01*
X129921000Y-82931000D01*
X129941000Y-82931000D01*
X129941000Y-83185000D01*
X129921000Y-83185000D01*
X129921000Y-85471000D01*
X129941000Y-85471000D01*
X129941000Y-85725000D01*
X129921000Y-85725000D01*
X129921000Y-88011000D01*
X129941000Y-88011000D01*
X129941000Y-88265000D01*
X129921000Y-88265000D01*
X129921000Y-90551000D01*
X129941000Y-90551000D01*
X129941000Y-90805000D01*
X129921000Y-90805000D01*
X129921000Y-93091000D01*
X129941000Y-93091000D01*
X129941000Y-93345000D01*
X129921000Y-93345000D01*
X129921000Y-95631000D01*
X129941000Y-95631000D01*
X129941000Y-95885000D01*
X129921000Y-95885000D01*
X129921000Y-98171000D01*
X129941000Y-98171000D01*
X129941000Y-98425000D01*
X129921000Y-98425000D01*
X129921000Y-100711000D01*
X129941000Y-100711000D01*
X129941000Y-100965000D01*
X129921000Y-100965000D01*
X129921000Y-102158814D01*
X130150891Y-102279481D01*
X130425252Y-102182157D01*
X130675355Y-102033178D01*
X130891588Y-101838269D01*
X131062900Y-101608594D01*
X131180525Y-101784632D01*
X131387368Y-101991475D01*
X131630589Y-102153990D01*
X131900842Y-102265932D01*
X132187740Y-102323000D01*
X132480260Y-102323000D01*
X132767158Y-102265932D01*
X133037411Y-102153990D01*
X133280632Y-101991475D01*
X133487475Y-101784632D01*
X133649990Y-101541411D01*
X133761932Y-101271158D01*
X133819000Y-100984260D01*
X133819000Y-100691740D01*
X133761932Y-100404842D01*
X133649990Y-100134589D01*
X133487475Y-99891368D01*
X133280632Y-99684525D01*
X133106240Y-99568000D01*
X133280632Y-99451475D01*
X133487475Y-99244632D01*
X133649990Y-99001411D01*
X133761932Y-98731158D01*
X133819000Y-98444260D01*
X133819000Y-98151740D01*
X133761932Y-97864842D01*
X133649990Y-97594589D01*
X133487475Y-97351368D01*
X133280632Y-97144525D01*
X133106240Y-97028000D01*
X133280632Y-96911475D01*
X133487475Y-96704632D01*
X133649990Y-96461411D01*
X133761932Y-96191158D01*
X133819000Y-95904260D01*
X133819000Y-95611740D01*
X133761932Y-95324842D01*
X133649990Y-95054589D01*
X133487475Y-94811368D01*
X133280632Y-94604525D01*
X133106240Y-94488000D01*
X133280632Y-94371475D01*
X133487475Y-94164632D01*
X133612178Y-93978000D01*
X133820678Y-93978000D01*
X133858000Y-93981676D01*
X133895322Y-93978000D01*
X133895333Y-93978000D01*
X134006986Y-93967003D01*
X134134316Y-93928378D01*
X134132774Y-93932102D01*
X134093000Y-94132061D01*
X134093000Y-94335939D01*
X134132774Y-94535898D01*
X134210795Y-94724256D01*
X134324063Y-94893774D01*
X134368001Y-94937712D01*
X134368000Y-96990677D01*
X134364324Y-97028000D01*
X134368000Y-97065322D01*
X134368000Y-97065332D01*
X134378997Y-97176985D01*
X134415624Y-97297731D01*
X134422454Y-97320246D01*
X134493026Y-97452276D01*
X134532871Y-97500826D01*
X134587999Y-97568001D01*
X134617003Y-97591804D01*
X135834201Y-98809003D01*
X135857999Y-98838001D01*
X135973724Y-98932974D01*
X136105753Y-99003546D01*
X136249014Y-99047003D01*
X136360667Y-99058000D01*
X136360676Y-99058000D01*
X136397999Y-99061676D01*
X136435322Y-99058000D01*
X140199822Y-99058000D01*
X140324525Y-99244632D01*
X140531368Y-99451475D01*
X140774589Y-99613990D01*
X141044842Y-99725932D01*
X141331740Y-99783000D01*
X141624260Y-99783000D01*
X141911158Y-99725932D01*
X142181411Y-99613990D01*
X142424632Y-99451475D01*
X142631475Y-99244632D01*
X142793990Y-99001411D01*
X142905932Y-98731158D01*
X142963000Y-98444260D01*
X142963000Y-98151740D01*
X142919209Y-97931592D01*
X146270006Y-94580796D01*
X146299003Y-94556999D01*
X146371036Y-94469227D01*
X146393976Y-94441275D01*
X146464548Y-94309245D01*
X146464548Y-94309244D01*
X146477402Y-94266872D01*
X146588456Y-94433077D01*
X146770923Y-94615544D01*
X146985482Y-94758907D01*
X147223887Y-94857658D01*
X147476976Y-94908000D01*
X147735024Y-94908000D01*
X147988113Y-94857658D01*
X148226518Y-94758907D01*
X148441077Y-94615544D01*
X148610715Y-94445906D01*
X148627697Y-94469227D01*
X148816463Y-94643344D01*
X149035570Y-94777289D01*
X149276599Y-94865915D01*
X149479000Y-94743085D01*
X149479000Y-93725000D01*
X149733000Y-93725000D01*
X149733000Y-94743085D01*
X149935401Y-94865915D01*
X150176430Y-94777289D01*
X150395537Y-94643344D01*
X150584303Y-94469227D01*
X150735473Y-94261629D01*
X150843238Y-94028528D01*
X150873910Y-93927400D01*
X150750224Y-93725000D01*
X149733000Y-93725000D01*
X149479000Y-93725000D01*
X149459000Y-93725000D01*
X149459000Y-93471000D01*
X149479000Y-93471000D01*
X149479000Y-91725000D01*
X149733000Y-91725000D01*
X149733000Y-93471000D01*
X150750224Y-93471000D01*
X150873910Y-93268600D01*
X150843238Y-93167472D01*
X150735473Y-92934371D01*
X150584303Y-92726773D01*
X150444696Y-92598000D01*
X150584303Y-92469227D01*
X150735473Y-92261629D01*
X150843238Y-92028528D01*
X150873910Y-91927400D01*
X150750224Y-91725000D01*
X149733000Y-91725000D01*
X149479000Y-91725000D01*
X149459000Y-91725000D01*
X149459000Y-91471000D01*
X149479000Y-91471000D01*
X149479000Y-89725000D01*
X149733000Y-89725000D01*
X149733000Y-91471000D01*
X150750224Y-91471000D01*
X150873910Y-91268600D01*
X150843238Y-91167472D01*
X150735473Y-90934371D01*
X150584303Y-90726773D01*
X150444696Y-90598000D01*
X150584303Y-90469227D01*
X150735473Y-90261629D01*
X150843238Y-90028528D01*
X150873910Y-89927400D01*
X150750224Y-89725000D01*
X149733000Y-89725000D01*
X149479000Y-89725000D01*
X149459000Y-89725000D01*
X149459000Y-89471000D01*
X149479000Y-89471000D01*
X149479000Y-87725000D01*
X149733000Y-87725000D01*
X149733000Y-89471000D01*
X150750224Y-89471000D01*
X150873910Y-89268600D01*
X150843238Y-89167472D01*
X150735473Y-88934371D01*
X150584303Y-88726773D01*
X150444696Y-88598000D01*
X150584303Y-88469227D01*
X150735473Y-88261629D01*
X150843238Y-88028528D01*
X150873910Y-87927400D01*
X150750224Y-87725000D01*
X149733000Y-87725000D01*
X149479000Y-87725000D01*
X149459000Y-87725000D01*
X149459000Y-87471000D01*
X149479000Y-87471000D01*
X149479000Y-87451000D01*
X149733000Y-87451000D01*
X149733000Y-87471000D01*
X150750224Y-87471000D01*
X150873910Y-87268600D01*
X150843238Y-87167472D01*
X150735473Y-86934371D01*
X150638441Y-86801119D01*
X150732185Y-86724185D01*
X150811537Y-86627494D01*
X150870502Y-86517180D01*
X150906812Y-86397482D01*
X150919072Y-86273000D01*
X150919072Y-84923000D01*
X150906812Y-84798518D01*
X150870502Y-84678820D01*
X150811537Y-84568506D01*
X150732185Y-84471815D01*
X150635494Y-84392463D01*
X150525180Y-84333498D01*
X150405482Y-84297188D01*
X150281000Y-84284928D01*
X148931000Y-84284928D01*
X148806518Y-84297188D01*
X148686820Y-84333498D01*
X148576506Y-84392463D01*
X148479815Y-84471815D01*
X148408513Y-84558697D01*
X148226518Y-84437093D01*
X147988113Y-84338342D01*
X147735024Y-84288000D01*
X147476976Y-84288000D01*
X147223887Y-84338342D01*
X146985482Y-84437093D01*
X146770923Y-84580456D01*
X146588456Y-84762923D01*
X146445093Y-84977482D01*
X146346342Y-85215887D01*
X146296000Y-85468976D01*
X146296000Y-85727024D01*
X146313615Y-85815583D01*
X145248000Y-86881199D01*
X145219002Y-86904997D01*
X145195204Y-86933995D01*
X145195203Y-86933996D01*
X145124028Y-87020722D01*
X145053456Y-87152752D01*
X145010000Y-87296013D01*
X144995326Y-87444998D01*
X144999003Y-87482330D01*
X144999003Y-88650285D01*
X144881939Y-88627000D01*
X144819802Y-88627000D01*
X143819803Y-87627002D01*
X143796001Y-87597999D01*
X143680276Y-87503026D01*
X143548247Y-87432454D01*
X143404986Y-87388997D01*
X143293333Y-87378000D01*
X143293322Y-87378000D01*
X143256000Y-87374324D01*
X143218678Y-87378000D01*
X142756178Y-87378000D01*
X142631475Y-87191368D01*
X142424632Y-86984525D01*
X142242466Y-86862805D01*
X142359355Y-86793178D01*
X142575588Y-86598269D01*
X142749641Y-86364920D01*
X142874825Y-86102099D01*
X142919476Y-85954890D01*
X142798155Y-85725000D01*
X141605000Y-85725000D01*
X141605000Y-85745000D01*
X141351000Y-85745000D01*
X141351000Y-85725000D01*
X140157845Y-85725000D01*
X140036524Y-85954890D01*
X140081175Y-86102099D01*
X140206359Y-86364920D01*
X140380412Y-86598269D01*
X140596645Y-86793178D01*
X140713534Y-86862805D01*
X140531368Y-86984525D01*
X140324525Y-87191368D01*
X140199822Y-87378000D01*
X138975323Y-87378000D01*
X138938000Y-87374324D01*
X138900677Y-87378000D01*
X138900667Y-87378000D01*
X138789014Y-87388997D01*
X138645753Y-87432454D01*
X138513723Y-87503026D01*
X138430083Y-87571668D01*
X138397999Y-87597999D01*
X138374201Y-87626997D01*
X136124864Y-89876335D01*
X136123226Y-89868102D01*
X136045205Y-89679744D01*
X135931937Y-89510226D01*
X135888000Y-89466289D01*
X135888000Y-86651322D01*
X135891676Y-86614000D01*
X135888000Y-86576677D01*
X135888000Y-86576667D01*
X135877003Y-86465014D01*
X135833546Y-86321753D01*
X135822673Y-86301411D01*
X135762974Y-86189723D01*
X135691799Y-86102997D01*
X135668001Y-86073999D01*
X135639004Y-86050202D01*
X134675804Y-85087002D01*
X134652001Y-85057999D01*
X134536276Y-84963026D01*
X134404247Y-84892454D01*
X134260986Y-84848997D01*
X134149333Y-84838000D01*
X134149322Y-84838000D01*
X134112000Y-84834324D01*
X134074678Y-84838000D01*
X133612178Y-84838000D01*
X133487475Y-84651368D01*
X133280632Y-84444525D01*
X133106240Y-84328000D01*
X133280632Y-84211475D01*
X133487475Y-84004632D01*
X133649990Y-83761411D01*
X133761932Y-83491158D01*
X133819000Y-83204260D01*
X133819000Y-82911740D01*
X133761932Y-82624842D01*
X133649990Y-82354589D01*
X133487475Y-82111368D01*
X133280632Y-81904525D01*
X133106240Y-81788000D01*
X133280632Y-81671475D01*
X133487475Y-81464632D01*
X133649990Y-81221411D01*
X133761932Y-80951158D01*
X133819000Y-80664260D01*
X133819000Y-80371740D01*
X133761932Y-80084842D01*
X133649990Y-79814589D01*
X133552043Y-79668000D01*
X139989928Y-79668000D01*
X139989928Y-81368000D01*
X140002188Y-81492482D01*
X140038498Y-81612180D01*
X140097463Y-81722494D01*
X140176815Y-81819185D01*
X140273506Y-81898537D01*
X140383820Y-81957502D01*
X140456380Y-81979513D01*
X140324525Y-82111368D01*
X140162010Y-82354589D01*
X140050068Y-82624842D01*
X139993000Y-82911740D01*
X139993000Y-83204260D01*
X140050068Y-83491158D01*
X140162010Y-83761411D01*
X140324525Y-84004632D01*
X140531368Y-84211475D01*
X140713534Y-84333195D01*
X140596645Y-84402822D01*
X140380412Y-84597731D01*
X140206359Y-84831080D01*
X140081175Y-85093901D01*
X140036524Y-85241110D01*
X140157845Y-85471000D01*
X141351000Y-85471000D01*
X141351000Y-85451000D01*
X141605000Y-85451000D01*
X141605000Y-85471000D01*
X142798155Y-85471000D01*
X142919476Y-85241110D01*
X142874825Y-85093901D01*
X142749641Y-84831080D01*
X142575588Y-84597731D01*
X142359355Y-84402822D01*
X142242466Y-84333195D01*
X142424632Y-84211475D01*
X142631475Y-84004632D01*
X142793990Y-83761411D01*
X142905932Y-83491158D01*
X142963000Y-83204260D01*
X142963000Y-82911740D01*
X142905932Y-82624842D01*
X142793990Y-82354589D01*
X142631475Y-82111368D01*
X142499620Y-81979513D01*
X142572180Y-81957502D01*
X142682494Y-81898537D01*
X142779185Y-81819185D01*
X142858537Y-81722494D01*
X142917502Y-81612180D01*
X142953812Y-81492482D01*
X142966072Y-81368000D01*
X142966072Y-79668000D01*
X142953812Y-79543518D01*
X142917502Y-79423820D01*
X142858537Y-79313506D01*
X142779185Y-79216815D01*
X142682494Y-79137463D01*
X142572180Y-79078498D01*
X142452482Y-79042188D01*
X142328000Y-79029928D01*
X140628000Y-79029928D01*
X140503518Y-79042188D01*
X140383820Y-79078498D01*
X140273506Y-79137463D01*
X140176815Y-79216815D01*
X140097463Y-79313506D01*
X140038498Y-79423820D01*
X140002188Y-79543518D01*
X139989928Y-79668000D01*
X133552043Y-79668000D01*
X133487475Y-79571368D01*
X133355620Y-79439513D01*
X133428180Y-79417502D01*
X133538494Y-79358537D01*
X133635185Y-79279185D01*
X133714537Y-79182494D01*
X133773502Y-79072180D01*
X133809812Y-78952482D01*
X133822072Y-78828000D01*
X133822072Y-77128000D01*
X133809812Y-77003518D01*
X133773502Y-76883820D01*
X133714537Y-76773506D01*
X133635185Y-76676815D01*
X133538494Y-76597463D01*
X133428180Y-76538498D01*
X133308482Y-76502188D01*
X133184000Y-76489928D01*
X131484000Y-76489928D01*
X131359518Y-76502188D01*
X131239820Y-76538498D01*
X131129506Y-76597463D01*
X131032815Y-76676815D01*
X130953463Y-76773506D01*
X130894498Y-76883820D01*
X130872487Y-76956380D01*
X130740632Y-76824525D01*
X130497411Y-76662010D01*
X130227158Y-76550068D01*
X129940260Y-76493000D01*
X129647740Y-76493000D01*
X129360842Y-76550068D01*
X129090589Y-76662010D01*
X128847368Y-76824525D01*
X128640525Y-77031368D01*
X128478010Y-77274589D01*
X128366068Y-77544842D01*
X128309000Y-77831740D01*
X127660000Y-77831740D01*
X127660000Y-74320000D01*
X151740000Y-74320000D01*
X151740001Y-103480000D01*
M02*
