G04 #@! TF.GenerationSoftware,KiCad,Pcbnew,(5.1.6-0-10_14)*
G04 #@! TF.CreationDate,2020-06-06T21:07:02+01:00*
G04 #@! TF.ProjectId,JLinkSWD,4a4c696e-6b53-4574-942e-6b696361645f,rev?*
G04 #@! TF.SameCoordinates,Original*
G04 #@! TF.FileFunction,Legend,Top*
G04 #@! TF.FilePolarity,Positive*
%FSLAX46Y46*%
G04 Gerber Fmt 4.6, Leading zero omitted, Abs format (unit mm)*
G04 Created by KiCad (PCBNEW (5.1.6-0-10_14)) date 2020-06-06 21:07:02*
%MOMM*%
%LPD*%
G01*
G04 APERTURE LIST*
%ADD10C,0.120000*%
%ADD11C,0.150000*%
G04 APERTURE END LIST*
D10*
X172152000Y-79756000D02*
X172152000Y-97596000D01*
X172152000Y-97596000D02*
X174812000Y-97596000D01*
X174812000Y-97596000D02*
X174812000Y-79756000D01*
X174812000Y-79756000D02*
X172152000Y-79756000D01*
X172152000Y-78486000D02*
X172152000Y-77156000D01*
X172152000Y-77156000D02*
X173482000Y-77156000D01*
X168716000Y-77470000D02*
X168716000Y-100390000D01*
X168716000Y-100390000D02*
X163516000Y-100390000D01*
X163516000Y-100390000D02*
X163516000Y-74870000D01*
X163516000Y-74870000D02*
X166116000Y-74870000D01*
X166116000Y-74870000D02*
X166116000Y-77470000D01*
X166116000Y-77470000D02*
X168716000Y-77470000D01*
X168716000Y-76200000D02*
X168716000Y-74870000D01*
X168716000Y-74870000D02*
X167446000Y-74870000D01*
X182052000Y-85725000D02*
X182052000Y-90865000D01*
X182052000Y-90865000D02*
X178882000Y-90865000D01*
X178882000Y-90865000D02*
X178882000Y-84395000D01*
X178882000Y-84395000D02*
X180467000Y-84395000D01*
X180467000Y-84395000D02*
X180467000Y-85725000D01*
X180467000Y-85725000D02*
X182052000Y-85725000D01*
X182052000Y-85090000D02*
X182052000Y-84395000D01*
X182052000Y-84395000D02*
X181417000Y-84395000D01*
D11*
X173148666Y-75608380D02*
X173148666Y-76322666D01*
X173101047Y-76465523D01*
X173005809Y-76560761D01*
X172862952Y-76608380D01*
X172767714Y-76608380D01*
X173577238Y-75703619D02*
X173624857Y-75656000D01*
X173720095Y-75608380D01*
X173958190Y-75608380D01*
X174053428Y-75656000D01*
X174101047Y-75703619D01*
X174148666Y-75798857D01*
X174148666Y-75894095D01*
X174101047Y-76036952D01*
X173529619Y-76608380D01*
X174148666Y-76608380D01*
X169592666Y-74382380D02*
X169592666Y-75096666D01*
X169545047Y-75239523D01*
X169449809Y-75334761D01*
X169306952Y-75382380D01*
X169211714Y-75382380D01*
X170592666Y-75382380D02*
X170021238Y-75382380D01*
X170306952Y-75382380D02*
X170306952Y-74382380D01*
X170211714Y-74525238D01*
X170116476Y-74620476D01*
X170021238Y-74668095D01*
X180133666Y-82847380D02*
X180133666Y-83561666D01*
X180086047Y-83704523D01*
X179990809Y-83799761D01*
X179847952Y-83847380D01*
X179752714Y-83847380D01*
X180514619Y-82847380D02*
X181133666Y-82847380D01*
X180800333Y-83228333D01*
X180943190Y-83228333D01*
X181038428Y-83275952D01*
X181086047Y-83323571D01*
X181133666Y-83418809D01*
X181133666Y-83656904D01*
X181086047Y-83752142D01*
X181038428Y-83799761D01*
X180943190Y-83847380D01*
X180657476Y-83847380D01*
X180562238Y-83799761D01*
X180514619Y-83752142D01*
M02*
