G04 #@! TF.GenerationSoftware,KiCad,Pcbnew,(5.1.5-0-10_14)*
G04 #@! TF.CreationDate,2020-05-15T13:47:23+01:00*
G04 #@! TF.ProjectId,JLinkSWD,4a4c696e-6b53-4574-942e-6b696361645f,rev?*
G04 #@! TF.SameCoordinates,Original*
G04 #@! TF.FileFunction,Copper,L1,Top*
G04 #@! TF.FilePolarity,Positive*
%FSLAX46Y46*%
G04 Gerber Fmt 4.6, Leading zero omitted, Abs format (unit mm)*
G04 Created by KiCad (PCBNEW (5.1.5-0-10_14)) date 2020-05-15 13:47:23*
%MOMM*%
%LPD*%
G04 APERTURE LIST*
%ADD10O,1.700000X1.700000*%
%ADD11R,1.700000X1.700000*%
%ADD12O,1.350000X1.350000*%
%ADD13R,1.350000X1.350000*%
%ADD14C,0.800000*%
%ADD15C,0.250000*%
%ADD16C,0.254000*%
G04 APERTURE END LIST*
D10*
X141478000Y-98298000D03*
X141478000Y-95758000D03*
X141478000Y-93218000D03*
X141478000Y-90678000D03*
X141478000Y-88138000D03*
X141478000Y-85598000D03*
X141478000Y-83058000D03*
D11*
X141478000Y-80518000D03*
D10*
X129794000Y-100838000D03*
X132334000Y-100838000D03*
X129794000Y-98298000D03*
X132334000Y-98298000D03*
X129794000Y-95758000D03*
X132334000Y-95758000D03*
X129794000Y-93218000D03*
X132334000Y-93218000D03*
X129794000Y-90678000D03*
X132334000Y-90678000D03*
X129794000Y-88138000D03*
X132334000Y-88138000D03*
X129794000Y-85598000D03*
X132334000Y-85598000D03*
X129794000Y-83058000D03*
X132334000Y-83058000D03*
X129794000Y-80518000D03*
X132334000Y-80518000D03*
X129794000Y-77978000D03*
D11*
X132334000Y-77978000D03*
D12*
X147606000Y-93598000D03*
X149606000Y-93598000D03*
X147606000Y-91598000D03*
X149606000Y-91598000D03*
X147606000Y-89598000D03*
X149606000Y-89598000D03*
X147606000Y-87598000D03*
X149606000Y-87598000D03*
X147606000Y-85598000D03*
D13*
X149606000Y-85598000D03*
D14*
X135128000Y-90170000D03*
X135128000Y-94234000D03*
X144780000Y-89662000D03*
X138938000Y-89662000D03*
X144272000Y-91694000D03*
D15*
X135128000Y-90170000D02*
X135128000Y-94234000D01*
X132334000Y-95758000D02*
X135382000Y-95758000D01*
X137922000Y-93218000D02*
X141478000Y-93218000D01*
X135382000Y-95758000D02*
X137922000Y-93218000D01*
X147606000Y-93598000D02*
X144906000Y-93598000D01*
X144526000Y-93218000D02*
X141478000Y-93218000D01*
X144906000Y-93598000D02*
X144526000Y-93218000D01*
X132334000Y-88138000D02*
X135128000Y-88138000D01*
X137668000Y-90678000D02*
X141478000Y-90678000D01*
X135128000Y-88138000D02*
X137668000Y-90678000D01*
X145574000Y-87598000D02*
X147606000Y-87598000D01*
X142494000Y-90678000D02*
X145574000Y-87598000D01*
X141478000Y-90678000D02*
X142494000Y-90678000D01*
X147606000Y-89598000D02*
X144844000Y-89598000D01*
X144844000Y-89598000D02*
X144780000Y-89662000D01*
X147510000Y-91694000D02*
X147606000Y-91598000D01*
X144272000Y-91694000D02*
X147510000Y-91694000D01*
X138938000Y-89096315D02*
X138938000Y-89662000D01*
X138938000Y-88459919D02*
X138938000Y-89096315D01*
X133536081Y-83058000D02*
X138938000Y-88459919D01*
X132334000Y-83058000D02*
X133536081Y-83058000D01*
D16*
G36*
X151740001Y-103480000D02*
G01*
X127660000Y-103480000D01*
X127660000Y-77831740D01*
X128309000Y-77831740D01*
X128309000Y-78124260D01*
X128366068Y-78411158D01*
X128478010Y-78681411D01*
X128640525Y-78924632D01*
X128847368Y-79131475D01*
X129021760Y-79248000D01*
X128847368Y-79364525D01*
X128640525Y-79571368D01*
X128478010Y-79814589D01*
X128366068Y-80084842D01*
X128309000Y-80371740D01*
X128309000Y-80664260D01*
X128366068Y-80951158D01*
X128478010Y-81221411D01*
X128640525Y-81464632D01*
X128847368Y-81671475D01*
X129021760Y-81788000D01*
X128847368Y-81904525D01*
X128640525Y-82111368D01*
X128478010Y-82354589D01*
X128366068Y-82624842D01*
X128309000Y-82911740D01*
X128309000Y-83204260D01*
X128366068Y-83491158D01*
X128478010Y-83761411D01*
X128640525Y-84004632D01*
X128847368Y-84211475D01*
X129021760Y-84328000D01*
X128847368Y-84444525D01*
X128640525Y-84651368D01*
X128478010Y-84894589D01*
X128366068Y-85164842D01*
X128309000Y-85451740D01*
X128309000Y-85744260D01*
X128366068Y-86031158D01*
X128478010Y-86301411D01*
X128640525Y-86544632D01*
X128847368Y-86751475D01*
X129021760Y-86868000D01*
X128847368Y-86984525D01*
X128640525Y-87191368D01*
X128478010Y-87434589D01*
X128366068Y-87704842D01*
X128309000Y-87991740D01*
X128309000Y-88284260D01*
X128366068Y-88571158D01*
X128478010Y-88841411D01*
X128640525Y-89084632D01*
X128847368Y-89291475D01*
X129021760Y-89408000D01*
X128847368Y-89524525D01*
X128640525Y-89731368D01*
X128478010Y-89974589D01*
X128366068Y-90244842D01*
X128309000Y-90531740D01*
X128309000Y-90824260D01*
X128366068Y-91111158D01*
X128478010Y-91381411D01*
X128640525Y-91624632D01*
X128847368Y-91831475D01*
X129021760Y-91948000D01*
X128847368Y-92064525D01*
X128640525Y-92271368D01*
X128478010Y-92514589D01*
X128366068Y-92784842D01*
X128309000Y-93071740D01*
X128309000Y-93364260D01*
X128366068Y-93651158D01*
X128478010Y-93921411D01*
X128640525Y-94164632D01*
X128847368Y-94371475D01*
X129021760Y-94488000D01*
X128847368Y-94604525D01*
X128640525Y-94811368D01*
X128478010Y-95054589D01*
X128366068Y-95324842D01*
X128309000Y-95611740D01*
X128309000Y-95904260D01*
X128366068Y-96191158D01*
X128478010Y-96461411D01*
X128640525Y-96704632D01*
X128847368Y-96911475D01*
X129021760Y-97028000D01*
X128847368Y-97144525D01*
X128640525Y-97351368D01*
X128478010Y-97594589D01*
X128366068Y-97864842D01*
X128309000Y-98151740D01*
X128309000Y-98444260D01*
X128366068Y-98731158D01*
X128478010Y-99001411D01*
X128640525Y-99244632D01*
X128847368Y-99451475D01*
X129021760Y-99568000D01*
X128847368Y-99684525D01*
X128640525Y-99891368D01*
X128478010Y-100134589D01*
X128366068Y-100404842D01*
X128309000Y-100691740D01*
X128309000Y-100984260D01*
X128366068Y-101271158D01*
X128478010Y-101541411D01*
X128640525Y-101784632D01*
X128847368Y-101991475D01*
X129090589Y-102153990D01*
X129360842Y-102265932D01*
X129647740Y-102323000D01*
X129940260Y-102323000D01*
X130227158Y-102265932D01*
X130497411Y-102153990D01*
X130740632Y-101991475D01*
X130947475Y-101784632D01*
X131064000Y-101610240D01*
X131180525Y-101784632D01*
X131387368Y-101991475D01*
X131630589Y-102153990D01*
X131900842Y-102265932D01*
X132187740Y-102323000D01*
X132480260Y-102323000D01*
X132767158Y-102265932D01*
X133037411Y-102153990D01*
X133280632Y-101991475D01*
X133487475Y-101784632D01*
X133649990Y-101541411D01*
X133761932Y-101271158D01*
X133819000Y-100984260D01*
X133819000Y-100691740D01*
X133761932Y-100404842D01*
X133649990Y-100134589D01*
X133487475Y-99891368D01*
X133280632Y-99684525D01*
X133106240Y-99568000D01*
X133280632Y-99451475D01*
X133487475Y-99244632D01*
X133649990Y-99001411D01*
X133761932Y-98731158D01*
X133819000Y-98444260D01*
X133819000Y-98151740D01*
X133761932Y-97864842D01*
X133649990Y-97594589D01*
X133487475Y-97351368D01*
X133280632Y-97144525D01*
X133106240Y-97028000D01*
X133280632Y-96911475D01*
X133487475Y-96704632D01*
X133612178Y-96518000D01*
X135344678Y-96518000D01*
X135382000Y-96521676D01*
X135419322Y-96518000D01*
X135419333Y-96518000D01*
X135530986Y-96507003D01*
X135674247Y-96463546D01*
X135806276Y-96392974D01*
X135922001Y-96298001D01*
X135945804Y-96268997D01*
X138236803Y-93978000D01*
X140199822Y-93978000D01*
X140324525Y-94164632D01*
X140531368Y-94371475D01*
X140705760Y-94488000D01*
X140531368Y-94604525D01*
X140324525Y-94811368D01*
X140162010Y-95054589D01*
X140050068Y-95324842D01*
X139993000Y-95611740D01*
X139993000Y-95904260D01*
X140050068Y-96191158D01*
X140162010Y-96461411D01*
X140324525Y-96704632D01*
X140531368Y-96911475D01*
X140705760Y-97028000D01*
X140531368Y-97144525D01*
X140324525Y-97351368D01*
X140162010Y-97594589D01*
X140050068Y-97864842D01*
X139993000Y-98151740D01*
X139993000Y-98444260D01*
X140050068Y-98731158D01*
X140162010Y-99001411D01*
X140324525Y-99244632D01*
X140531368Y-99451475D01*
X140774589Y-99613990D01*
X141044842Y-99725932D01*
X141331740Y-99783000D01*
X141624260Y-99783000D01*
X141911158Y-99725932D01*
X142181411Y-99613990D01*
X142424632Y-99451475D01*
X142631475Y-99244632D01*
X142793990Y-99001411D01*
X142905932Y-98731158D01*
X142963000Y-98444260D01*
X142963000Y-98151740D01*
X142905932Y-97864842D01*
X142793990Y-97594589D01*
X142631475Y-97351368D01*
X142424632Y-97144525D01*
X142250240Y-97028000D01*
X142424632Y-96911475D01*
X142631475Y-96704632D01*
X142793990Y-96461411D01*
X142905932Y-96191158D01*
X142963000Y-95904260D01*
X142963000Y-95611740D01*
X142905932Y-95324842D01*
X142793990Y-95054589D01*
X142631475Y-94811368D01*
X142424632Y-94604525D01*
X142250240Y-94488000D01*
X142424632Y-94371475D01*
X142631475Y-94164632D01*
X142756178Y-93978000D01*
X144211199Y-93978000D01*
X144342196Y-94108997D01*
X144365999Y-94138001D01*
X144481724Y-94232974D01*
X144613753Y-94303546D01*
X144757014Y-94347003D01*
X144868667Y-94358000D01*
X144868676Y-94358000D01*
X144905999Y-94361676D01*
X144943322Y-94358000D01*
X146538291Y-94358000D01*
X146588456Y-94433077D01*
X146770923Y-94615544D01*
X146985482Y-94758907D01*
X147223887Y-94857658D01*
X147476976Y-94908000D01*
X147735024Y-94908000D01*
X147988113Y-94857658D01*
X148226518Y-94758907D01*
X148441077Y-94615544D01*
X148606000Y-94450621D01*
X148770923Y-94615544D01*
X148985482Y-94758907D01*
X149223887Y-94857658D01*
X149476976Y-94908000D01*
X149735024Y-94908000D01*
X149988113Y-94857658D01*
X150226518Y-94758907D01*
X150441077Y-94615544D01*
X150623544Y-94433077D01*
X150766907Y-94218518D01*
X150865658Y-93980113D01*
X150916000Y-93727024D01*
X150916000Y-93468976D01*
X150865658Y-93215887D01*
X150766907Y-92977482D01*
X150623544Y-92762923D01*
X150458621Y-92598000D01*
X150623544Y-92433077D01*
X150766907Y-92218518D01*
X150865658Y-91980113D01*
X150916000Y-91727024D01*
X150916000Y-91468976D01*
X150865658Y-91215887D01*
X150766907Y-90977482D01*
X150623544Y-90762923D01*
X150458621Y-90598000D01*
X150623544Y-90433077D01*
X150766907Y-90218518D01*
X150865658Y-89980113D01*
X150916000Y-89727024D01*
X150916000Y-89468976D01*
X150865658Y-89215887D01*
X150766907Y-88977482D01*
X150623544Y-88762923D01*
X150458621Y-88598000D01*
X150623544Y-88433077D01*
X150766907Y-88218518D01*
X150865658Y-87980113D01*
X150916000Y-87727024D01*
X150916000Y-87468976D01*
X150865658Y-87215887D01*
X150766907Y-86977482D01*
X150645303Y-86795487D01*
X150732185Y-86724185D01*
X150811537Y-86627494D01*
X150870502Y-86517180D01*
X150906812Y-86397482D01*
X150919072Y-86273000D01*
X150916000Y-85883750D01*
X150757250Y-85725000D01*
X149733000Y-85725000D01*
X149733000Y-85745000D01*
X149479000Y-85745000D01*
X149479000Y-85725000D01*
X149459000Y-85725000D01*
X149459000Y-85471000D01*
X149479000Y-85471000D01*
X149479000Y-84446750D01*
X149733000Y-84446750D01*
X149733000Y-85471000D01*
X150757250Y-85471000D01*
X150916000Y-85312250D01*
X150919072Y-84923000D01*
X150906812Y-84798518D01*
X150870502Y-84678820D01*
X150811537Y-84568506D01*
X150732185Y-84471815D01*
X150635494Y-84392463D01*
X150525180Y-84333498D01*
X150405482Y-84297188D01*
X150281000Y-84284928D01*
X149891750Y-84288000D01*
X149733000Y-84446750D01*
X149479000Y-84446750D01*
X149320250Y-84288000D01*
X148931000Y-84284928D01*
X148806518Y-84297188D01*
X148686820Y-84333498D01*
X148576506Y-84392463D01*
X148479815Y-84471815D01*
X148408513Y-84558697D01*
X148226518Y-84437093D01*
X147988113Y-84338342D01*
X147735024Y-84288000D01*
X147476976Y-84288000D01*
X147223887Y-84338342D01*
X146985482Y-84437093D01*
X146770923Y-84580456D01*
X146588456Y-84762923D01*
X146445093Y-84977482D01*
X146346342Y-85215887D01*
X146296000Y-85468976D01*
X146296000Y-85727024D01*
X146346342Y-85980113D01*
X146445093Y-86218518D01*
X146588456Y-86433077D01*
X146753379Y-86598000D01*
X146588456Y-86762923D01*
X146538291Y-86838000D01*
X145611325Y-86838000D01*
X145574000Y-86834324D01*
X145536675Y-86838000D01*
X145536667Y-86838000D01*
X145425014Y-86848997D01*
X145281753Y-86892454D01*
X145149724Y-86963026D01*
X145033999Y-87057999D01*
X145010201Y-87086997D01*
X142498653Y-89598546D01*
X142424632Y-89524525D01*
X142250240Y-89408000D01*
X142424632Y-89291475D01*
X142631475Y-89084632D01*
X142793990Y-88841411D01*
X142905932Y-88571158D01*
X142963000Y-88284260D01*
X142963000Y-87991740D01*
X142905932Y-87704842D01*
X142793990Y-87434589D01*
X142631475Y-87191368D01*
X142424632Y-86984525D01*
X142250240Y-86868000D01*
X142424632Y-86751475D01*
X142631475Y-86544632D01*
X142793990Y-86301411D01*
X142905932Y-86031158D01*
X142963000Y-85744260D01*
X142963000Y-85451740D01*
X142905932Y-85164842D01*
X142793990Y-84894589D01*
X142631475Y-84651368D01*
X142424632Y-84444525D01*
X142242466Y-84322805D01*
X142359355Y-84253178D01*
X142575588Y-84058269D01*
X142749641Y-83824920D01*
X142874825Y-83562099D01*
X142919476Y-83414890D01*
X142798155Y-83185000D01*
X141605000Y-83185000D01*
X141605000Y-83205000D01*
X141351000Y-83205000D01*
X141351000Y-83185000D01*
X140157845Y-83185000D01*
X140036524Y-83414890D01*
X140081175Y-83562099D01*
X140206359Y-83824920D01*
X140380412Y-84058269D01*
X140596645Y-84253178D01*
X140713534Y-84322805D01*
X140531368Y-84444525D01*
X140324525Y-84651368D01*
X140162010Y-84894589D01*
X140050068Y-85164842D01*
X139993000Y-85451740D01*
X139993000Y-85744260D01*
X140050068Y-86031158D01*
X140162010Y-86301411D01*
X140324525Y-86544632D01*
X140531368Y-86751475D01*
X140705760Y-86868000D01*
X140531368Y-86984525D01*
X140324525Y-87191368D01*
X140162010Y-87434589D01*
X140050068Y-87704842D01*
X139993000Y-87991740D01*
X139993000Y-88284260D01*
X140050068Y-88571158D01*
X140162010Y-88841411D01*
X140324525Y-89084632D01*
X140531368Y-89291475D01*
X140705760Y-89408000D01*
X140531368Y-89524525D01*
X140324525Y-89731368D01*
X140199822Y-89918000D01*
X139942356Y-89918000D01*
X139973000Y-89763939D01*
X139973000Y-89560061D01*
X139933226Y-89360102D01*
X139855205Y-89171744D01*
X139741937Y-89002226D01*
X139698000Y-88958289D01*
X139698000Y-88497241D01*
X139701676Y-88459918D01*
X139698000Y-88422595D01*
X139698000Y-88422586D01*
X139687003Y-88310933D01*
X139643546Y-88167672D01*
X139627686Y-88138000D01*
X139572974Y-88035642D01*
X139501799Y-87948916D01*
X139478001Y-87919918D01*
X139449004Y-87896121D01*
X134099885Y-82547003D01*
X134076082Y-82517999D01*
X133960357Y-82423026D01*
X133828328Y-82352454D01*
X133685067Y-82308997D01*
X133614909Y-82302087D01*
X133487475Y-82111368D01*
X133280632Y-81904525D01*
X133106240Y-81788000D01*
X133280632Y-81671475D01*
X133487475Y-81464632D01*
X133649990Y-81221411D01*
X133761932Y-80951158D01*
X133819000Y-80664260D01*
X133819000Y-80371740D01*
X133761932Y-80084842D01*
X133649990Y-79814589D01*
X133552043Y-79668000D01*
X139989928Y-79668000D01*
X139989928Y-81368000D01*
X140002188Y-81492482D01*
X140038498Y-81612180D01*
X140097463Y-81722494D01*
X140176815Y-81819185D01*
X140273506Y-81898537D01*
X140383820Y-81957502D01*
X140464466Y-81981966D01*
X140380412Y-82057731D01*
X140206359Y-82291080D01*
X140081175Y-82553901D01*
X140036524Y-82701110D01*
X140157845Y-82931000D01*
X141351000Y-82931000D01*
X141351000Y-82911000D01*
X141605000Y-82911000D01*
X141605000Y-82931000D01*
X142798155Y-82931000D01*
X142919476Y-82701110D01*
X142874825Y-82553901D01*
X142749641Y-82291080D01*
X142575588Y-82057731D01*
X142491534Y-81981966D01*
X142572180Y-81957502D01*
X142682494Y-81898537D01*
X142779185Y-81819185D01*
X142858537Y-81722494D01*
X142917502Y-81612180D01*
X142953812Y-81492482D01*
X142966072Y-81368000D01*
X142966072Y-79668000D01*
X142953812Y-79543518D01*
X142917502Y-79423820D01*
X142858537Y-79313506D01*
X142779185Y-79216815D01*
X142682494Y-79137463D01*
X142572180Y-79078498D01*
X142452482Y-79042188D01*
X142328000Y-79029928D01*
X140628000Y-79029928D01*
X140503518Y-79042188D01*
X140383820Y-79078498D01*
X140273506Y-79137463D01*
X140176815Y-79216815D01*
X140097463Y-79313506D01*
X140038498Y-79423820D01*
X140002188Y-79543518D01*
X139989928Y-79668000D01*
X133552043Y-79668000D01*
X133487475Y-79571368D01*
X133355620Y-79439513D01*
X133428180Y-79417502D01*
X133538494Y-79358537D01*
X133635185Y-79279185D01*
X133714537Y-79182494D01*
X133773502Y-79072180D01*
X133809812Y-78952482D01*
X133822072Y-78828000D01*
X133819000Y-78263750D01*
X133660250Y-78105000D01*
X132461000Y-78105000D01*
X132461000Y-78125000D01*
X132207000Y-78125000D01*
X132207000Y-78105000D01*
X132187000Y-78105000D01*
X132187000Y-77851000D01*
X132207000Y-77851000D01*
X132207000Y-76651750D01*
X132461000Y-76651750D01*
X132461000Y-77851000D01*
X133660250Y-77851000D01*
X133819000Y-77692250D01*
X133822072Y-77128000D01*
X133809812Y-77003518D01*
X133773502Y-76883820D01*
X133714537Y-76773506D01*
X133635185Y-76676815D01*
X133538494Y-76597463D01*
X133428180Y-76538498D01*
X133308482Y-76502188D01*
X133184000Y-76489928D01*
X132619750Y-76493000D01*
X132461000Y-76651750D01*
X132207000Y-76651750D01*
X132048250Y-76493000D01*
X131484000Y-76489928D01*
X131359518Y-76502188D01*
X131239820Y-76538498D01*
X131129506Y-76597463D01*
X131032815Y-76676815D01*
X130953463Y-76773506D01*
X130894498Y-76883820D01*
X130872487Y-76956380D01*
X130740632Y-76824525D01*
X130497411Y-76662010D01*
X130227158Y-76550068D01*
X129940260Y-76493000D01*
X129647740Y-76493000D01*
X129360842Y-76550068D01*
X129090589Y-76662010D01*
X128847368Y-76824525D01*
X128640525Y-77031368D01*
X128478010Y-77274589D01*
X128366068Y-77544842D01*
X128309000Y-77831740D01*
X127660000Y-77831740D01*
X127660000Y-74320000D01*
X151740000Y-74320000D01*
X151740001Y-103480000D01*
G37*
X151740001Y-103480000D02*
X127660000Y-103480000D01*
X127660000Y-77831740D01*
X128309000Y-77831740D01*
X128309000Y-78124260D01*
X128366068Y-78411158D01*
X128478010Y-78681411D01*
X128640525Y-78924632D01*
X128847368Y-79131475D01*
X129021760Y-79248000D01*
X128847368Y-79364525D01*
X128640525Y-79571368D01*
X128478010Y-79814589D01*
X128366068Y-80084842D01*
X128309000Y-80371740D01*
X128309000Y-80664260D01*
X128366068Y-80951158D01*
X128478010Y-81221411D01*
X128640525Y-81464632D01*
X128847368Y-81671475D01*
X129021760Y-81788000D01*
X128847368Y-81904525D01*
X128640525Y-82111368D01*
X128478010Y-82354589D01*
X128366068Y-82624842D01*
X128309000Y-82911740D01*
X128309000Y-83204260D01*
X128366068Y-83491158D01*
X128478010Y-83761411D01*
X128640525Y-84004632D01*
X128847368Y-84211475D01*
X129021760Y-84328000D01*
X128847368Y-84444525D01*
X128640525Y-84651368D01*
X128478010Y-84894589D01*
X128366068Y-85164842D01*
X128309000Y-85451740D01*
X128309000Y-85744260D01*
X128366068Y-86031158D01*
X128478010Y-86301411D01*
X128640525Y-86544632D01*
X128847368Y-86751475D01*
X129021760Y-86868000D01*
X128847368Y-86984525D01*
X128640525Y-87191368D01*
X128478010Y-87434589D01*
X128366068Y-87704842D01*
X128309000Y-87991740D01*
X128309000Y-88284260D01*
X128366068Y-88571158D01*
X128478010Y-88841411D01*
X128640525Y-89084632D01*
X128847368Y-89291475D01*
X129021760Y-89408000D01*
X128847368Y-89524525D01*
X128640525Y-89731368D01*
X128478010Y-89974589D01*
X128366068Y-90244842D01*
X128309000Y-90531740D01*
X128309000Y-90824260D01*
X128366068Y-91111158D01*
X128478010Y-91381411D01*
X128640525Y-91624632D01*
X128847368Y-91831475D01*
X129021760Y-91948000D01*
X128847368Y-92064525D01*
X128640525Y-92271368D01*
X128478010Y-92514589D01*
X128366068Y-92784842D01*
X128309000Y-93071740D01*
X128309000Y-93364260D01*
X128366068Y-93651158D01*
X128478010Y-93921411D01*
X128640525Y-94164632D01*
X128847368Y-94371475D01*
X129021760Y-94488000D01*
X128847368Y-94604525D01*
X128640525Y-94811368D01*
X128478010Y-95054589D01*
X128366068Y-95324842D01*
X128309000Y-95611740D01*
X128309000Y-95904260D01*
X128366068Y-96191158D01*
X128478010Y-96461411D01*
X128640525Y-96704632D01*
X128847368Y-96911475D01*
X129021760Y-97028000D01*
X128847368Y-97144525D01*
X128640525Y-97351368D01*
X128478010Y-97594589D01*
X128366068Y-97864842D01*
X128309000Y-98151740D01*
X128309000Y-98444260D01*
X128366068Y-98731158D01*
X128478010Y-99001411D01*
X128640525Y-99244632D01*
X128847368Y-99451475D01*
X129021760Y-99568000D01*
X128847368Y-99684525D01*
X128640525Y-99891368D01*
X128478010Y-100134589D01*
X128366068Y-100404842D01*
X128309000Y-100691740D01*
X128309000Y-100984260D01*
X128366068Y-101271158D01*
X128478010Y-101541411D01*
X128640525Y-101784632D01*
X128847368Y-101991475D01*
X129090589Y-102153990D01*
X129360842Y-102265932D01*
X129647740Y-102323000D01*
X129940260Y-102323000D01*
X130227158Y-102265932D01*
X130497411Y-102153990D01*
X130740632Y-101991475D01*
X130947475Y-101784632D01*
X131064000Y-101610240D01*
X131180525Y-101784632D01*
X131387368Y-101991475D01*
X131630589Y-102153990D01*
X131900842Y-102265932D01*
X132187740Y-102323000D01*
X132480260Y-102323000D01*
X132767158Y-102265932D01*
X133037411Y-102153990D01*
X133280632Y-101991475D01*
X133487475Y-101784632D01*
X133649990Y-101541411D01*
X133761932Y-101271158D01*
X133819000Y-100984260D01*
X133819000Y-100691740D01*
X133761932Y-100404842D01*
X133649990Y-100134589D01*
X133487475Y-99891368D01*
X133280632Y-99684525D01*
X133106240Y-99568000D01*
X133280632Y-99451475D01*
X133487475Y-99244632D01*
X133649990Y-99001411D01*
X133761932Y-98731158D01*
X133819000Y-98444260D01*
X133819000Y-98151740D01*
X133761932Y-97864842D01*
X133649990Y-97594589D01*
X133487475Y-97351368D01*
X133280632Y-97144525D01*
X133106240Y-97028000D01*
X133280632Y-96911475D01*
X133487475Y-96704632D01*
X133612178Y-96518000D01*
X135344678Y-96518000D01*
X135382000Y-96521676D01*
X135419322Y-96518000D01*
X135419333Y-96518000D01*
X135530986Y-96507003D01*
X135674247Y-96463546D01*
X135806276Y-96392974D01*
X135922001Y-96298001D01*
X135945804Y-96268997D01*
X138236803Y-93978000D01*
X140199822Y-93978000D01*
X140324525Y-94164632D01*
X140531368Y-94371475D01*
X140705760Y-94488000D01*
X140531368Y-94604525D01*
X140324525Y-94811368D01*
X140162010Y-95054589D01*
X140050068Y-95324842D01*
X139993000Y-95611740D01*
X139993000Y-95904260D01*
X140050068Y-96191158D01*
X140162010Y-96461411D01*
X140324525Y-96704632D01*
X140531368Y-96911475D01*
X140705760Y-97028000D01*
X140531368Y-97144525D01*
X140324525Y-97351368D01*
X140162010Y-97594589D01*
X140050068Y-97864842D01*
X139993000Y-98151740D01*
X139993000Y-98444260D01*
X140050068Y-98731158D01*
X140162010Y-99001411D01*
X140324525Y-99244632D01*
X140531368Y-99451475D01*
X140774589Y-99613990D01*
X141044842Y-99725932D01*
X141331740Y-99783000D01*
X141624260Y-99783000D01*
X141911158Y-99725932D01*
X142181411Y-99613990D01*
X142424632Y-99451475D01*
X142631475Y-99244632D01*
X142793990Y-99001411D01*
X142905932Y-98731158D01*
X142963000Y-98444260D01*
X142963000Y-98151740D01*
X142905932Y-97864842D01*
X142793990Y-97594589D01*
X142631475Y-97351368D01*
X142424632Y-97144525D01*
X142250240Y-97028000D01*
X142424632Y-96911475D01*
X142631475Y-96704632D01*
X142793990Y-96461411D01*
X142905932Y-96191158D01*
X142963000Y-95904260D01*
X142963000Y-95611740D01*
X142905932Y-95324842D01*
X142793990Y-95054589D01*
X142631475Y-94811368D01*
X142424632Y-94604525D01*
X142250240Y-94488000D01*
X142424632Y-94371475D01*
X142631475Y-94164632D01*
X142756178Y-93978000D01*
X144211199Y-93978000D01*
X144342196Y-94108997D01*
X144365999Y-94138001D01*
X144481724Y-94232974D01*
X144613753Y-94303546D01*
X144757014Y-94347003D01*
X144868667Y-94358000D01*
X144868676Y-94358000D01*
X144905999Y-94361676D01*
X144943322Y-94358000D01*
X146538291Y-94358000D01*
X146588456Y-94433077D01*
X146770923Y-94615544D01*
X146985482Y-94758907D01*
X147223887Y-94857658D01*
X147476976Y-94908000D01*
X147735024Y-94908000D01*
X147988113Y-94857658D01*
X148226518Y-94758907D01*
X148441077Y-94615544D01*
X148606000Y-94450621D01*
X148770923Y-94615544D01*
X148985482Y-94758907D01*
X149223887Y-94857658D01*
X149476976Y-94908000D01*
X149735024Y-94908000D01*
X149988113Y-94857658D01*
X150226518Y-94758907D01*
X150441077Y-94615544D01*
X150623544Y-94433077D01*
X150766907Y-94218518D01*
X150865658Y-93980113D01*
X150916000Y-93727024D01*
X150916000Y-93468976D01*
X150865658Y-93215887D01*
X150766907Y-92977482D01*
X150623544Y-92762923D01*
X150458621Y-92598000D01*
X150623544Y-92433077D01*
X150766907Y-92218518D01*
X150865658Y-91980113D01*
X150916000Y-91727024D01*
X150916000Y-91468976D01*
X150865658Y-91215887D01*
X150766907Y-90977482D01*
X150623544Y-90762923D01*
X150458621Y-90598000D01*
X150623544Y-90433077D01*
X150766907Y-90218518D01*
X150865658Y-89980113D01*
X150916000Y-89727024D01*
X150916000Y-89468976D01*
X150865658Y-89215887D01*
X150766907Y-88977482D01*
X150623544Y-88762923D01*
X150458621Y-88598000D01*
X150623544Y-88433077D01*
X150766907Y-88218518D01*
X150865658Y-87980113D01*
X150916000Y-87727024D01*
X150916000Y-87468976D01*
X150865658Y-87215887D01*
X150766907Y-86977482D01*
X150645303Y-86795487D01*
X150732185Y-86724185D01*
X150811537Y-86627494D01*
X150870502Y-86517180D01*
X150906812Y-86397482D01*
X150919072Y-86273000D01*
X150916000Y-85883750D01*
X150757250Y-85725000D01*
X149733000Y-85725000D01*
X149733000Y-85745000D01*
X149479000Y-85745000D01*
X149479000Y-85725000D01*
X149459000Y-85725000D01*
X149459000Y-85471000D01*
X149479000Y-85471000D01*
X149479000Y-84446750D01*
X149733000Y-84446750D01*
X149733000Y-85471000D01*
X150757250Y-85471000D01*
X150916000Y-85312250D01*
X150919072Y-84923000D01*
X150906812Y-84798518D01*
X150870502Y-84678820D01*
X150811537Y-84568506D01*
X150732185Y-84471815D01*
X150635494Y-84392463D01*
X150525180Y-84333498D01*
X150405482Y-84297188D01*
X150281000Y-84284928D01*
X149891750Y-84288000D01*
X149733000Y-84446750D01*
X149479000Y-84446750D01*
X149320250Y-84288000D01*
X148931000Y-84284928D01*
X148806518Y-84297188D01*
X148686820Y-84333498D01*
X148576506Y-84392463D01*
X148479815Y-84471815D01*
X148408513Y-84558697D01*
X148226518Y-84437093D01*
X147988113Y-84338342D01*
X147735024Y-84288000D01*
X147476976Y-84288000D01*
X147223887Y-84338342D01*
X146985482Y-84437093D01*
X146770923Y-84580456D01*
X146588456Y-84762923D01*
X146445093Y-84977482D01*
X146346342Y-85215887D01*
X146296000Y-85468976D01*
X146296000Y-85727024D01*
X146346342Y-85980113D01*
X146445093Y-86218518D01*
X146588456Y-86433077D01*
X146753379Y-86598000D01*
X146588456Y-86762923D01*
X146538291Y-86838000D01*
X145611325Y-86838000D01*
X145574000Y-86834324D01*
X145536675Y-86838000D01*
X145536667Y-86838000D01*
X145425014Y-86848997D01*
X145281753Y-86892454D01*
X145149724Y-86963026D01*
X145033999Y-87057999D01*
X145010201Y-87086997D01*
X142498653Y-89598546D01*
X142424632Y-89524525D01*
X142250240Y-89408000D01*
X142424632Y-89291475D01*
X142631475Y-89084632D01*
X142793990Y-88841411D01*
X142905932Y-88571158D01*
X142963000Y-88284260D01*
X142963000Y-87991740D01*
X142905932Y-87704842D01*
X142793990Y-87434589D01*
X142631475Y-87191368D01*
X142424632Y-86984525D01*
X142250240Y-86868000D01*
X142424632Y-86751475D01*
X142631475Y-86544632D01*
X142793990Y-86301411D01*
X142905932Y-86031158D01*
X142963000Y-85744260D01*
X142963000Y-85451740D01*
X142905932Y-85164842D01*
X142793990Y-84894589D01*
X142631475Y-84651368D01*
X142424632Y-84444525D01*
X142242466Y-84322805D01*
X142359355Y-84253178D01*
X142575588Y-84058269D01*
X142749641Y-83824920D01*
X142874825Y-83562099D01*
X142919476Y-83414890D01*
X142798155Y-83185000D01*
X141605000Y-83185000D01*
X141605000Y-83205000D01*
X141351000Y-83205000D01*
X141351000Y-83185000D01*
X140157845Y-83185000D01*
X140036524Y-83414890D01*
X140081175Y-83562099D01*
X140206359Y-83824920D01*
X140380412Y-84058269D01*
X140596645Y-84253178D01*
X140713534Y-84322805D01*
X140531368Y-84444525D01*
X140324525Y-84651368D01*
X140162010Y-84894589D01*
X140050068Y-85164842D01*
X139993000Y-85451740D01*
X139993000Y-85744260D01*
X140050068Y-86031158D01*
X140162010Y-86301411D01*
X140324525Y-86544632D01*
X140531368Y-86751475D01*
X140705760Y-86868000D01*
X140531368Y-86984525D01*
X140324525Y-87191368D01*
X140162010Y-87434589D01*
X140050068Y-87704842D01*
X139993000Y-87991740D01*
X139993000Y-88284260D01*
X140050068Y-88571158D01*
X140162010Y-88841411D01*
X140324525Y-89084632D01*
X140531368Y-89291475D01*
X140705760Y-89408000D01*
X140531368Y-89524525D01*
X140324525Y-89731368D01*
X140199822Y-89918000D01*
X139942356Y-89918000D01*
X139973000Y-89763939D01*
X139973000Y-89560061D01*
X139933226Y-89360102D01*
X139855205Y-89171744D01*
X139741937Y-89002226D01*
X139698000Y-88958289D01*
X139698000Y-88497241D01*
X139701676Y-88459918D01*
X139698000Y-88422595D01*
X139698000Y-88422586D01*
X139687003Y-88310933D01*
X139643546Y-88167672D01*
X139627686Y-88138000D01*
X139572974Y-88035642D01*
X139501799Y-87948916D01*
X139478001Y-87919918D01*
X139449004Y-87896121D01*
X134099885Y-82547003D01*
X134076082Y-82517999D01*
X133960357Y-82423026D01*
X133828328Y-82352454D01*
X133685067Y-82308997D01*
X133614909Y-82302087D01*
X133487475Y-82111368D01*
X133280632Y-81904525D01*
X133106240Y-81788000D01*
X133280632Y-81671475D01*
X133487475Y-81464632D01*
X133649990Y-81221411D01*
X133761932Y-80951158D01*
X133819000Y-80664260D01*
X133819000Y-80371740D01*
X133761932Y-80084842D01*
X133649990Y-79814589D01*
X133552043Y-79668000D01*
X139989928Y-79668000D01*
X139989928Y-81368000D01*
X140002188Y-81492482D01*
X140038498Y-81612180D01*
X140097463Y-81722494D01*
X140176815Y-81819185D01*
X140273506Y-81898537D01*
X140383820Y-81957502D01*
X140464466Y-81981966D01*
X140380412Y-82057731D01*
X140206359Y-82291080D01*
X140081175Y-82553901D01*
X140036524Y-82701110D01*
X140157845Y-82931000D01*
X141351000Y-82931000D01*
X141351000Y-82911000D01*
X141605000Y-82911000D01*
X141605000Y-82931000D01*
X142798155Y-82931000D01*
X142919476Y-82701110D01*
X142874825Y-82553901D01*
X142749641Y-82291080D01*
X142575588Y-82057731D01*
X142491534Y-81981966D01*
X142572180Y-81957502D01*
X142682494Y-81898537D01*
X142779185Y-81819185D01*
X142858537Y-81722494D01*
X142917502Y-81612180D01*
X142953812Y-81492482D01*
X142966072Y-81368000D01*
X142966072Y-79668000D01*
X142953812Y-79543518D01*
X142917502Y-79423820D01*
X142858537Y-79313506D01*
X142779185Y-79216815D01*
X142682494Y-79137463D01*
X142572180Y-79078498D01*
X142452482Y-79042188D01*
X142328000Y-79029928D01*
X140628000Y-79029928D01*
X140503518Y-79042188D01*
X140383820Y-79078498D01*
X140273506Y-79137463D01*
X140176815Y-79216815D01*
X140097463Y-79313506D01*
X140038498Y-79423820D01*
X140002188Y-79543518D01*
X139989928Y-79668000D01*
X133552043Y-79668000D01*
X133487475Y-79571368D01*
X133355620Y-79439513D01*
X133428180Y-79417502D01*
X133538494Y-79358537D01*
X133635185Y-79279185D01*
X133714537Y-79182494D01*
X133773502Y-79072180D01*
X133809812Y-78952482D01*
X133822072Y-78828000D01*
X133819000Y-78263750D01*
X133660250Y-78105000D01*
X132461000Y-78105000D01*
X132461000Y-78125000D01*
X132207000Y-78125000D01*
X132207000Y-78105000D01*
X132187000Y-78105000D01*
X132187000Y-77851000D01*
X132207000Y-77851000D01*
X132207000Y-76651750D01*
X132461000Y-76651750D01*
X132461000Y-77851000D01*
X133660250Y-77851000D01*
X133819000Y-77692250D01*
X133822072Y-77128000D01*
X133809812Y-77003518D01*
X133773502Y-76883820D01*
X133714537Y-76773506D01*
X133635185Y-76676815D01*
X133538494Y-76597463D01*
X133428180Y-76538498D01*
X133308482Y-76502188D01*
X133184000Y-76489928D01*
X132619750Y-76493000D01*
X132461000Y-76651750D01*
X132207000Y-76651750D01*
X132048250Y-76493000D01*
X131484000Y-76489928D01*
X131359518Y-76502188D01*
X131239820Y-76538498D01*
X131129506Y-76597463D01*
X131032815Y-76676815D01*
X130953463Y-76773506D01*
X130894498Y-76883820D01*
X130872487Y-76956380D01*
X130740632Y-76824525D01*
X130497411Y-76662010D01*
X130227158Y-76550068D01*
X129940260Y-76493000D01*
X129647740Y-76493000D01*
X129360842Y-76550068D01*
X129090589Y-76662010D01*
X128847368Y-76824525D01*
X128640525Y-77031368D01*
X128478010Y-77274589D01*
X128366068Y-77544842D01*
X128309000Y-77831740D01*
X127660000Y-77831740D01*
X127660000Y-74320000D01*
X151740000Y-74320000D01*
X151740001Y-103480000D01*
M02*
